<?xml version="1.0" encoding="UTF-8" standalone="no"?><!DOCTYPE svg PUBLIC "-//W3C//DTD SVG 1.1//EN" "http://www.w3.org/Graphics/SVG/1.1/DTD/svg11.dtd"><svg width="100%" height="100%" viewBox="0 0 23 23" version="1.1" xmlns="http://www.w3.org/2000/svg" xmlns:xlink="http://www.w3.org/1999/xlink" xml:space="preserve" xmlns:serif="http://www.serif.com/" style="fill-rule:evenodd;clip-rule:evenodd;stroke-linejoin:round;stroke-miterlimit:2;"><rect id="Artboard1" x="0" y="0" width="22.5" height="22.5" style="fill:none;"/><path d="M21.937,5.906c0,-2.949 -2.394,-5.344 -5.343,-5.344l-10.688,0c-2.949,0 -5.344,2.395 -5.344,5.344l0.001,10.688c-0,2.949 2.394,5.343 5.343,5.343l10.688,0c2.949,0 5.343,-2.394 5.343,-5.343l0,-10.688Z" style="fill:url(#_Linear1);"/><path d="M9.418,9.026l-2.125,0c-0.179,0 -0.323,0.145 -0.323,0.323l-0,2.585c-0,0.178 0.144,0.323 0.323,0.323l2.125,0l-0,6.579c-0,0.179 0.144,0.323 0.323,0.323l2.584,0c0.179,0 0.323,-0.144 0.323,-0.323l0,-6.579l2.449,0c0.179,0 0.323,-0.145 0.323,-0.323l0,-2.585c0,-0.178 -0.144,-0.323 -0.323,-0.323l-2.449,0l0,-1.821l0.048,-0c0.018,-0.198 0.042,-0.286 0.286,-0.599c0.194,-0.27 1.224,-0.2 2.006,-0.202c0.309,0.011 0.482,-0.058 0.525,-0.205l0.017,-2.551c-0.029,-0.14 -0.09,-0.264 -0.308,-0.307l-2.026,-0c-2.141,0.069 -3.41,1.123 -3.778,3.192l-0,2.493Z" style="fill:#fff;"/><defs><linearGradient id="_Linear1" x1="0" y1="0" x2="1" y2="0" gradientUnits="userSpaceOnUse" gradientTransform="matrix(1.30884e-15,21.375,-21.375,1.30884e-15,11.25,0.5625)"><stop offset="0" style="stop-color:#000;stop-opacity:1"/><stop offset="1" style="stop-color:#a1a1a1;stop-opacity:1"/></linearGradient></defs></svg>