<?xml version="1.0" encoding="UTF-8" standalone="no"?><!DOCTYPE svg PUBLIC "-//W3C//DTD SVG 1.1//EN" "http://www.w3.org/Graphics/SVG/1.1/DTD/svg11.dtd"><svg width="100%" height="100%" viewBox="0 0 125 125" version="1.1" xmlns="http://www.w3.org/2000/svg" xmlns:xlink="http://www.w3.org/1999/xlink" xml:space="preserve" xmlns:serif="http://www.serif.com/" style="fill-rule:evenodd;clip-rule:evenodd;stroke-linejoin:round;stroke-miterlimit:2;"><path d="M120.833,33.333c0,-16.097 -13.069,-29.166 -29.166,-29.166l-58.334,-0c-16.097,-0 -29.166,13.069 -29.166,29.166l-0,58.334c-0,16.097 13.069,29.166 29.166,29.166l58.334,0c16.097,0 29.166,-13.069 29.166,-29.166l0,-58.334Z"/><path d="M46.815,14.745l49.674,-0c0.483,0.069 0.725,0.311 0.725,0.726l0,17.266l-0.725,1.037l-2.437,-0.363c-20.361,0.242 -31.405,0.363 -33.133,0.363l-0,1.763c-0,0.484 -0.242,0.726 -0.726,0.726l-6.326,0c-0.484,0.069 -0.726,0.294 -0.726,0.674l-0,2.126c0.069,0.484 0.311,0.726 0.726,0.726l0.363,0c0.691,0 1.037,-0.121 1.037,-0.363c2.592,0.242 4.113,0.588 4.563,1.037l7.777,0c0.484,0.069 0.726,0.311 0.726,0.726l0,0.363c-2.143,0.207 -4.148,0.311 -6.014,0.311l-3.163,0l-0,10.941c0.069,0.484 0.293,0.726 0.674,0.726l36.347,-0c0.45,0.069 0.674,0.294 0.674,0.674l0,16.903c0,0.346 -0.345,0.709 -1.037,1.089l-29.244,0c-0.345,0 -0.708,0.346 -1.089,1.037l0,11.615l0.363,1.763l3.526,-0c0.484,0.104 0.726,0.346 0.726,0.726l0,4.252c0,0.449 -0.242,0.674 -0.726,0.674l-3.526,-0c0,0.242 -0.121,0.605 -0.363,1.089l0,7.725l0.363,1.763l10.215,0c0.484,0.069 0.726,0.311 0.726,0.726l0,0.311c0,0.484 -0.363,0.726 -1.089,0.726c-1.832,0 -5.116,0.121 -9.852,0.363c0,0.242 -0.121,0.363 -0.363,0.363l0.363,2.437l0,1.763c0,0.484 -0.242,0.726 -0.726,0.726l-24.318,0c-0.449,0 -0.674,-0.242 -0.674,-0.726l0,-4.2c0.069,-0.484 0.294,-0.726 0.674,-0.726l8.141,0c1.21,-0.242 1.918,-0.363 2.126,-0.363l-0,-1.037l-9.178,-0.363l-1.089,0c-0.449,0 -0.674,-0.224 -0.674,-0.674l0,-9.54c0.069,-0.484 0.294,-0.726 0.674,-0.726l3.526,-0l0,-4.563c0,-0.484 -1.4,-0.83 -4.2,-1.037l0,-32.459c-0.484,-0 -0.726,-0.104 -0.726,-0.311c-0.242,-0 -0.363,0.103 -0.363,0.311l-2.437,-0.311l-2.489,-0c-0.449,-0 -0.674,-0.242 -0.674,-0.726l0,-10.215c0.069,-0.484 0.294,-0.726 0.674,-0.726c4.287,-0.207 7.104,-0.311 8.452,-0.311c0,-0.484 -0.346,-0.726 -1.037,-0.726c-3.353,0 -6.758,-0.346 -10.215,-1.037l-3.525,0l-0,-2.852c0.069,-0.449 0.311,-0.674 0.725,-0.674l2.075,0c0.241,0 0.362,0.104 0.362,0.311c0.415,-0.172 1.833,-0.397 4.252,-0.674l0,-20.118l0.363,-0.674c5.047,-0.242 8.798,-0.363 11.252,-0.363Zm-11.615,72.229l0.363,0.726l0,3.526c0,0.449 -0.242,0.674 -0.726,0.674l-0.363,-0.674l0,-3.526c0.069,-0.484 0.311,-0.726 0.726,-0.726Zm2.437,-0l0.726,-0c0.45,0.069 0.674,0.311 0.674,0.726l0,1.4c0,0.242 -0.103,0.363 -0.311,0.363l0.311,0.674l0,1.089c0,0.449 -0.224,0.674 -0.674,0.674l-0.726,-0c-0.449,-0 -0.674,-0.225 -0.674,-0.674l0,-3.526c0.069,-0.484 0.294,-0.726 0.674,-0.726Z" style="fill:#fff;fill-rule:nonzero;"/></svg>