<?xml version="1.0" encoding="UTF-8" standalone="no"?><!DOCTYPE svg PUBLIC "-//W3C//DTD SVG 1.1//EN" "http://www.w3.org/Graphics/SVG/1.1/DTD/svg11.dtd"><svg width="100%" height="100%" viewBox="0 0 23 23" version="1.1" xmlns="http://www.w3.org/2000/svg" xmlns:xlink="http://www.w3.org/1999/xlink" xml:space="preserve" xmlns:serif="http://www.serif.com/" style="fill-rule:evenodd;clip-rule:evenodd;stroke-linejoin:round;stroke-miterlimit:2;"><rect id="Artboard1" x="0" y="0" width="22.5" height="22.5" style="fill:none;"/><path d="M21.937,5.906c0,-2.949 -2.394,-5.344 -5.343,-5.344l-10.688,0c-2.949,0 -5.344,2.395 -5.344,5.344l0.001,10.688c-0,2.949 2.394,5.343 5.343,5.343l10.688,0c2.949,0 5.343,-2.394 5.343,-5.343l0,-10.688Z" style="fill:url(#_Linear1);"/><g><path d="M5.123,6.758l2.325,-0c0.023,0.004 0.034,0.016 0.034,0.037l0,0.886l-0.034,0.053l-0.114,-0.019c-0.953,0.013 -1.47,0.019 -1.551,0.019l0,0.09c0,0.025 -0.011,0.038 -0.034,0.038l-0.296,-0c-0.022,0.003 -0.034,0.015 -0.034,0.034l0,0.109c0.004,0.025 0.015,0.038 0.034,0.038l0.017,-0c0.033,-0 0.049,-0.007 0.049,-0.019c0.121,0.012 0.192,0.03 0.213,0.053l0.364,0c0.023,0.004 0.034,0.016 0.034,0.037l0,0.019c-0.1,0.011 -0.194,0.016 -0.281,0.016l-0.148,-0l-0,0.561c0.003,0.025 0.014,0.037 0.031,0.037l1.702,0c0.021,0.004 0.031,0.015 0.031,0.035l0,0.867c0,0.018 -0.016,0.036 -0.048,0.056l-1.369,-0c-0.016,-0 -0.033,0.018 -0.051,0.053l-0,0.596l0.017,0.09l0.165,0c0.023,0.006 0.034,0.018 0.034,0.037l-0,0.219c-0,0.023 -0.011,0.034 -0.034,0.034l-0.165,0c-0,0.012 -0.006,0.031 -0.017,0.056l-0,0.396l0.017,0.091l0.478,-0c0.023,0.003 0.034,0.016 0.034,0.037l-0,0.016c-0,0.025 -0.017,0.037 -0.051,0.037c-0.086,0 -0.239,0.006 -0.461,0.019c-0,0.012 -0.006,0.018 -0.017,0.018l0.017,0.125l-0,0.091c-0,0.025 -0.011,0.037 -0.034,0.037l-1.138,-0c-0.021,-0 -0.032,-0.012 -0.032,-0.037l0,-0.216c0.003,-0.025 0.014,-0.037 0.032,-0.037l0.381,0c0.056,-0.012 0.09,-0.019 0.099,-0.019l0,-0.053l-0.429,-0.018l-0.051,-0c-0.021,-0 -0.032,-0.012 -0.032,-0.035l0,-0.489c0.003,-0.025 0.014,-0.038 0.032,-0.038l0.165,0l-0,-0.234c-0,-0.024 -0.066,-0.042 -0.197,-0.053l0,-1.665c-0.022,0 -0.034,-0.005 -0.034,-0.016c-0.011,0 -0.017,0.006 -0.017,0.016l-0.114,-0.016l-0.116,0c-0.021,0 -0.032,-0.012 -0.032,-0.037l0,-0.524c0.003,-0.025 0.014,-0.037 0.032,-0.037c0.2,-0.011 0.332,-0.016 0.395,-0.016c0,-0.025 -0.016,-0.037 -0.048,-0.037c-0.157,-0 -0.317,-0.018 -0.478,-0.053l-0.165,-0l-0,-0.147c0.003,-0.023 0.014,-0.034 0.034,-0.034l0.097,-0c0.011,-0 0.017,0.005 0.017,0.016c0.019,-0.009 0.085,-0.021 0.199,-0.035l-0,-1.032l0.017,-0.034c0.236,-0.013 0.411,-0.019 0.526,-0.019Zm-0.543,3.705l0.017,0.037l-0,0.181c-0,0.023 -0.012,0.034 -0.034,0.034l-0.017,-0.034l-0,-0.181c0.003,-0.025 0.014,-0.037 0.034,-0.037Zm0.114,-0l0.034,-0c0.021,0.003 0.031,0.016 0.031,0.037l0,0.072c0,0.012 -0.005,0.018 -0.014,0.018l0.014,0.035l0,0.056c0,0.023 -0.01,0.034 -0.031,0.034l-0.034,0c-0.021,0 -0.032,-0.011 -0.032,-0.034l0,-0.181c0.003,-0.025 0.014,-0.037 0.032,-0.037Z" style="fill:#fff;fill-rule:nonzero;"/><path d="M8.798,6.753l0.969,-0c0.019,0.003 0.107,0.255 0.264,0.755l0.049,0.035l0.165,-0c0.029,0.024 0.16,0.409 0.393,1.154l0.116,0.359l-0.034,0.018l-0.378,0l-0,0.019c-0,0.064 0.033,0.099 0.099,0.106l0.1,-0.015l0.014,-0c0.047,0.026 0.201,0.482 0.462,1.367l-0.034,0.018c-0.038,-0.012 -0.059,-0.018 -0.066,-0.018c-0.01,-0 -0.015,0.006 -0.015,0.018l-0.116,-0.018l-0.083,-0c-0.021,0.003 -0.031,0.016 -0.031,0.037c0.058,0.191 0.096,0.287 0.114,0.287l0.33,0c0.021,0.004 0.032,0.016 0.032,0.037l-0,0.016c-0,0.025 -0.011,0.037 -0.032,0.037l-0.362,0c-0.025,0 -0.047,-0.006 -0.065,-0.018c-0.019,0.012 -0.042,0.018 -0.068,0.018l-0.345,0l-0.114,-0.018l-0.017,0.037c0.004,0.023 0.015,0.035 0.034,0.035l0.986,-0c0.032,-0 0.103,0.198 0.213,0.595l0,0.019l-1.233,0c-0.017,0 -0.083,-0.205 -0.196,-0.614l-0.871,-0c-0.025,-0 -0.047,-0.006 -0.066,-0.016c-0.019,0.01 -0.041,0.016 -0.066,0.016c-0.022,-0 -0.034,-0.012 -0.034,-0.035c0.012,0 0.017,-0.006 0.017,-0.019c0.203,-0.012 0.351,-0.018 0.445,-0.018l0.526,-0c0.021,-0 0.032,-0.012 0.032,-0.035l-0.049,-0.037l-0.33,0c-0.013,0 -0.045,-0.054 -0.097,-0.162l-0.131,-0l0,0.018c0,0.011 0.005,0.059 0.015,0.144l-0.148,0c-0.012,0 -0.05,-0.054 -0.114,-0.162l-0.954,-0c-0.063,-0 -0.101,0.048 -0.114,0.143l0.031,0.019l0.279,0c0.023,0.004 0.034,0.016 0.034,0.037l0,0.016l-0.213,0.705l-1.25,0l-0,-0.019l0.231,-0.72l-0.493,-0.019c-0.023,0 -0.034,-0.011 -0.034,-0.035c0.055,-0.193 0.094,-0.289 0.116,-0.289l0.444,-0c0.08,-0 0.134,-0.102 0.163,-0.306c0.02,-0.002 0.075,-0.152 0.165,-0.45l0.182,-0.577l0,-0.019l-0.165,0c-0.023,-0.111 -0.027,-0.15 -0.012,-0.117c-0.015,-0.017 0.132,-0.026 0.439,-0.026c0.016,-0.004 0.104,-0.249 0.262,-0.737l0.231,-0.739l-0,-0.019l-0.083,0l0,-0.018c0.083,-0.307 0.171,-0.565 0.265,-0.774l0.196,-0.016Zm0.527,1.566c-0.118,0.504 -0.201,0.755 -0.247,0.755l-0.379,0c-0.021,0 -0.037,0.037 -0.049,0.11l0.1,-0c0.065,0.007 0.097,0.024 0.097,0.053c-0.11,0.37 -0.165,0.563 -0.165,0.577l0.082,0.016l0.117,-0.016c0.021,0.011 0.037,0.016 0.048,0.016l0.1,-0.016c0.01,-0 0.015,0.005 0.015,0.016l0.082,-0.016l0.279,-0c0.011,-0 0.017,0.005 0.017,0.016c0.11,-0.011 0.165,-0.029 0.165,-0.053l0,-0.019c-0.04,-0.08 -0.09,-0.236 -0.148,-0.468c0,-0.062 -0.049,-0.098 -0.148,-0.106c0,-0.031 -0.011,-0.061 -0.034,-0.091c0.005,-0.025 0.016,-0.037 0.034,-0.037l0.279,-0c-0.055,-0.22 -0.126,-0.466 -0.213,-0.737l-0.032,0Z" style="fill:#fff;fill-rule:nonzero;"/><path d="M12.741,6.75c0.011,0 0.017,0.006 0.017,0.019l0.063,-0.019c0.514,0 0.953,0.135 1.317,0.404c0.385,0 0.578,0.047 0.578,0.141c0.241,0.213 0.428,0.442 0.561,0.686l-0,0.107l-0.595,0.332c-0.11,0.071 -0.19,0.107 -0.24,0.107l-0.16,-0c-0.241,-0.369 -0.461,-0.58 -0.658,-0.633c-0.065,-0.034 -0.167,-0.075 -0.306,-0.123c-0.189,0 -0.408,0.07 -0.658,0.21l0,0.019c0.119,0 0.178,0.012 0.178,0.035c-0.29,0.285 -0.435,0.508 -0.435,0.667c-0.034,0.044 -0.065,0.161 -0.094,0.351l-0.323,0c-0.021,0.004 -0.032,0.016 -0.032,0.037c0,0.016 0.016,0.033 0.049,0.051l0.272,-0c0.016,-0 0.042,0.147 0.08,0.441c0.055,0.238 0.167,0.449 0.337,0.633l-0.032,0.016l-0.177,0l0,0.038c0.143,0.152 0.378,0.269 0.707,0.351c0.121,-0 0.298,-0.053 0.531,-0.16c0.215,0 0.381,-0.076 0.497,-0.229l0.015,0l0,-0.034l-0.16,-0l-0,-0.016c0.04,-0.08 0.11,-0.185 0.209,-0.317l0.191,0c0.023,0 0.211,0.106 0.563,0.317c0.225,-0 0.381,0.052 0.466,0.157l0,0.018c-0.043,0.052 -0.065,0.081 -0.065,0.088l-0.112,-0.018c-0.069,-0 -0.166,0.117 -0.289,0.351c-0.047,0.024 -0.132,0.037 -0.257,0.037l-0.031,-0c-0.017,-0 -0.033,0.017 -0.049,0.05l0.209,0l-0,0.054c-0.342,0.347 -0.63,0.541 -0.867,0.582c-0.17,0.092 -0.362,0.138 -0.577,0.138l-0.338,0c-0.584,0 -1.103,-0.227 -1.558,-0.683c-0.045,-0.06 -0.125,-0.091 -0.24,-0.091c-0.037,0.013 -0.058,0.019 -0.063,0.019c-0.044,-0.018 -0.065,-0.035 -0.065,-0.053c0.003,-0.023 0.014,-0.035 0.033,-0.035c0.012,0 0.027,0.006 0.047,0.019l0.097,-0.019l0.031,0l0,-0.018c-0.192,-0.289 -0.289,-0.465 -0.289,-0.527l0,-0.019l0.161,0l0.08,-0.016c-0.125,-0.312 -0.194,-0.628 -0.209,-0.949l-0.206,-0l-0,-0.053l0.174,-0c0.021,-0 0.032,-0.012 0.032,-0.035c-0,-0.025 -0.011,-0.037 -0.032,-0.037l-0.288,-0c-0.021,-0 -0.032,-0.012 -0.032,-0.035l0,-0.053c0.049,0 0.081,-0.005 0.097,-0.016l0.032,0.016c0.16,0 0.24,-0.023 0.24,-0.069c0.021,-0.331 0.107,-0.643 0.257,-0.933l0,-0.016c0,-0.023 -0.01,-0.035 -0.031,-0.035l-0.161,0l-0.033,-0.019c0.192,-0.372 0.411,-0.63 0.657,-0.774c0,-0.023 -0.01,-0.034 -0.031,-0.034l-0.321,-0l0,-0.019c0.125,-0.122 0.35,-0.234 0.675,-0.335c0.173,-0.034 0.328,-0.05 0.466,-0.05l0.031,-0c0.025,-0 0.046,-0.007 0.064,-0.019Zm-1.044,2.463l0,0.053l0.049,-0c0.021,-0 0.031,-0.012 0.031,-0.037l-0.031,-0.016l-0.049,-0Zm1.701,0.984l0.146,-0c0.021,0.003 0.031,0.015 0.031,0.034c-0.134,0.13 -0.23,0.195 -0.288,0.195l-0.129,-0l-0,-0.035c0.04,-0 0.12,-0.065 0.24,-0.194Z" style="fill:#fff;fill-rule:nonzero;"/><path d="M16.197,6.75l2.335,0c0.014,0 0.031,0.018 0.048,0.053l0,0.615c0,0.016 0.017,0.033 0.049,0.053l0.065,-0c0.026,-0 0.049,-0.006 0.068,-0.019c0.054,0.016 0.081,0.034 0.081,0.053l-0,0.038c-0,0.023 -0.011,0.034 -0.032,0.034l-0.083,0l0,0.091c0,0.024 -0.011,0.037 -0.034,0.037l-1.133,-0c-0.115,-0 -0.289,0.006 -0.524,0.018l-0,0.163c0.003,0.023 0.014,0.034 0.032,0.034l0.148,0c0.022,0.004 0.034,0.016 0.034,0.037l-0,0.774l1.429,0c0.021,0.004 0.031,0.015 0.031,0.035l0,0.271c0,0.023 -0.059,0.041 -0.179,0.053l-0.034,-0.018l-0.097,0.018c-0.023,-0.012 -0.04,-0.018 -0.051,-0.018l-0.017,0.09l-0,0.306l0.017,0.181l-0.049,0.037l-1.398,0c0,0.041 -0.038,0.065 -0.114,0.072l-0.099,-0.019l-0.032,0c-0.022,0.004 -0.034,0.016 -0.034,0.038l0,0.016l0.1,-0l0.165,0.018l-0,0.596c-0,0.064 0.032,0.099 0.097,0.106c0,0.027 0.006,0.051 0.017,0.072c-0.011,0.021 -0.017,0.045 -0.017,0.072l0,0.019l1.563,-0c0.021,-0 0.037,0.06 0.048,0.18l0.246,0c0.022,0.004 0.033,0.015 0.033,0.035c0,0.025 -0.011,0.037 -0.033,0.037l-0.18,0l-0.083,0.019l0,0.683l-2.693,0c-0.012,0 -0.017,-0.006 -0.017,-0.018l-0.034,0.018l-0.097,0c-0.017,0 -0.034,-0.017 -0.051,-0.053l-0,-0.037c-0,-0.012 0.005,-0.019 0.017,-0.019l-0.017,-0.034l-0,-0.434l-0.083,-0.016l-0.145,0c-0.023,0 -0.034,-0.012 -0.034,-0.037l-0,-0.037c0.003,-0.023 0.014,-0.035 0.034,-0.035c0.182,-0.012 0.325,-0.018 0.427,-0.018l0.065,-0l0,-0.035l-0.165,-0.019l-0.065,0c-0.023,0 -0.034,-0.017 -0.034,-0.053l0.017,-0.037c-0.012,-0.021 -0.017,-0.045 -0.017,-0.072c-0,-0.016 0.033,-0.033 0.099,-0.053c0.011,-0.021 0.017,-0.046 0.017,-0.074c0,-0.052 -0.039,-0.081 -0.116,-0.088l-0,-0.615l0.017,-0.034l-0.032,-0.019l-0.213,0c-0.023,0 -0.034,-0.011 -0.034,-0.034c0.003,-0.025 0.014,-0.038 0.034,-0.038l0.196,0c0.021,0 0.032,-0.012 0.032,-0.037l-0,-0.593c-0,-0.025 0.017,-0.037 0.051,-0.037c0.034,-0 0.137,-0.005 0.31,-0.016l0,-1.099c0,-0.037 -0.06,-0.055 -0.179,-0.055l-0.034,-0l-0,-0.288l0.116,-0.071l0,-0.038c0,-0.023 -0.011,-0.034 -0.034,-0.034l-0.196,-0c-0.023,-0 -0.034,-0.013 -0.034,-0.037l-0,-0.631l0.017,-0.034c0.22,-0.013 0.384,-0.019 0.492,-0.019Zm-0.623,2.162l0.082,0c0.021,0.004 0.032,0.015 0.032,0.035l-0,0.09c-0,0.023 -0.011,0.035 -0.032,0.035l-0.082,-0c-0.023,-0 -0.034,-0.012 -0.034,-0.035l-0,-0.09c0.004,-0.023 0.016,-0.035 0.034,-0.035Zm0.592,1.998l0.148,-0l-0,-0.035l-0.117,0c-0.021,0.004 -0.031,0.015 -0.031,0.035Zm1.774,0.018l-0,0.072c0.003,0.025 0.014,0.037 0.034,0.037l0.228,0c-0,-0.014 0.005,-0.033 0.017,-0.056c-0.012,-0.023 -0.017,-0.04 -0.017,-0.053l-0.262,0Z" style="fill:#fff;fill-rule:nonzero;"/><path d="M3.156,10.862l1.464,-0c0.605,-0 1.032,0.234 1.281,0.702c-0.029,0.009 -0.095,0.02 -0.199,0.034c0.049,0.11 0.092,0.266 0.131,0.468l0.165,0c0.023,0 0.034,0.018 0.034,0.054l0.197,-0c0.021,0.005 0.031,0.017 0.031,0.037l0,0.072c0,0.025 -0.01,0.037 -0.031,0.037c-0.012,-0 -0.017,-0.006 -0.017,-0.019c-0.012,0 -0.017,0.007 -0.017,0.019l-0.08,-0.019l-0.068,0c-0,0.445 -0.169,0.781 -0.508,1.008l0,0.035c0.437,0.211 0.656,0.583 0.656,1.117l-0,0.144l0.017,-0c0.014,-0 0.069,-0.007 0.165,-0.019l0.017,0.037c-0.008,0.156 -0.03,0.234 -0.066,0.234l-0.068,0c-0.024,0 -0.046,-0.006 -0.065,-0.018c-0.037,-0 -0.087,0.108 -0.148,0.324l-0.131,0.144l-0.114,-0.019l-0.049,0c-0.299,0.337 -0.606,0.505 -0.92,0.505l-2.414,0c-0.023,0 -0.034,-0.012 -0.034,-0.037l-0,-0.431c0.003,-0.025 0.014,-0.037 0.034,-0.037l0.162,0c0.023,0 0.034,-0.011 0.034,-0.035l0,-0.037c0,-0.035 -0.005,-0.053 -0.017,-0.053l0.017,-0.09l0,-1.062c0,-0.024 -0.011,-0.037 -0.034,-0.037l-0.097,0c-0.094,0 -0.242,-0.006 -0.444,-0.018l-0.017,-0.035l0,-0.019l0.017,-0.034c0.202,-0.013 0.35,-0.019 0.444,-0.019l0.114,0l0.017,-0.09l0,-1.333l-0.017,-0.106c0.012,-0.021 0.017,-0.051 0.017,-0.091l0,-0.055c0,-0.015 -0.039,-0.044 -0.116,-0.088l-0,-0.415c-0,-0.016 0.033,-0.034 0.099,-0.053c0.012,-0.025 0.017,-0.044 0.017,-0.056c0,-0.037 -0.005,-0.151 -0.017,-0.34c0.012,-0.181 0.023,-0.278 0.034,-0.29c0.235,-0.011 0.409,-0.016 0.524,-0.016Zm-0.919,0.736l0.034,0l-0,0.45l-0.034,-0l-0,-0.45Zm0.116,0l0.032,0l-0,0.45l-0.032,-0l0,-0.45Zm1.527,0.234l-0.297,0l0,0.2c0.004,0.023 0.015,0.034 0.034,0.034l0.148,0c0.005,0 0.022,0.013 0.049,0.038l-0.017,0.125l0,0.593c0.003,0.025 0.015,0.037 0.034,0.037l0.655,0c0.241,-0.106 0.362,-0.262 0.362,-0.468l-0,-0.144l0.199,0l-0,-0.018c-0,-0.052 -0.023,-0.088 -0.068,-0.109l-0.032,0.018c-0.011,0 -0.017,-0.006 -0.017,-0.018l-0.031,0.018l-0.083,0c-0.039,-0.048 -0.077,-0.072 -0.116,-0.072l-0.131,0c-0.131,-0.156 -0.235,-0.234 -0.311,-0.234l-0.33,0c-0.01,0 -0.014,-0.006 -0.014,-0.018l-0.034,0.018Zm-0.066,1.926l0,0.056l0.18,-0c0.163,-0 0.382,-0.006 0.657,-0.019c-0.006,-0.035 -0.05,-0.053 -0.131,-0.053l-0.262,-0c-0.094,-0 -0.242,0.005 -0.444,0.016Zm-0.592,0.056c-0,0.023 -0.005,0.034 -0.015,0.034c0.01,0.023 0.015,0.041 0.015,0.054l0.543,-0l0,-0.054l-0.116,-0.034l-0.427,-0Zm1.774,-0l-0,0.072l0.017,0.034l0.114,-0.018l0.427,-0c0.023,-0 0.034,-0.012 0.034,-0.035l0,-0.019c0,-0.023 -0.011,-0.034 -0.034,-0.034l-0.558,-0Zm-3.087,-0c0.021,0.003 0.032,0.015 0.032,0.034l-0,0.019c-0,0.023 -0.011,0.035 -0.032,0.035c-0.023,-0 -0.034,-0.012 -0.034,-0.035l-0,-0.019c0.003,-0.023 0.015,-0.034 0.034,-0.034Zm2.005,0.106l-0.1,0l-0.017,0.128c0,0.035 0.006,0.053 0.017,0.053l-0.017,0.09l0,0.091c0,0.103 0.006,0.21 0.017,0.322c-0.011,0.046 -0.017,0.1 -0.017,0.162l0.034,0.019l1.002,-0c0.089,-0 0.187,-0.072 0.294,-0.216c-0.131,-0.012 -0.197,-0.03 -0.197,-0.053c0.038,-0 0.065,-0.114 0.083,-0.343c-0.088,-0.169 -0.137,-0.253 -0.148,-0.253c-0.081,0 -0.35,-0.006 -0.806,-0.018l-0.114,0.018l0,-0.018l-0.031,0.018Z" style="fill:#fff;fill-rule:nonzero;"/><path d="M9.033,10.87c0.377,-0 0.695,0.087 0.956,0.263c-0.02,0.011 -0.041,0.016 -0.063,0.016l-0,0.034c0.039,0 0.187,0.111 0.444,0.333c0.063,-0 0.127,0.023 0.192,0.069l0.177,0l0.077,0.019l0,0.018c0,0.023 -0.01,0.035 -0.031,0.035l-0.08,-0c-0.01,-0 -0.015,-0.006 -0.015,-0.019c-0.018,0.013 -0.044,0.019 -0.08,0.019l0,0.016c0.241,0.294 0.422,0.69 0.541,1.189l-0.046,0.034l-0.383,0l-0,0.019c0.157,-0 0.247,0.005 0.271,0.016c0.018,-0.011 0.045,-0.016 0.081,-0.016l0.031,-0c0.042,-0 0.063,0.111 0.063,0.332c0.003,0.023 0.014,0.035 0.032,0.035l0.16,-0c0.01,-0 0.014,0.005 0.014,0.016l0.034,-0.016l0.015,-0c0.065,0.007 0.097,0.024 0.097,0.05c0,0.389 -0.101,0.78 -0.303,1.173l-0.032,0.016l-0.303,0l-0.066,0.053l-0.157,0c-0.021,0.004 -0.032,0.016 -0.032,0.035c0.117,0 0.175,0.006 0.175,0.019c-0.248,0.446 -0.63,0.778 -1.148,0.994c-0.252,0.071 -0.481,0.107 -0.687,0.107l-0.175,-0c-0.124,-0 -0.209,-0.013 -0.254,-0.038c-0.021,0.013 -0.038,0.019 -0.049,0.019c-0.468,-0.087 -0.834,-0.256 -1.099,-0.508c-0.206,-0.19 -0.371,-0.381 -0.495,-0.574c-0.018,-0.013 -0.039,-0.019 -0.063,-0.019l-0.144,0l0,-0.035l0.158,0c0,-0.035 0.011,-0.053 0.034,-0.053l0.206,0l0.08,-0.016c-0.165,-0.344 -0.255,-0.658 -0.271,-0.944l-0,-0.053l0.017,-0.035c0.009,0 0.014,0.007 0.014,0.019c0.16,-0.012 0.278,-0.019 0.352,-0.019l0.238,0l-0,-0.018c-0,-0.023 -0.011,-0.035 -0.032,-0.035l-0.572,0c-0.013,0 -0.04,-0.041 -0.08,-0.122l-0.272,-0c-0.021,-0 -0.032,-0.012 -0.032,-0.035c0,-0.023 0.043,-0.041 0.129,-0.053l-0,-0.069c-0.012,-0 -0.028,-0.005 -0.049,-0.016c-0.021,0.011 -0.037,0.016 -0.048,0.016c-0.01,-0.023 -0.015,-0.041 -0.015,-0.053c0.031,-0.405 0.168,-0.811 0.413,-1.221c0.094,-0.14 0.179,-0.21 0.257,-0.21c0.137,-0 0.206,-0.018 0.206,-0.053c-0.035,-0.023 -0.067,-0.035 -0.094,-0.035l-0.017,0l-0.08,0.016l-0.015,-0.035l0.015,-0.034c-0.043,-0 -0.064,-0.012 -0.064,-0.035c0.08,-0.076 0.229,-0.187 0.447,-0.332l0.175,-0c0.284,-0.186 0.699,-0.279 1.245,-0.279Zm-1.325,2.183l-0,0.035l0.097,0.072l-0,0.034c-0,0.023 -0.012,0.035 -0.034,0.035l-0.078,-0l0,0.053l0.286,-0c0.018,-0 0.034,0.041 0.049,0.122c0.228,0.011 0.398,0.016 0.51,0.016l0.126,0l-0,0.035c-0,0.025 -0.011,0.037 -0.032,0.037c-0.019,-0.012 -0.035,-0.019 -0.046,-0.019c-0.011,0 -0.017,0.007 -0.017,0.019l-0.08,-0.019c-0.039,0 -0.188,0.007 -0.447,0.019l0,0.085c0.052,0.286 0.185,0.543 0.398,0.771c0.119,0.089 0.178,0.141 0.178,0.157l-0.032,0.016l-0.223,0l0.014,0.035l0,0.018l-0.094,0l-0,0.035l0.191,0c0.19,0.059 0.317,0.088 0.381,0.088c0.062,-0 0.163,-0.018 0.304,-0.053c-0,-0.023 -0.011,-0.035 -0.032,-0.035l-0.08,0l0,-0.035l0.175,0c0.011,0 0.086,-0.017 0.223,-0.053l0.16,0c0.025,0 0.046,-0.005 0.063,-0.016c0.021,0.011 0.038,0.016 0.049,0.016c0.209,-0.097 0.395,-0.313 0.558,-0.646c0.063,-0.234 0.095,-0.368 0.095,-0.402l-0,-0.141c-0,-0.019 -0.053,-0.036 -0.158,-0.05l-0.031,0.016l-0.112,-0c-0.044,-0 -0.066,-0.116 -0.066,-0.349l-0.077,-0.018l-0.544,-0l0,-0.035c0.16,-0.01 0.278,-0.016 0.352,-0.016l0.238,0l-0,-0.018c-0.101,-0.311 -0.26,-0.549 -0.478,-0.716c-0.241,-0.163 -0.438,-0.244 -0.59,-0.244c-0.445,-0 -0.807,0.25 -1.085,0.75c-0.074,0.205 -0.111,0.339 -0.111,0.401Zm-1.1,0.367l0.175,0c0.021,0.004 0.032,0.015 0.032,0.035l-0.032,0.018l-0.175,0l0,-0.053Zm3.922,0.072l-0.015,0.035l0,0.016l0.015,-0c-0,-0.024 0.01,-0.035 0.032,-0.035l-0,-0.016l-0.032,-0Zm-1.961,0.261l0.017,-0c0.021,0.003 0.032,0.015 0.032,0.034l-0,0.053c-0,0.023 -0.011,0.035 -0.032,0.035l-0.017,-0c-0.021,-0 -0.031,-0.012 -0.031,-0.035l-0,-0.053c0.003,-0.023 0.013,-0.034 0.031,-0.034Zm-1.866,0.191l0.097,0l0.015,0.088l-0.047,0.034l-0.048,0c-0.021,0 -0.037,-0.034 -0.049,-0.103l0.032,-0.019Z" style="fill:#fff;fill-rule:nonzero;"/><path d="M13.984,10.87c0.377,-0 0.696,0.087 0.956,0.263c-0.019,0.011 -0.04,0.016 -0.063,0.016l0,0.034c0.039,0 0.187,0.111 0.444,0.333c0.064,-0 0.127,0.023 0.192,0.069l0.177,0l0.078,0.019l-0,0.018c-0,0.023 -0.011,0.035 -0.032,0.035l-0.08,-0c-0.009,-0 -0.014,-0.006 -0.014,-0.019c-0.018,0.013 -0.045,0.019 -0.08,0.019l-0,0.016c0.241,0.294 0.421,0.69 0.541,1.189l-0.046,0.034l-0.384,0l0,0.019c0.157,-0 0.248,0.005 0.272,0.016c0.018,-0.011 0.045,-0.016 0.08,-0.016l0.032,-0c0.042,-0 0.063,0.111 0.063,0.332c0.003,0.023 0.014,0.035 0.031,0.035l0.161,-0c0.009,-0 0.014,0.005 0.014,0.016l0.034,-0.016l0.015,-0c0.064,0.007 0.097,0.024 0.097,0.05c-0,0.389 -0.101,0.78 -0.304,1.173l-0.031,0.016l-0.303,0l-0.066,0.053l-0.158,0c-0.021,0.004 -0.031,0.016 -0.031,0.035c0.116,0 0.174,0.006 0.174,0.019c-0.247,0.446 -0.63,0.778 -1.147,0.994c-0.253,0.071 -0.482,0.107 -0.687,0.107l-0.175,-0c-0.125,-0 -0.209,-0.013 -0.255,-0.038c-0.021,0.013 -0.037,0.019 -0.048,0.019c-0.468,-0.087 -0.834,-0.256 -1.1,-0.508c-0.205,-0.19 -0.37,-0.381 -0.495,-0.574c-0.018,-0.013 -0.039,-0.019 -0.063,-0.019l-0.143,0l-0,-0.035l0.158,0c-0,-0.035 0.011,-0.053 0.034,-0.053l0.206,0l0.08,-0.016c-0.165,-0.344 -0.256,-0.658 -0.272,-0.944l0,-0.053l0.017,-0.035c0.01,0 0.015,0.007 0.015,0.019c0.16,-0.012 0.277,-0.019 0.352,-0.019l0.238,0l-0,-0.018c-0,-0.023 -0.011,-0.035 -0.032,-0.035l-0.573,0c-0.013,0 -0.039,-0.041 -0.08,-0.122l-0.272,-0c-0.021,-0 -0.031,-0.012 -0.031,-0.035c-0,-0.023 0.043,-0.041 0.128,-0.053l0,-0.069c-0.011,-0 -0.027,-0.005 -0.048,-0.016c-0.021,0.011 -0.037,0.016 -0.049,0.016c-0.009,-0.023 -0.014,-0.041 -0.014,-0.053c0.031,-0.405 0.168,-0.811 0.412,-1.221c0.094,-0.14 0.18,-0.21 0.258,-0.21c0.137,-0 0.206,-0.018 0.206,-0.053c-0.036,-0.023 -0.067,-0.035 -0.095,-0.035l-0.017,0l-0.08,0.016l-0.014,-0.035l0.014,-0.034c-0.042,-0 -0.063,-0.012 -0.063,-0.035c0.079,-0.076 0.228,-0.187 0.447,-0.332l0.174,-0c0.285,-0.186 0.7,-0.279 1.245,-0.279Zm-1.325,2.183l0,0.035l0.097,0.072l0,0.034c0,0.023 -0.011,0.035 -0.034,0.035l-0.077,-0l-0,0.053l0.286,-0c0.018,-0 0.034,0.041 0.049,0.122c0.228,0.011 0.398,0.016 0.509,0.016l0.126,0l0,0.035c0,0.025 -0.01,0.037 -0.031,0.037c-0.02,-0.012 -0.035,-0.019 -0.046,-0.019c-0.012,0 -0.017,0.007 -0.017,0.019l-0.08,-0.019c-0.039,0 -0.188,0.007 -0.447,0.019l0,0.085c0.052,0.286 0.185,0.543 0.398,0.771c0.118,0.089 0.177,0.141 0.177,0.157l-0.031,0.016l-0.224,0l0.015,0.035l0,0.018l-0.095,0l0,0.035l0.192,0c0.189,0.059 0.316,0.088 0.381,0.088c0.062,-0 0.163,-0.018 0.303,-0.053c0,-0.023 -0.01,-0.035 -0.031,-0.035l-0.08,0l-0,-0.035l0.175,0c0.011,0 0.085,-0.017 0.223,-0.053l0.16,0c0.024,0 0.045,-0.005 0.063,-0.016c0.021,0.011 0.037,0.016 0.049,0.016c0.208,-0.097 0.394,-0.313 0.558,-0.646c0.063,-0.234 0.094,-0.368 0.094,-0.402l0,-0.141c0,-0.019 -0.052,-0.036 -0.157,-0.05l-0.032,0.016l-0.111,-0c-0.044,-0 -0.066,-0.116 -0.066,-0.349l-0.078,-0.018l-0.543,-0l-0,-0.035c0.16,-0.01 0.277,-0.016 0.352,-0.016l0.237,0l0,-0.018c-0.1,-0.311 -0.259,-0.549 -0.478,-0.716c-0.241,-0.163 -0.437,-0.244 -0.589,-0.244c-0.445,-0 -0.807,0.25 -1.085,0.75c-0.075,0.205 -0.112,0.339 -0.112,0.401Zm-1.099,0.367l0.175,0c0.021,0.004 0.031,0.015 0.031,0.035l-0.031,0.018l-0.175,0l-0,-0.053Zm3.922,0.072l-0.015,0.035l0,0.016l0.015,-0c-0,-0.024 0.01,-0.035 0.031,-0.035l0,-0.016l-0.031,-0Zm-1.961,0.261l0.017,-0c0.021,0.003 0.031,0.015 0.031,0.034l0,0.053c0,0.023 -0.01,0.035 -0.031,0.035l-0.017,-0c-0.021,-0 -0.032,-0.012 -0.032,-0.035l0,-0.053c0.003,-0.023 0.014,-0.034 0.032,-0.034Zm-1.866,0.191l0.097,0l0.014,0.088l-0.046,0.034l-0.048,0c-0.021,0 -0.038,-0.034 -0.049,-0.103l0.032,-0.019Z" style="fill:#fff;fill-rule:nonzero;"/><path d="M16.606,10.88c0.592,0 0.898,-0.006 0.918,-0.018c0.119,0.012 0.179,0.03 0.179,0.053l0,1.042l0.182,0c0.021,0.004 0.032,0.016 0.032,0.038l-0,0.34l0.017,0.09c0.142,0 0.213,-0.06 0.213,-0.18c-0.011,-0.023 -0.017,-0.041 -0.017,-0.054l0.017,-0.034c-0.011,-0.021 -0.017,-0.045 -0.017,-0.072c0.067,-0.034 0.1,-0.076 0.1,-0.128l-0.148,0c-0.023,0 -0.034,-0.011 -0.034,-0.034c0.019,-0 0.32,-0.348 0.903,-1.043l1.443,0l0,0.019c-0.139,0.172 -0.44,0.519 -0.902,1.042l-0,0.016l0.165,0l-0,0.038c-0,0.016 -0.131,0.159 -0.393,0.43l-0.199,0l-0.081,0.019l0,-0.019l-0.033,0.019l-0.132,0l0,0.035l0.345,-0c0.023,0.003 0.034,0.016 0.034,0.037c-0.01,0.002 -0.163,0.175 -0.461,0.521l-0,0.019c0.129,0.175 0.37,0.48 0.723,0.915c-0.027,0.025 -0.049,0.037 -0.065,0.037c-0,0.057 0.059,0.092 0.179,0.106l0.049,0.072l-0,0.037l-0.148,0l-0,0.054c0.055,-0 0.082,0.006 0.082,0.018l0.083,-0.018l0.179,-0c0.084,-0 0.134,0.024 0.148,0.071l-0.017,0.038l-0.08,-0.019c-0.04,0 -0.09,0.006 -0.148,0.019c-0.021,-0.013 -0.037,-0.019 -0.048,-0.019l-0.034,0.019c-0.021,-0.013 -0.037,-0.019 -0.049,-0.019l-0.017,0.035c0.149,0.164 0.373,0.453 0.672,0.864c0.023,-0 0.105,0.096 0.246,0.287l-0,0.019l-0.015,0.034c0.01,0.023 0.015,0.042 0.015,0.056l0.082,0c0.016,0 0.033,0.018 0.051,0.053c0,0.023 -0.011,0.035 -0.034,0.035l-0.983,-0c-0.11,-0 -0.274,-0.005 -0.492,-0.016c-0.031,-0.06 -0.081,-0.09 -0.149,-0.09l0,-0.038c0.022,-0.03 0.032,-0.047 0.032,-0.053l0,-0.018c-0.024,-0 -0.188,-0.216 -0.49,-0.647l-0.362,-0.486c0.003,-0.023 0.014,-0.035 0.032,-0.035l0.068,0.019c0.021,-0.013 0.037,-0.019 0.048,-0.019l0,0.019l0.032,-0.019l0.182,0c0.021,0 0.031,-0.012 0.031,-0.037c-0.026,-0.023 -0.047,-0.035 -0.065,-0.035c-0.07,0 -0.212,-0.006 -0.427,-0.018l-0.032,-0.054c0.012,0 0.017,-0.006 0.017,-0.018c0.021,0.012 0.037,0.018 0.049,0.018l0.031,-0.018c0.02,0.012 0.042,0.018 0.066,0.018l0.034,0l-0,-0.018c-0,-0.023 -0.028,-0.059 -0.083,-0.107l-0.031,0.016c-0.055,-0.014 -0.083,-0.032 -0.083,-0.053l0,-0.018l0.131,-0.107c0.012,-0.023 0.017,-0.042 0.017,-0.056c-0.021,-0.053 -0.043,-0.082 -0.065,-0.087l-0.017,-0c-0.015,-0 -0.08,0.071 -0.197,0.215c-0.044,-0 -0.065,0.011 -0.065,0.035l-0,0.018l0.097,0.072c0.011,0.023 0.017,0.041 0.017,0.053c-0.028,0.025 -0.044,0.037 -0.049,0.037l-0.148,0c-0.023,0.004 -0.034,0.015 -0.034,0.035l0,1.457c0,0.023 -0.01,0.035 -0.031,0.035l-0.656,-0c-0.11,-0 -0.274,-0.005 -0.492,-0.016l-0.017,-0.037l-0,-1.439c0.003,-0.023 0.014,-0.035 0.034,-0.035l0.179,0l0.017,-0.09l0,-0.019c-0.077,0 -0.116,-0.017 -0.116,-0.053l-0,-0.018c-0,-0.036 0.039,-0.054 0.116,-0.054l0,-0.09c0,-0.012 0.005,-0.019 0.015,-0.019l-0.015,-0.034l0,-1.311c0,-0.025 -0.017,-0.038 -0.051,-0.038c-0.218,-0.012 -0.338,-0.018 -0.359,-0.018l-0.017,-0.035l0.034,-0.019c0.197,-0.012 0.329,-0.018 0.393,-0.018l0,-0.359l-0.017,-0.091l-0.179,0c-0.023,0 -0.034,-0.011 -0.034,-0.034l-0,-1.008c0.003,-0.023 0.014,-0.035 0.034,-0.035l0.065,0Zm0.901,1.564l-0,0.035l0.082,-0l0,-0.016l-0.017,-0.038c-0.018,0.013 -0.04,0.019 -0.065,0.019Zm0.41,0.091c0.003,0.023 0.014,0.034 0.034,0.034l0.017,-0.034l-0,-0.038l-0.017,0c-0.023,0.004 -0.034,0.016 -0.034,0.038Zm-1.427,1.454l0.034,0c0.021,0.004 0.031,0.016 0.031,0.038l0,0.034c0,0.018 -0.016,0.036 -0.048,0.053c-0.016,0 -0.033,-0.017 -0.049,-0.053l0,-0.034c0.003,-0.025 0.014,-0.038 0.032,-0.038Zm2.067,1.601l0.131,0c0.018,0 0.04,0.024 0.066,0.072l-0.18,0c-0.016,0 -0.033,-0.018 -0.051,-0.056l0.034,-0.016Z" style="fill:#fff;fill-rule:nonzero;"/></g><defs><linearGradient id="_Linear1" x1="0" y1="0" x2="1" y2="0" gradientUnits="userSpaceOnUse" gradientTransform="matrix(1.30884e-15,21.375,-21.375,1.30884e-15,11.25,0.5625)"><stop offset="0" style="stop-color:#294a93;stop-opacity:1"/><stop offset="1" style="stop-color:#00b5d7;stop-opacity:1"/></linearGradient></defs></svg>