<?xml version="1.0" encoding="UTF-8" standalone="no"?><!DOCTYPE svg PUBLIC "-//W3C//DTD SVG 1.1//EN" "http://www.w3.org/Graphics/SVG/1.1/DTD/svg11.dtd"><svg width="100%" height="100%" viewBox="0 0 23 23" version="1.1" xmlns="http://www.w3.org/2000/svg" xmlns:xlink="http://www.w3.org/1999/xlink" xml:space="preserve" xmlns:serif="http://www.serif.com/" style="fill-rule:evenodd;clip-rule:evenodd;stroke-linejoin:round;stroke-miterlimit:2;"><rect id="Artboard3" x="0" y="0" width="22.5" height="22.5" style="fill:none;"/><path d="M21.938,5.906c-0,-2.949 -2.395,-5.344 -5.344,-5.344l-10.688,0c-2.949,0 -5.343,2.395 -5.343,5.344l-0,10.688c-0,2.949 2.394,5.343 5.343,5.343l10.688,0c2.949,0 5.344,-2.394 5.344,-5.343l-0,-10.688Z" style="fill:url(#_Linear1);"/><g><path d="M3.481,7.125c0.015,0.011 0.033,0.017 0.053,0.017l0.042,0c0.197,0 0.327,0.027 0.392,0.08l0.08,0c0.027,0 0.144,0.053 0.351,0.159l0.136,-0c0.013,-0 0.027,0.016 0.041,0.048c-0.01,0.012 -0.046,0.017 -0.109,0.017c0.163,0.171 0.244,0.266 0.244,0.287l0,0.017c-0.004,0.018 -0.176,0.215 -0.515,0.592l-0.189,-0c-0.184,-0.209 -0.323,-0.321 -0.419,-0.336l-0.012,-0c-0.181,-0 -0.272,0.043 -0.272,0.129c-0.038,-0 -0.061,0.075 -0.067,0.224l0.014,0.08l0.121,0c0.03,0 0.071,0.027 0.121,0.08c0.063,0.015 0.095,0.036 0.095,0.064l-0.012,0.031l0.026,0.017l0.325,0l-0,0.049l-0.271,0l-0,0.015c0.002,0.029 0.097,0.082 0.283,0.16c0.357,0.125 0.641,0.296 0.852,0.514c0,0.013 0.046,0.077 0.136,0.192c-0.108,0.01 -0.162,0.025 -0.162,0.046c0.02,0 0.034,0.027 0.041,0.081l0.162,-0c0.025,-0 0.051,0.064 0.08,0.192l-0.027,0.017l-0.135,-0c-0.018,0.003 -0.027,0.014 -0.027,0.032l0.177,-0c0.012,-0 0.025,0.016 0.039,0.048l-0,0.032c-0,0.021 -0.009,0.032 -0.027,0.032l-0.135,-0l-0,0.017c-0,0.055 0.004,0.146 0.014,0.272c-0,0.177 -0.054,0.385 -0.162,0.626c-0.018,0.003 -0.027,0.013 -0.027,0.031l-0,0.032l0.189,-0c0.018,0.003 0.027,0.014 0.027,0.031c-0.011,0 -0.07,0.07 -0.175,0.21c-0.235,0.212 -0.556,0.319 -0.961,0.319l-0.012,-0c-0.497,-0 -0.903,-0.182 -1.218,-0.546c-0.234,-0.017 -0.352,-0.076 -0.352,-0.175c-0.086,-0.092 -0.131,-0.177 -0.135,-0.255c0.134,-0.106 0.237,-0.18 0.31,-0.224l0.055,0.014c0.026,-0.008 0.157,-0.099 0.393,-0.272l0.162,-0c0.015,-0 0.064,0.08 0.148,0.241l-0,0.031l-0.041,0l-0,0.032c0.153,0.161 0.306,0.241 0.46,0.241c0.234,-0.045 0.351,-0.179 0.351,-0.402c0,-0.034 -0.023,-0.108 -0.068,-0.223l0.136,-0l-0,-0.015c-0.023,-0.054 -0.059,-0.08 -0.107,-0.08l-0.136,-0c-0.038,-0 -0.088,-0.006 -0.149,-0.017l-0.027,0.017c-0.018,-0.012 -0.032,-0.017 -0.041,-0.017l-0,-0.032l0.014,-0c0.025,-0 0.115,-0.006 0.271,-0.017l0,-0.032l-0.38,-0.143c-0.027,-0 -0.059,-0.006 -0.094,-0.017c-0.015,0.011 -0.033,0.017 -0.054,0.017c-0.057,-0.033 -0.139,-0.065 -0.244,-0.098l0,-0.031l0.097,-0l-0,-0.032c-0.28,-0.123 -0.469,-0.289 -0.569,-0.496c-0.069,-0.111 -0.109,-0.233 -0.122,-0.368l0.027,-0.017l0.054,0c0.009,0 0.014,0.006 0.014,0.017c0.014,-0.011 0.04,-0.017 0.08,-0.017l0,-0.032l-0.175,0l0,-0.031c0.046,-0 0.068,-0.011 0.068,-0.032l-0.094,-0.066c-0.014,-0.042 -0.028,-0.063 -0.041,-0.063l-0.15,0l-0,-0.129c-0,-0.334 0.131,-0.628 0.392,-0.881l0.041,0c0.01,0 0.015,0.006 0.015,0.017l0.026,-0.017l0.027,0.017c0.055,-0.011 0.082,-0.027 0.082,-0.048l-0.029,-0.017l-0.08,-0l0,-0.015c0.117,-0.08 0.175,-0.127 0.175,-0.144c-0,-0.03 0.108,-0.057 0.324,-0.08l0.204,0c0.02,0 0.039,-0.006 0.055,-0.017Zm-0.784,1.506l-0,0.032l0.012,0l-0,-0.032l-0.012,0Zm0.039,0l-0,0.032l0.041,0c-0,-0.021 -0.009,-0.032 -0.027,-0.032l-0.014,0Zm-0.594,0l0.027,0l-0,0.032l-0.027,0l-0,-0.032Zm0.068,0l0.039,0l-0,0.032l-0.039,0l-0,-0.032Zm1.041,1.266l0.134,-0l-0,0.049l-0.095,-0.017l-0.039,-0l0,-0.032Zm-0.407,0.287l0,0.034l0.015,0l-0,-0.034l-0.015,0Z" style="fill:#fff;fill-rule:nonzero;"/><path d="M7.329,7.14c0.319,-0 0.588,0.08 0.809,0.241c-0.017,0.009 -0.034,0.014 -0.054,0.014l0,0.032c0.033,-0 0.158,0.101 0.376,0.304c0.054,-0 0.108,0.021 0.162,0.063l0.15,0l0.066,0.017l0,0.017c0,0.021 -0.009,0.032 -0.027,0.032l-0.067,-0c-0.009,-0 -0.013,-0.006 -0.013,-0.017c-0.015,0.011 -0.037,0.017 -0.068,0.017l0,0.015c0.205,0.269 0.357,0.632 0.458,1.087l-0.039,0.032l-0.324,0l-0,0.017c0.133,0 0.209,0.005 0.23,0.015c0.015,-0.01 0.038,-0.015 0.068,-0.015l0.026,0c0.036,0 0.054,0.101 0.054,0.304c0.003,0.021 0.011,0.032 0.027,0.032l0.135,-0c0.008,-0 0.012,0.005 0.012,0.015l0.029,-0.015l0.013,-0c0.054,0.006 0.082,0.022 0.082,0.046c-0,0.355 -0.086,0.713 -0.257,1.073l-0.027,0.015l-0.256,0l-0.056,0.049l-0.133,-0c-0.018,0.003 -0.027,0.013 -0.027,0.031c0.098,0 0.148,0.006 0.148,0.017c-0.21,0.409 -0.534,0.713 -0.972,0.911c-0.213,0.064 -0.407,0.097 -0.581,0.097l-0.148,-0c-0.105,-0 -0.177,-0.011 -0.215,-0.034c-0.018,0.011 -0.032,0.017 -0.041,0.017c-0.396,-0.08 -0.706,-0.235 -0.931,-0.465c-0.174,-0.174 -0.313,-0.349 -0.419,-0.526c-0.015,-0.011 -0.033,-0.017 -0.053,-0.017l-0.121,0l-0,-0.031l0.133,-0c0,-0.033 0.01,-0.049 0.029,-0.049l0.174,0l0.068,-0.015c-0.139,-0.314 -0.216,-0.602 -0.23,-0.864l0,-0.048l0.015,-0.032c0.008,0 0.012,0.006 0.012,0.017c0.135,-0.011 0.235,-0.017 0.298,-0.017l0.201,0l-0,-0.017c-0,-0.021 -0.009,-0.032 -0.027,-0.032l-0.484,0c-0.011,0 -0.034,-0.037 -0.068,-0.111l-0.23,-0c-0.018,-0 -0.027,-0.011 -0.027,-0.032c0,-0.021 0.036,-0.037 0.109,-0.049l-0,-0.063c-0.01,-0 -0.023,-0.005 -0.041,-0.015c-0.018,0.01 -0.032,0.015 -0.041,0.015c-0.008,-0.021 -0.013,-0.037 -0.013,-0.049c0.026,-0.37 0.143,-0.742 0.35,-1.117c0.079,-0.128 0.152,-0.192 0.217,-0.192c0.117,-0 0.175,-0.016 0.175,-0.049c-0.03,-0.021 -0.057,-0.031 -0.08,-0.031l-0.015,-0l-0.067,0.014l-0.013,-0.031l0.013,-0.032c-0.036,-0 -0.054,-0.011 -0.054,-0.032c0.067,-0.069 0.193,-0.171 0.378,-0.304l0.148,0c0.241,-0.17 0.592,-0.255 1.054,-0.255Zm-1.122,1.998l0,0.031l0.082,0.066l0,0.032c0,0.021 -0.009,0.031 -0.028,0.031l-0.066,0l-0,0.049l0.242,-0c0.015,-0 0.029,0.037 0.041,0.112c0.193,0.01 0.337,0.014 0.432,0.014l0.106,0l0,0.032c0,0.023 -0.009,0.034 -0.026,0.034c-0.017,-0.011 -0.03,-0.017 -0.039,-0.017c-0.01,0 -0.015,0.006 -0.015,0.017l-0.067,-0.017c-0.033,0 -0.159,0.006 -0.378,0.017l-0,0.078c0.043,0.261 0.156,0.497 0.336,0.706c0.1,0.081 0.15,0.129 0.15,0.143l-0.026,0.015l-0.189,0l0.012,0.032l0,0.017l-0.08,-0l-0,0.031l0.162,0c0.16,0.054 0.268,0.081 0.323,0.081c0.052,-0 0.137,-0.017 0.256,-0.049c0,-0.021 -0.009,-0.032 -0.026,-0.032l-0.068,0l-0,-0.031l0.148,-0c0.009,-0 0.072,-0.017 0.189,-0.049l0.135,0c0.021,0 0.039,-0.005 0.054,-0.015c0.017,0.01 0.031,0.015 0.041,0.015c0.176,-0.089 0.334,-0.286 0.472,-0.591c0.053,-0.215 0.08,-0.337 0.08,-0.368l0,-0.129c0,-0.018 -0.044,-0.033 -0.133,-0.046l-0.027,0.015l-0.094,-0c-0.037,-0 -0.056,-0.107 -0.056,-0.319l-0.066,-0.017l-0.46,-0l0,-0.032c0.136,-0.01 0.235,-0.015 0.298,-0.015l0.201,0l0,-0.017c-0.085,-0.284 -0.219,-0.502 -0.404,-0.654c-0.204,-0.15 -0.371,-0.224 -0.499,-0.224c-0.377,-0 -0.683,0.229 -0.918,0.686c-0.063,0.188 -0.095,0.311 -0.095,0.368Zm-0.93,0.335l0.148,0c0.018,0.004 0.026,0.014 0.026,0.032l-0.026,0.017l-0.148,0l-0,-0.049Zm3.319,0.066l-0.013,0.032l0,0.014l0.013,0c-0,-0.021 0.009,-0.031 0.026,-0.031l0,-0.015l-0.026,0Zm-1.66,0.239l0.015,-0c0.017,0.003 0.026,0.013 0.026,0.031l0,0.049c0,0.021 -0.009,0.032 -0.026,0.032l-0.015,-0c-0.018,-0 -0.026,-0.011 -0.026,-0.032l-0,-0.049c0.002,-0.021 0.011,-0.031 0.026,-0.031Zm-1.579,0.175l0.082,-0l0.012,0.08l-0.039,0.032l-0.041,-0c-0.017,-0 -0.031,-0.032 -0.041,-0.095l0.027,-0.017Z" style="fill:#fff;fill-rule:nonzero;"/><path d="M9.496,7.14l0.943,-0c0.019,0.003 0.029,0.013 0.029,0.031l-0,1.168l0.258,0c0.019,0.004 0.029,0.014 0.029,0.032l0,0.017c-0.123,0.011 -0.215,0.017 -0.275,0.017l-0.012,0l-0,0.112l-0.07,0.066l-0,0.097c0.031,0 0.063,0.027 0.096,0.08l0.165,0c0.017,0.004 0.026,0.015 0.026,0.034l0,0.843c0,0.021 -0.009,0.031 -0.026,0.031c-0.01,0 -0.015,-0.005 -0.015,-0.014c-0.015,0.009 -0.033,0.014 -0.053,0.014l-0,0.034c-0,0.025 0.004,0.046 0.012,0.064c0,0.097 -0.041,0.146 -0.123,0.146l-0,0.017l0.096,0.014l0.056,-0.014c0.035,-0 0.063,0.081 0.082,0.243c0.027,0.024 0.041,0.062 0.041,0.112l-0.055,0.034c-0.05,-0.011 -0.091,-0.017 -0.124,-0.017l-0.014,-0c-0,0.105 0.105,0.225 0.314,0.358c0.052,0.032 0.153,0.053 0.302,0.063c0.195,-0.067 0.35,-0.196 0.466,-0.389c0.003,-0.022 0.012,-0.032 0.027,-0.032l0.109,-0c0.077,-0 0.127,-0.054 0.15,-0.163l0.014,-0.08l0,-0.275c0,-0.077 0.009,-0.136 0.027,-0.178c-0.018,-0 -0.027,-0.011 -0.027,-0.034l0,-0.682l0.015,-0.08c-0.04,-0.032 -0.105,-0.049 -0.194,-0.049c0,0.012 -0.004,0.017 -0.012,0.017c0,-0.058 -0.032,-0.09 -0.096,-0.097l-0,-0.097l0.082,-0.066c-0,-0.086 0.009,-0.129 0.026,-0.129l0.247,0l-0,-0.032c-0.123,-0.011 -0.214,-0.017 -0.273,-0.017l-0,-1.168c0.003,-0.021 0.011,-0.031 0.026,-0.031l0.931,-0c0.019,0.003 0.029,0.013 0.029,0.031l-0,1.137c0.002,0.021 0.011,0.031 0.026,0.031l0.232,0c0.02,0.004 0.029,0.014 0.029,0.032c-0.046,0.023 -0.129,0.034 -0.246,0.034l-0.029,0c-0,0.097 -0.027,0.146 -0.08,0.146l-0,0.129c0.045,0 0.068,0.011 0.068,0.032l-0.015,0.034l0.068,0.014l0.138,0l0.041,0.034l-0.015,0.081l0,1.2c0,0.024 0.005,0.045 0.015,0.063c-0.01,0.109 -0.024,0.163 -0.041,0.163l-0.165,-0c-0.03,-0 -0.061,0.097 -0.094,0.292c-0.063,0.206 -0.219,0.427 -0.466,0.664c0.017,0.004 0.026,0.014 0.026,0.032l0,0.017c-0.3,0.183 -0.577,0.275 -0.834,0.275c-0.038,0 -0.074,0.006 -0.108,0.017c-0.381,0 -0.723,-0.081 -1.027,-0.243c-0.084,-0.065 -0.166,-0.103 -0.247,-0.115c-0.246,-0.201 -0.41,-0.455 -0.493,-0.761l-0.026,-0.161l0.026,-0.017l0.152,-0c0.013,-0 0.026,-0.016 0.041,-0.049l-0.014,-0.226c0.01,-0.021 0.014,-0.037 0.014,-0.049l-0.041,-0.034l-0.164,0c-0.019,0 -0.029,-0.01 -0.029,-0.031l0.029,-0.015l0.095,-0l-0,-0.195l0.096,-0.065c0,-0.065 0.005,-0.098 0.014,-0.098l-0.014,-0.114l0,-0.292c0,-0.039 0.005,-0.088 0.014,-0.146c-0.009,-0.013 -0.014,-0.051 -0.014,-0.112l0,-0.034c0,-0.01 0.005,-0.015 0.014,-0.015c0,-0.029 -0.027,-0.051 -0.082,-0.066c-0.017,0.012 -0.031,0.017 -0.041,0.017l0,-0.017l-0.029,0.017l-0.053,0c-0.025,-0.053 -0.043,-0.08 -0.055,-0.08l-0.027,0l-0,-0.049l-0.014,-0.082c0.054,-0 0.082,-0.059 0.082,-0.178l0.273,0l-0,-0.032c-0.136,-0.011 -0.227,-0.017 -0.273,-0.017l-0.015,-0.031l0,-1.137c0.003,-0.021 0.013,-0.031 0.029,-0.031Zm2.598,2.302c0,0.021 -0.009,0.031 -0.027,0.031l0,0.018l0.027,-0l0.014,-0.032l0,-0.017l-0.014,-0Z" style="fill:#fff;fill-rule:nonzero;"/><path d="M13.487,7.14c0.089,-0 0.293,0.005 0.61,0.017c0.325,0.563 0.506,0.853 0.543,0.871c0.035,-0 0.086,0.038 0.152,0.114l0.445,0c0.018,0.004 0.027,0.015 0.027,0.034c-0,0.021 -0.009,0.032 -0.027,0.032l-0.043,-0c-0.02,-0 -0.039,-0.005 -0.055,-0.015c-0.015,0.01 -0.034,0.015 -0.056,0.015c-0.02,-0 -0.039,-0.005 -0.055,-0.015l-0.082,0.015l-0.085,-0l-0.026,-0.015l-0.015,0.032c0.11,0.174 0.378,0.629 0.805,1.365l-0.069,0.034c0.127,0.228 0.21,0.359 0.25,0.395l0.014,-0.083l0,-0.083c0,-0.065 -0.028,-0.141 -0.084,-0.229c0.047,-0.011 0.07,-0.022 0.07,-0.034c-0.046,-0.084 -0.07,-0.138 -0.07,-0.163c0.018,-0.011 0.032,-0.017 0.041,-0.017c-0.027,-0.04 -0.041,-0.078 -0.041,-0.114l0,-0.874c-0.046,0 -0.07,-0.005 -0.07,-0.014l-0.026,0.014c-0.019,0 -0.029,-0.01 -0.029,-0.031l-0,-0.018c0.003,-0.022 0.012,-0.034 0.029,-0.034l0.096,0l0,-0.294c-0.056,-0 -0.084,-0.011 -0.084,-0.034l0,-0.823l0.014,-0.031c0.185,-0.012 0.324,-0.017 0.417,-0.017l0.499,-0c0.01,-0 0.015,0.005 0.015,0.017l0.029,-0.017c0.017,0.003 0.026,0.014 0.026,0.034l0,0.854c0.06,-0 0.093,0.016 0.099,0.049l-0,0.231c-0,0.016 -0.015,0.032 -0.043,0.048l-0.082,0l-0,0.052l0.082,-0c0.013,-0 0.028,0.016 0.043,0.048l-0,1.12l-0.099,0.065l0,0.64c0,0.015 -0.027,0.037 -0.082,0.066l0.012,0.117l0,0.394c0.047,0 0.07,0.011 0.07,0.032l0,0.608l0.015,0.083l-0.029,0.017l-0.625,0c-0.091,0 -0.23,-0.006 -0.416,-0.017c-0.255,-0.466 -0.403,-0.707 -0.444,-0.723c-0.042,0 -0.088,-0.061 -0.138,-0.182c-0.139,-0.213 -0.209,-0.333 -0.209,-0.36l0.041,-0l-0,-0.035l-0.388,-0.657c0.046,-0.011 0.07,-0.022 0.07,-0.034l-0.195,-0.328l-0,-0.231c-0,-0.062 -0.051,-0.172 -0.152,-0.329l-0.015,0l0,0.874l-0.082,0.065l0,0.032l0.152,0c0.018,0.003 0.027,0.015 0.027,0.034l-0,0.049c-0,0.016 -0.014,0.032 -0.041,0.048l-0.138,0l-0.014,0.198l-0,0.494l0.014,0.082c-0.022,0.021 -0.05,0.032 -0.084,0.032l-0,0.1l0.07,0.065l-0,0.56l0.014,0.098c-0.01,0.019 -0.014,0.041 -0.014,0.065l0.014,0.083l-0.029,0.017l-0.61,0c-0.079,0 -0.204,-0.006 -0.376,-0.017l-0.014,-0.032l0,-0.017c0,-0.011 0.005,-0.017 0.014,-0.017l-0.014,-0.031l0,-0.709l-0.068,-0.065l0,-0.066l0.068,-0.066l0,-0.739c0,-0.017 0.014,-0.034 0.043,-0.052l0.123,0c0.02,0 0.029,-0.01 0.029,-0.031l0,-0.049c0,-0.023 -0.009,-0.034 -0.029,-0.034l-0.137,0c-0.019,0 -0.029,-0.011 -0.029,-0.032c0.003,-0.022 0.012,-0.034 0.029,-0.034l0.07,0l-0,-0.031c-0,-0.038 0.004,-0.065 0.012,-0.083l-0.012,-0.083l0.012,-0.066c-0,-0.011 -0.004,-0.017 -0.012,-0.017l0.012,-0.082l-0,-0.032c-0,-0.044 -0.004,-0.066 -0.012,-0.066l0.012,-0.116l-0,-0.066c-0,-0.143 -0.004,-0.329 -0.012,-0.557l0.012,-0.035l-0.012,-0.034c0.008,-0.087 0.022,-0.131 0.041,-0.131l0.125,-0c0.064,-0 0.166,-0.005 0.304,-0.015l-0,-0.034l-0.012,0c-0.069,0 -0.12,-0.005 -0.154,-0.017c-0.061,0.012 -0.121,0.017 -0.181,0.017c-0.092,0 -0.138,-0.038 -0.138,-0.114c-0.056,-0 -0.084,-0.016 -0.084,-0.049l0,-0.808l0.014,-0.031c0.199,-0.012 0.338,-0.017 0.417,-0.017Zm-0.499,1.199l0.027,0c0.019,0.005 0.029,0.017 0.029,0.034c-0,0.025 -0.024,0.041 -0.07,0.049l-0.014,-0.031l-0,-0.018c0.002,-0.022 0.012,-0.034 0.028,-0.034Zm2.498,0l0.014,0c0.019,0.005 0.029,0.017 0.029,0.034l-0,0.018c-0,0.021 -0.01,0.031 -0.029,0.031c-0.014,0 -0.027,-0.016 -0.041,-0.049c0.003,-0.022 0.012,-0.034 0.027,-0.034Zm0.347,1.154c0.002,0.021 0.012,0.032 0.029,0.032l-0,-0.032l-0.029,-0Zm0.055,0.049l0,0.034l0.015,-0l-0,-0.034l-0.015,-0Z" style="fill:#fff;fill-rule:nonzero;"/><path d="M17.546,7.132l0.793,0c0.566,0 1.007,0.154 1.325,0.463c0.233,0.225 0.404,0.451 0.515,0.676l0.195,0c0.167,0.338 0.251,0.629 0.251,0.874l0,0.034c0,0.005 -0.01,0.021 -0.029,0.049l-0.07,-0.015l-0.11,0l-0,0.08c-0,0.023 -0.01,0.034 -0.029,0.034l-0.152,0l-0,0.132l0.152,-0c0.019,0.003 0.029,0.014 0.029,0.034l-0,0.032c-0,0.24 -0.079,0.554 -0.237,0.941c-0.019,0.004 -0.028,0.015 -0.028,0.034l-0,0.015l0.265,0c0.017,0.003 0.026,0.015 0.026,0.034c-0.03,0.021 -0.057,0.032 -0.082,0.032l-0.238,-0l-0.208,0.299l-0.265,0c-0.139,0 -0.209,0.027 -0.209,0.08l-0,0.017l0.361,0c0.02,0.004 0.029,0.015 0.029,0.035c-0.015,-0 -0.07,0.049 -0.166,0.148c-0.351,0.297 -0.69,0.445 -1.017,0.445l-1.534,0l0,-0.593c0,-0.023 -0.009,-0.035 -0.027,-0.035l-0.028,0c-0.241,0 -0.362,-0.016 -0.362,-0.048l0,-0.017c0.003,-0.021 0.012,-0.032 0.029,-0.032l0.361,0c0.018,0 0.027,-0.011 0.027,-0.034l0,-0.265c0.062,-0 0.155,-0.005 0.279,-0.015l0,-0.034c-0.126,-0.011 -0.214,-0.017 -0.265,-0.017l-0.014,-0.032l0,-0.973c0,-0.016 -0.014,-0.033 -0.041,-0.051l-0.125,-0c-0.018,-0 -0.027,-0.011 -0.027,-0.032l0,-0.065c0,-0.026 0.037,-0.043 0.111,-0.052l0.027,0.017l0.098,-0.099c0.121,-0 0.181,-0.017 0.181,-0.049l-0,-0.874c-0,-0.026 -0.075,-0.048 -0.224,-0.068l0,-1.056l0.014,-0.032c0.187,-0.011 0.326,-0.017 0.419,-0.017Zm0.571,0.925l0,0.18c0.003,0.023 0.012,0.034 0.027,0.034l0.168,0c0.018,0.003 0.027,0.015 0.027,0.034l0,0.874c0,0.008 -0.014,0.024 -0.041,0.049l-0.07,-0.015l-0.084,0l-0.055,0.114l-0.126,0c-0.017,0.004 -0.026,0.015 -0.026,0.035l-0,0.097l0.152,-0c0.008,-0 0.022,0.017 0.043,0.051l-0.015,0.083l0,0.642c0,0.025 0.005,0.046 0.015,0.066c-0.01,0.019 -0.015,0.041 -0.015,0.066l0,0.065l0.015,0.083l0.166,0c0.021,0 0.039,0.006 0.056,0.017c0.016,-0.011 0.034,-0.017 0.055,-0.017l0.014,0.034l-0.055,0.032c-0.019,-0 -0.029,-0.005 -0.029,-0.015l-0.096,0.015l-0.111,-0l-0.015,0.083l0,0.034c0.003,0.022 0.012,0.034 0.027,0.034l0.294,-0c0.09,-0 0.239,-0.051 0.445,-0.151c0.14,-0.01 0.242,-0.015 0.306,-0.015l0.015,-0.034c-0.093,-0.011 -0.163,-0.017 -0.21,-0.017l-0.026,0l-0,-0.032c0.171,-0.147 0.296,-0.362 0.375,-0.644l0.07,-0.346l-0.043,-0.034l-0.125,-0c-0.018,-0 -0.027,-0.011 -0.027,-0.032l0,-0.065c0,-0.017 0.014,-0.034 0.041,-0.052c0.01,0 0.015,0.006 0.015,0.017c0.086,0 0.141,-0.033 0.166,-0.099l0.084,-0l0.097,-0.015l-0,-0.034c-0.035,-0.324 -0.169,-0.621 -0.403,-0.891c-0.204,-0.019 -0.33,-0.058 -0.378,-0.117c-0.149,-0.098 -0.274,-0.148 -0.376,-0.148l-0.32,0c-0.018,0.003 -0.027,0.015 -0.027,0.034Zm-1.072,0.214l0.027,0c0.019,0.003 0.029,0.015 0.029,0.034l-0,0.032c-0,0.019 -0.024,0.036 -0.07,0.049l-0.014,-0.032l-0,-0.049c0.002,-0.022 0.012,-0.034 0.028,-0.034Zm1.978,0.957l0.152,-0c0.019,0.003 0.029,0.014 0.029,0.034l-0,0.017c-0,0.021 -0.01,0.031 -0.029,0.031l-0.125,0c-0.018,0 -0.027,-0.01 -0.027,-0.031l0,-0.051Zm-2.23,0.082l0.028,0c0.02,0.004 0.029,0.015 0.029,0.034l0,0.083c0,0.021 -0.009,0.032 -0.029,0.032l-0.055,-0l-0,-0.115c0.003,-0.022 0.012,-0.034 0.027,-0.034Z" style="fill:#fff;fill-rule:nonzero;"/><path d="M3.518,10.895c0.01,-0 0.014,0.005 0.014,0.017l0.054,-0.017c0.435,-0 0.807,0.123 1.115,0.37c0.326,-0 0.489,0.043 0.489,0.129c0.204,0.194 0.362,0.404 0.474,0.627l0,0.098l-0.503,0.304c-0.093,0.065 -0.161,0.097 -0.203,0.097l-0.136,0c-0.204,-0.337 -0.389,-0.53 -0.556,-0.579c-0.055,-0.031 -0.141,-0.068 -0.259,-0.112c-0.16,0 -0.346,0.064 -0.557,0.192l0,0.017c0.1,0 0.15,0.011 0.15,0.032c-0.245,0.261 -0.367,0.465 -0.367,0.611c-0.029,0.041 -0.056,0.148 -0.081,0.321l-0.273,0c-0.018,0.003 -0.026,0.015 -0.026,0.034c-0,0.015 0.013,0.03 0.041,0.046l0.23,0c0.013,0 0.036,0.135 0.067,0.404c0.047,0.218 0.142,0.411 0.286,0.58l-0.027,0.014l-0.15,0l0,0.034c0.121,0.14 0.32,0.247 0.598,0.322c0.103,-0 0.253,-0.049 0.45,-0.146c0.182,-0 0.322,-0.07 0.421,-0.21l0.012,0l0,-0.031l-0.135,-0l-0,-0.015c0.034,-0.073 0.093,-0.169 0.176,-0.29l0.162,0c0.02,0 0.178,0.097 0.477,0.29c0.19,0 0.322,0.048 0.394,0.144l0,0.017c-0.037,0.047 -0.055,0.073 -0.055,0.08l-0.095,-0.017c-0.059,-0 -0.14,0.107 -0.244,0.321c-0.04,0.023 -0.112,0.034 -0.218,0.034l-0.027,0c-0.013,0 -0.027,0.016 -0.041,0.047l0.177,-0l0,0.048c-0.289,0.318 -0.533,0.496 -0.733,0.533c-0.144,0.085 -0.307,0.127 -0.489,0.127l-0.285,-0c-0.495,-0 -0.934,-0.209 -1.319,-0.626c-0.038,-0.055 -0.106,-0.082 -0.203,-0.082c-0.032,0.011 -0.05,0.017 -0.054,0.017c-0.037,-0.017 -0.055,-0.033 -0.055,-0.049c0.003,-0.021 0.012,-0.032 0.029,-0.032c0.009,0 0.022,0.006 0.039,0.017l0.082,-0.017l0.026,0l0,-0.017c-0.162,-0.264 -0.244,-0.425 -0.244,-0.482l0,-0.017l0.136,0l0.067,-0.014c-0.105,-0.286 -0.164,-0.575 -0.176,-0.869l-0.175,-0l0,-0.049l0.148,0c0.018,0 0.027,-0.01 0.027,-0.031c-0,-0.023 -0.009,-0.035 -0.027,-0.035l-0.244,0c-0.018,0 -0.027,-0.01 -0.027,-0.031l0,-0.049c0.041,0 0.068,-0.005 0.082,-0.014l0.027,0.014c0.135,0 0.203,-0.021 0.203,-0.063c0.018,-0.303 0.091,-0.588 0.218,-0.854l-0,-0.015c-0,-0.021 -0.009,-0.032 -0.027,-0.032l-0.135,0l-0.029,-0.017c0.163,-0.34 0.348,-0.576 0.556,-0.708c0,-0.021 -0.008,-0.031 -0.026,-0.031l-0.271,-0l-0,-0.017c0.105,-0.112 0.295,-0.215 0.571,-0.307c0.146,-0.031 0.278,-0.046 0.394,-0.046l0.027,-0c0.02,-0 0.038,-0.006 0.053,-0.017Zm-0.883,2.253l-0,0.049l0.041,-0c0.018,-0 0.027,-0.011 0.027,-0.034l-0.027,-0.015l-0.041,0Zm1.44,0.901l0.123,-0c0.018,0.003 0.027,0.013 0.027,0.031c-0.114,0.119 -0.196,0.178 -0.245,0.178l-0.109,-0l0,-0.032c0.034,0 0.102,-0.059 0.204,-0.177Z" style="fill:#fff;fill-rule:nonzero;"/><path d="M6.047,10.895l0.963,-0c0.018,-0 0.032,0.066 0.041,0.199c0.047,0 0.07,0.011 0.07,0.032l0,0.348l-0.111,0.1l-0.125,-0c-0.019,0.003 -0.029,0.013 -0.029,0.031l0,0.034l0.154,0c0.018,0.004 0.027,0.014 0.027,0.032l-0,1.721l-0.012,0.031c0.064,0.016 0.096,0.033 0.096,0.051l0,0.991c0.003,0.023 0.012,0.034 0.029,0.034c0.018,-0 0.027,-0.006 0.027,-0.017l0.139,0.017l1.048,-0l0.026,0.017l-0.012,0.083l0,0.496c0,0.021 -0.01,0.032 -0.029,0.032l-0.084,-0.017c-0.015,0.011 -0.038,0.017 -0.07,0.017l0,0.034c0.007,-0 0.035,0.005 0.084,0.014l0.085,-0.014l0.014,0.031l0,0.149c0,0.023 -0.01,0.034 -0.029,0.034l-1.856,-0c-0.078,-0 -0.204,-0.006 -0.376,-0.017l-0,-0.148c-0,-0.017 -0.014,-0.033 -0.041,-0.049l-0.126,-0l0,-0.034l0.126,-0c0.012,-0 0.026,-0.016 0.041,-0.049l-0,-1.587c-0.065,-0.042 -0.097,-0.069 -0.097,-0.082l0,-1.738c0,-0.021 -0.056,-0.037 -0.168,-0.049l-0,-0.017c0.086,-0.003 0.161,-0.036 0.224,-0.1c0.027,0 0.041,-0.01 0.041,-0.031l-0,-0.299c-0,-0.065 -0.032,-0.098 -0.097,-0.098l0,-0.148c0.003,-0.023 0.012,-0.034 0.027,-0.034Z" style="fill:#fff;fill-rule:nonzero;"/><path d="M10.852,10.902c0.319,-0 0.588,0.08 0.809,0.241c-0.017,0.01 -0.034,0.014 -0.054,0.014l0,0.032c0.033,0 0.158,0.102 0.376,0.304c0.054,0 0.108,0.021 0.162,0.064l0.15,-0l0.066,0.017l0,0.017c0,0.021 -0.009,0.031 -0.027,0.031l-0.067,0c-0.009,0 -0.013,-0.005 -0.013,-0.017c-0.015,0.012 -0.037,0.017 -0.067,0.017l-0,0.015c0.204,0.269 0.356,0.632 0.458,1.088l-0.04,0.031l-0.324,0l-0,0.017c0.133,0 0.209,0.005 0.23,0.015c0.015,-0.01 0.038,-0.015 0.068,-0.015l0.026,0c0.036,0 0.054,0.102 0.054,0.305c0.003,0.021 0.012,0.031 0.027,0.031l0.135,0c0.008,0 0.012,0.005 0.012,0.015l0.029,-0.015l0.013,0c0.054,0.007 0.082,0.022 0.082,0.047c-0,0.355 -0.086,0.713 -0.257,1.073l-0.027,0.014l-0.256,0l-0.056,0.049l-0.133,0c-0.018,0.003 -0.027,0.014 -0.027,0.032c0.098,-0 0.148,0.005 0.148,0.017c-0.21,0.409 -0.534,0.712 -0.972,0.91c-0.213,0.065 -0.407,0.097 -0.581,0.097l-0.148,0c-0.105,0 -0.177,-0.011 -0.215,-0.034c-0.018,0.012 -0.032,0.017 -0.041,0.017c-0.396,-0.079 -0.706,-0.234 -0.931,-0.465c-0.174,-0.173 -0.313,-0.348 -0.419,-0.525c-0.015,-0.012 -0.033,-0.017 -0.053,-0.017l-0.121,-0l-0,-0.032l0.133,0c0,-0.032 0.01,-0.049 0.029,-0.049l0.174,0l0.068,-0.014c-0.139,-0.315 -0.216,-0.603 -0.23,-0.864l0,-0.049l0.015,-0.032c0.008,0 0.012,0.006 0.012,0.018c0.135,-0.012 0.235,-0.018 0.298,-0.018l0.201,0l-0,-0.017c-0,-0.021 -0.009,-0.031 -0.027,-0.031l-0.484,-0c-0.011,-0 -0.034,-0.037 -0.068,-0.112l-0.23,-0c-0.018,-0 -0.027,-0.011 -0.027,-0.032c0,-0.021 0.036,-0.037 0.109,-0.048l-0,-0.064c-0.01,0 -0.023,-0.005 -0.041,-0.014c-0.018,0.009 -0.032,0.014 -0.041,0.014c-0.008,-0.021 -0.013,-0.037 -0.013,-0.048c0.026,-0.37 0.143,-0.743 0.35,-1.117c0.079,-0.129 0.152,-0.193 0.217,-0.193c0.117,0 0.175,-0.016 0.175,-0.048c-0.03,-0.021 -0.057,-0.032 -0.08,-0.032l-0.015,-0l-0.067,0.015l-0.013,-0.032l0.013,-0.032c-0.036,0 -0.054,-0.01 -0.054,-0.031c0.067,-0.07 0.193,-0.171 0.378,-0.305l0.148,0c0.241,-0.17 0.592,-0.255 1.054,-0.255Zm-1.122,1.998l0,0.032l0.082,0.065l0,0.032c0,0.021 -0.009,0.032 -0.028,0.032l-0.066,-0l-0,0.048l0.242,0c0.015,0 0.029,0.038 0.041,0.112c0.193,0.01 0.337,0.015 0.432,0.015l0.106,-0l0,0.031c0,0.023 -0.009,0.035 -0.026,0.035c-0.017,-0.012 -0.03,-0.018 -0.039,-0.018c-0.01,0 -0.015,0.006 -0.015,0.018l-0.067,-0.018c-0.033,0 -0.159,0.006 -0.378,0.018l-0,0.077c0.043,0.262 0.156,0.497 0.336,0.706c0.1,0.081 0.15,0.129 0.15,0.144l-0.026,0.014l-0.189,0l0.012,0.032l0,0.017l-0.08,0l-0,0.032l0.162,-0c0.16,0.053 0.268,0.08 0.323,0.08c0.052,-0 0.137,-0.016 0.256,-0.049c0,-0.021 -0.009,-0.031 -0.026,-0.031l-0.068,-0l-0,-0.032l0.148,0c0.009,0 0.072,-0.016 0.189,-0.049l0.135,0c0.021,0 0.039,-0.005 0.054,-0.014c0.017,0.009 0.031,0.014 0.041,0.014c0.176,-0.089 0.334,-0.286 0.472,-0.591c0.053,-0.214 0.08,-0.337 0.08,-0.368l0,-0.128c0,-0.018 -0.044,-0.034 -0.133,-0.047l-0.027,0.015l-0.094,-0c-0.037,-0 -0.056,-0.106 -0.056,-0.319l-0.066,-0.017l-0.46,0l0,-0.032c0.136,-0.009 0.235,-0.014 0.298,-0.014l0.201,-0l0,-0.017c-0.085,-0.284 -0.219,-0.502 -0.404,-0.655c-0.204,-0.149 -0.371,-0.224 -0.499,-0.224c-0.377,0 -0.683,0.229 -0.918,0.686c-0.063,0.189 -0.095,0.311 -0.095,0.368Zm-0.93,0.336l0.148,-0c0.018,0.003 0.026,0.014 0.026,0.031l-0.026,0.017l-0.148,0l-0,-0.048Zm3.319,0.066l-0.013,0.031l0,0.015l0.013,-0c-0,-0.021 0.009,-0.032 0.026,-0.032l0,-0.014l-0.026,-0Zm-1.66,0.238l0.015,0c0.017,0.003 0.026,0.014 0.026,0.032l0,0.048c0,0.021 -0.009,0.032 -0.026,0.032l-0.015,-0c-0.017,-0 -0.026,-0.011 -0.026,-0.032l-0,-0.048c0.002,-0.021 0.011,-0.032 0.026,-0.032Zm-1.579,0.175l0.082,0l0.012,0.081l-0.039,0.031l-0.041,0c-0.017,0 -0.031,-0.031 -0.041,-0.095l0.027,-0.017Z" style="fill:#fff;fill-rule:nonzero;"/><path d="M13.019,10.902l0.943,-0c0.019,0.003 0.029,0.014 0.029,0.032l-0,1.168l0.258,-0c0.019,0.003 0.029,0.014 0.029,0.031l0,0.017c-0.123,0.012 -0.215,0.017 -0.275,0.017l-0.012,0l-0,0.112l-0.07,0.066l-0,0.097c0.031,0 0.063,0.027 0.096,0.081l0.165,-0c0.017,0.003 0.026,0.014 0.026,0.034l0,0.842c0,0.021 -0.009,0.032 -0.026,0.032c-0.01,-0 -0.015,-0.005 -0.015,-0.015c-0.015,0.01 -0.033,0.015 -0.053,0.015l-0,0.034c-0,0.024 0.004,0.045 0.012,0.063c0,0.097 -0.041,0.146 -0.123,0.146l-0,0.017l0.096,0.015l0.056,-0.015c0.035,-0 0.063,0.081 0.082,0.243c0.027,0.025 0.041,0.062 0.041,0.112l-0.055,0.034c-0.05,-0.011 -0.091,-0.017 -0.124,-0.017l-0.014,0c0,0.106 0.105,0.225 0.314,0.358c0.052,0.032 0.153,0.054 0.302,0.063c0.195,-0.066 0.35,-0.196 0.466,-0.389c0.003,-0.021 0.012,-0.032 0.027,-0.032l0.109,0c0.077,0 0.127,-0.054 0.15,-0.163l0.014,-0.08l0,-0.275c0,-0.076 0.009,-0.136 0.027,-0.178c-0.018,0 -0.027,-0.011 -0.027,-0.034l0,-0.681l0.015,-0.081c-0.04,-0.032 -0.104,-0.048 -0.193,-0.048c-0,0.011 -0.005,0.017 -0.013,0.017c0,-0.059 -0.032,-0.091 -0.096,-0.098l-0,-0.097l0.082,-0.066c-0,-0.086 0.009,-0.129 0.027,-0.129l0.246,0l-0,-0.031c-0.123,-0.012 -0.214,-0.017 -0.273,-0.017l-0,-1.168c0.003,-0.022 0.011,-0.032 0.027,-0.032l0.93,-0c0.019,0.003 0.029,0.014 0.029,0.032l-0,1.136c0.002,0.021 0.011,0.032 0.026,0.032l0.232,-0c0.02,0.003 0.029,0.014 0.029,0.031c-0.046,0.023 -0.129,0.034 -0.246,0.034l-0.029,0c-0,0.098 -0.027,0.146 -0.08,0.146l-0,0.129c0.045,0 0.068,0.011 0.068,0.032l-0.015,0.034l0.068,0.015l0.138,-0l0.041,0.034l-0.015,0.08l0,1.2c0,0.024 0.005,0.045 0.015,0.063c-0.01,0.109 -0.024,0.163 -0.041,0.163l-0.165,0c-0.03,0 -0.061,0.098 -0.094,0.292c-0.063,0.206 -0.219,0.428 -0.466,0.665c0.017,0.003 0.026,0.013 0.026,0.031l0,0.017c-0.3,0.184 -0.577,0.275 -0.833,0.275c-0.039,0 -0.075,0.006 -0.109,0.017c-0.381,0 -0.723,-0.081 -1.027,-0.243c-0.084,-0.065 -0.166,-0.103 -0.247,-0.114c-0.246,-0.202 -0.41,-0.455 -0.493,-0.762l-0.026,-0.161l0.026,-0.017l0.152,0c0.013,0 0.026,-0.016 0.041,-0.048l-0.014,-0.227c0.01,-0.021 0.014,-0.037 0.014,-0.048l-0.041,-0.034l-0.164,-0c-0.019,-0 -0.029,-0.011 -0.029,-0.032l0.029,-0.015l0.095,0l-0,-0.194l0.096,-0.066c0,-0.065 0.005,-0.097 0.014,-0.097l-0.014,-0.115l0,-0.292c0,-0.039 0.005,-0.088 0.014,-0.146c-0.009,-0.013 -0.014,-0.05 -0.014,-0.112l0,-0.034c0,-0.01 0.005,-0.015 0.014,-0.015c0,-0.029 -0.027,-0.051 -0.082,-0.065c-0.017,0.011 -0.031,0.017 -0.041,0.017l0,-0.017l-0.028,0.017l-0.054,-0c-0.025,-0.054 -0.043,-0.081 -0.055,-0.081l-0.027,0l-0,-0.048l-0.014,-0.083c0.054,0 0.082,-0.059 0.082,-0.178l0.273,0l-0,-0.031c-0.136,-0.012 -0.227,-0.017 -0.273,-0.017l-0.015,-0.032l0,-1.136c0.003,-0.022 0.013,-0.032 0.029,-0.032Zm2.598,2.302c0,0.021 -0.009,0.032 -0.027,0.032l0,0.017l0.027,-0l0.014,-0.032l0,-0.017l-0.014,0Z" style="fill:#fff;fill-rule:nonzero;"/><path d="M17.066,10.895l0.793,-0c0.565,-0 1.007,0.154 1.324,0.462c0.233,0.226 0.405,0.451 0.516,0.677l0.195,-0c0.167,0.337 0.25,0.628 0.25,0.873l0,0.034c0,0.005 -0.009,0.021 -0.028,0.049l-0.07,-0.015l-0.111,0l-0,0.081c-0,0.022 -0.01,0.034 -0.029,0.034l-0.152,-0l0,0.131l0.152,0c0.019,0.003 0.029,0.015 0.029,0.034l-0,0.032c-0,0.24 -0.079,0.554 -0.236,0.942c-0.019,0.003 -0.029,0.014 -0.029,0.034l0,0.014l0.265,0c0.018,0.004 0.027,0.015 0.027,0.034c-0.03,0.022 -0.058,0.032 -0.083,0.032l-0.238,0l-0.207,0.299l-0.265,0c-0.14,0 -0.21,0.027 -0.21,0.081l0,0.017l0.362,-0c0.019,0.003 0.029,0.014 0.029,0.034c-0.015,-0 -0.071,0.049 -0.167,0.148c-0.35,0.297 -0.689,0.446 -1.016,0.446l-1.535,-0l0,-0.594c0,-0.023 -0.008,-0.034 -0.026,-0.034l-0.029,-0c-0.241,-0 -0.361,-0.016 -0.361,-0.049l-0,-0.017c0.002,-0.021 0.012,-0.032 0.028,-0.032l0.362,0c0.018,0 0.026,-0.011 0.026,-0.034l0,-0.265c0.062,0 0.155,-0.005 0.28,-0.014l-0,-0.035c-0.126,-0.011 -0.214,-0.017 -0.265,-0.017l-0.015,-0.031l0,-0.974c0,-0.016 -0.013,-0.033 -0.041,-0.051l-0.125,0c-0.018,0 -0.027,-0.01 -0.027,-0.031l0,-0.066c0,-0.026 0.037,-0.043 0.111,-0.051l0.027,0.017l0.099,-0.1c0.12,0 0.18,-0.016 0.18,-0.049l0,-0.873c0,-0.026 -0.074,-0.049 -0.224,-0.068l0,-1.057l0.015,-0.031c0.186,-0.012 0.326,-0.017 0.419,-0.017Zm0.571,0.924l-0,0.181c0.003,0.022 0.011,0.034 0.026,0.034l0.169,-0c0.018,0.003 0.027,0.014 0.027,0.034l-0,0.873c-0,0.008 -0.014,0.025 -0.041,0.049l-0.07,-0.015l-0.085,0l-0.055,0.115l-0.125,-0c-0.018,0.003 -0.027,0.014 -0.027,0.034l0,0.097l0.152,0c0.008,0 0.023,0.017 0.043,0.051l-0.014,0.083l-0,0.643c-0,0.024 0.005,0.046 0.014,0.065c-0.009,0.02 -0.014,0.042 -0.014,0.066l-0,0.066l0.014,0.082l0.167,0c0.02,0 0.039,0.006 0.055,0.017c0.016,-0.011 0.035,-0.017 0.055,-0.017l0.015,0.034l-0.056,0.032c-0.019,0 -0.028,-0.005 -0.028,-0.014l-0.097,0.014l-0.111,0l-0.014,0.083l-0,0.034c0.003,0.023 0.011,0.034 0.026,0.034l0.294,0c0.091,0 0.239,-0.05 0.446,-0.151c0.139,-0.01 0.241,-0.014 0.306,-0.014l0.014,-0.035c-0.093,-0.011 -0.163,-0.017 -0.209,-0.017l-0.027,0l0,-0.031c0.171,-0.148 0.296,-0.363 0.376,-0.645l0.07,-0.346l-0.043,-0.034l-0.126,0c-0.018,0 -0.026,-0.01 -0.026,-0.031l-0,-0.066c-0,-0.016 0.013,-0.033 0.041,-0.051c0.009,-0 0.014,0.005 0.014,0.017c0.086,-0 0.142,-0.033 0.166,-0.1l0.085,0l0.096,-0.015l0,-0.034c-0.034,-0.324 -0.168,-0.621 -0.402,-0.89c-0.204,-0.02 -0.33,-0.059 -0.378,-0.117c-0.15,-0.099 -0.275,-0.149 -0.376,-0.149l-0.321,0c-0.017,0.004 -0.026,0.015 -0.026,0.034Zm-1.072,0.215l0.026,-0c0.02,0.003 0.029,0.014 0.029,0.034l0,0.031c0,0.02 -0.023,0.036 -0.07,0.049l-0.014,-0.032l-0,-0.048c0.003,-0.023 0.012,-0.034 0.029,-0.034Zm1.977,0.956l0.152,0c0.02,0.003 0.029,0.015 0.029,0.034l0,0.017c0,0.021 -0.009,0.032 -0.029,0.032l-0.125,-0c-0.018,-0 -0.027,-0.011 -0.027,-0.032l0,-0.051Zm-2.23,0.083l0.029,-0c0.019,0.003 0.029,0.014 0.029,0.034l-0,0.083c-0,0.021 -0.01,0.031 -0.029,0.031l-0.056,0l0,-0.114c0.003,-0.023 0.012,-0.034 0.027,-0.034Z" style="fill:#fff;fill-rule:nonzero;"/></g><defs><linearGradient id="_Linear1" x1="0" y1="0" x2="1" y2="0" gradientUnits="userSpaceOnUse" gradientTransform="matrix(1.30884e-15,21.375,-21.375,1.30884e-15,11.25,0.5625)"><stop offset="0" style="stop-color:#df5c16;stop-opacity:1"/><stop offset="1" style="stop-color:#eeb927;stop-opacity:1"/></linearGradient></defs></svg>