<?xml version="1.0" encoding="UTF-8" standalone="no"?><!DOCTYPE svg PUBLIC "-//W3C//DTD SVG 1.1//EN" "http://www.w3.org/Graphics/SVG/1.1/DTD/svg11.dtd"><svg width="100%" height="100%" viewBox="0 0 23 23" version="1.1" xmlns="http://www.w3.org/2000/svg" xmlns:xlink="http://www.w3.org/1999/xlink" xml:space="preserve" xmlns:serif="http://www.serif.com/" style="fill-rule:evenodd;clip-rule:evenodd;stroke-linejoin:round;stroke-miterlimit:2;"><rect id="Artboard3" x="0" y="0" width="22.5" height="22.5" style="fill:none;"/><path d="M21.938,5.906c-0,-2.949 -2.395,-5.344 -5.344,-5.344l-10.688,0c-2.949,0 -5.343,2.395 -5.343,5.344l-0,10.688c-0,2.949 2.394,5.343 5.343,5.343l10.688,0c2.949,0 5.344,-2.394 5.344,-5.343l-0,-10.688Z" style="fill:url(#_Linear1);"/><g><path d="M3.258,11.984c-0,-0.292 -0.237,-0.529 -0.529,-0.529c-0.292,0 -0.529,0.237 -0.529,0.529l0,2.51c0,0.292 0.237,0.529 0.529,0.529c0.292,-0 0.529,-0.237 0.529,-0.529l-0,-2.51Z" style="fill:#fff;"/><path d="M4.65,11.237c-0,-0.291 -0.237,-0.528 -0.529,-0.528c-0.292,-0 -0.529,0.237 -0.529,0.528l0,3.257c0,0.292 0.237,0.529 0.529,0.529c0.292,-0 0.529,-0.237 0.529,-0.529l-0,-3.257Z" style="fill:#fff;"/><path d="M6.042,11.237c-0,-0.291 -0.237,-0.528 -0.529,-0.528c-0.292,-0 -0.529,0.237 -0.529,0.528l-0,3.257c-0,0.292 0.237,0.529 0.529,0.529c0.292,-0 0.529,-0.237 0.529,-0.529l-0,-3.257Z" style="fill:#fff;"/><path d="M7.434,9.325c-0,-0.292 -0.237,-0.529 -0.529,-0.529c-0.292,0 -0.529,0.237 -0.529,0.529l-0,5.169c-0,0.292 0.237,0.529 0.529,0.529c0.292,-0 0.529,-0.237 0.529,-0.529l-0,-5.169Z" style="fill:#fff;"/><path d="M8.826,8.457c-0,-0.292 -0.237,-0.529 -0.529,-0.529c-0.292,-0 -0.529,0.237 -0.529,0.529l-0,6.037c-0,0.292 0.237,0.529 0.529,0.529c0.292,-0 0.529,-0.237 0.529,-0.529l-0,-6.037Z" style="fill:#fff;"/><path d="M10.218,8.899c-0,-0.291 -0.237,-0.528 -0.529,-0.528c-0.292,-0 -0.529,0.237 -0.529,0.528l-0,5.595c-0,0.292 0.237,0.529 0.529,0.529c0.292,-0 0.529,-0.237 0.529,-0.529l-0,-5.595Z" style="fill:#fff;"/><path d="M11.61,8.006c-0,-0.292 -0.237,-0.529 -0.529,-0.529c-0.292,0 -0.529,0.237 -0.529,0.529l-0,6.488c-0,0.292 0.237,0.529 0.529,0.529c0.292,-0 0.529,-0.237 0.529,-0.529l-0,-6.488Z" style="fill:#fff;"/><path d="M12.034,7.526l0.56,-0.049c2.087,0 3.832,1.285 4.245,2.994c0.27,-0.086 0.56,-0.133 0.862,-0.133c1.434,0 2.599,1.05 2.599,2.343c-0,1.187 -0.982,2.168 -2.253,2.321c-0.072,0.014 -0.146,0.021 -0.223,0.021l-4.703,-0c-0.059,-0 -0.117,-0.004 -0.173,-0.013c-0.117,0.009 -0.235,0.013 -0.354,0.013l-0.56,-0.049l0,-7.448Z" style="fill:#fff;"/></g><defs><linearGradient id="_Linear1" x1="0" y1="0" x2="1" y2="0" gradientUnits="userSpaceOnUse" gradientTransform="matrix(1.30884e-15,21.375,-21.375,1.30884e-15,11.25,0.5625)"><stop offset="0" style="stop-color:#000;stop-opacity:1"/><stop offset="1" style="stop-color:#a1a1a1;stop-opacity:1"/></linearGradient></defs></svg>