<?xml version="1.0" encoding="UTF-8" standalone="no"?><!DOCTYPE svg PUBLIC "-//W3C//DTD SVG 1.1//EN" "http://www.w3.org/Graphics/SVG/1.1/DTD/svg11.dtd"><svg width="100%" height="100%" viewBox="0 0 125 125" version="1.1" xmlns="http://www.w3.org/2000/svg" xmlns:xlink="http://www.w3.org/1999/xlink" xml:space="preserve" xmlns:serif="http://www.serif.com/" style="fill-rule:evenodd;clip-rule:evenodd;stroke-linejoin:round;stroke-miterlimit:2;"><g><path d="M120.833,33.333c0,-16.097 -13.069,-29.166 -29.166,-29.166l-58.334,-0c-16.097,-0 -29.166,13.069 -29.166,29.166l-0,58.334c-0,16.097 13.069,29.166 29.166,29.166l58.334,0c16.097,0 29.166,-13.069 29.166,-29.166l0,-58.334Z"/><g><path d="M31.51,32.393c0.24,0.153 0.523,0.229 0.85,0.229l0.655,0c3.139,0 5.222,0.36 6.247,1.079l1.275,0c0.436,0 2.301,0.709 5.593,2.126l2.159,0c0.218,0 0.436,0.218 0.654,0.655c-0.153,0.152 -0.731,0.228 -1.734,0.228c2.595,2.29 3.893,3.576 3.893,3.86l-0,0.229c-0.066,0.24 -2.802,2.889 -8.21,7.948l-3.009,-0c-2.922,-2.813 -5.146,-4.318 -6.672,-4.514l-0.196,0c-2.879,0 -4.318,0.578 -4.318,1.734c-0.61,-0 -0.97,1.003 -1.079,3.009l0.229,1.079l1.93,-0c0.479,-0 1.123,0.36 1.929,1.079c1.003,0.197 1.505,0.48 1.505,0.851l-0.196,0.425l0.425,0.229l5.167,-0l0,0.654l-4.317,-0l0,0.196c0.044,0.393 1.548,1.112 4.514,2.159c5.691,1.679 10.215,3.979 13.573,6.901c0,0.174 0.72,1.036 2.159,2.584c-1.723,0.131 -2.584,0.338 -2.584,0.621c0.327,0 0.545,0.36 0.654,1.08l2.584,-0c0.392,-0 0.818,0.861 1.276,2.584l-0.426,0.228l-2.158,0c-0.284,0.044 -0.426,0.186 -0.426,0.426l2.813,-0c0.197,-0 0.404,0.218 0.622,0.654l-0,0.425c-0,0.283 -0.142,0.425 -0.425,0.425l-2.159,0l-0,0.229c-0,0.742 0.076,1.963 0.229,3.663c-0,2.377 -0.861,5.179 -2.584,8.406c-0.283,0.044 -0.425,0.185 -0.425,0.425l-0,0.425l3.009,0c0.283,0.044 0.425,0.186 0.425,0.426c-0.174,-0 -1.101,0.937 -2.78,2.812c-3.75,2.857 -8.853,4.285 -15.307,4.285l-0.196,0c-7.915,0 -14.38,-2.442 -19.396,-7.326c-3.728,-0.24 -5.592,-1.025 -5.592,-2.355c-1.374,-1.243 -2.094,-2.388 -2.159,-3.434c2.137,-1.418 3.783,-2.421 4.939,-3.01l0.883,0.197c0.414,-0.109 2.496,-1.33 6.247,-3.663l2.584,-0c0.24,-0 1.024,1.079 2.355,3.238l-0,0.425l-0.655,-0l0,0.425c2.443,2.159 4.885,3.238 7.327,3.238c3.728,-0.611 5.593,-2.409 5.593,-5.397c-0,-0.458 -0.36,-1.461 -1.08,-3.009l2.159,0l0,-0.196c-0.371,-0.72 -0.938,-1.079 -1.701,-1.079l-2.158,-0c-0.611,-0 -1.407,-0.077 -2.388,-0.229l-0.425,0.229c-0.284,-0.153 -0.502,-0.229 -0.654,-0.229l-0,-0.426l0.229,0c0.392,0 1.831,-0.076 4.317,-0.228l-0,-0.426l-6.051,-1.929c-0.436,-0 -0.937,-0.077 -1.504,-0.229c-0.24,0.152 -0.524,0.229 -0.851,0.229c-0.916,-0.436 -2.213,-0.873 -3.892,-1.309l0,-0.425l1.537,0l0,-0.425c-4.448,-1.657 -7.468,-3.881 -9.06,-6.672c-1.09,-1.483 -1.733,-3.129 -1.929,-4.939l0.425,-0.229l0.85,0c0.153,0 0.229,0.076 0.229,0.229c0.218,-0.153 0.644,-0.229 1.276,-0.229l-0,-0.425l-2.78,-0l-0,-0.425c0.719,-0 1.079,-0.142 1.079,-0.426l-1.504,-0.883c-0.218,-0.567 -0.437,-0.85 -0.655,-0.85l-2.387,-0l-0,-1.734c-0,-4.491 2.082,-8.438 6.247,-11.839l0.654,-0c0.153,-0 0.229,0.076 0.229,0.228l0.425,-0.228l0.425,0.228c0.873,-0.152 1.309,-0.37 1.309,-0.654l-0.458,-0.229l-1.276,0l0,-0.196c1.854,-1.068 2.78,-1.712 2.78,-1.93c0,-0.414 1.723,-0.774 5.168,-1.079l3.238,0c0.327,0 0.621,-0.076 0.883,-0.229Zm-12.494,20.246l-0,0.425l0.196,0l0,-0.425l-0.196,-0Zm0.621,-0l0,0.425l0.655,0c-0,-0.283 -0.142,-0.425 -0.426,-0.425l-0.229,-0Zm-9.452,-0l0.425,-0l0,0.425l-0.425,0l0,-0.425Zm1.079,-0l0.622,-0l-0,0.425l-0.622,0l0,-0.425Zm16.583,17.007l2.126,0l-0,0.655l-1.505,-0.229l-0.621,-0l-0,-0.426Zm-6.476,3.86l-0,0.458l0.229,-0l-0,-0.458l-0.229,-0Z" style="fill:#fff;fill-rule:nonzero;"/><path d="M78.248,32.491c0.153,0 0.229,0.077 0.229,0.229l0.851,-0.229c6.934,0 12.854,1.657 17.76,4.972c5.189,-0 7.784,0.578 7.784,1.733c3.249,2.617 5.767,5.43 7.555,8.439l0,1.308l-8.013,4.088c-1.483,0.872 -2.562,1.309 -3.238,1.309l-2.159,-0c-3.248,-4.536 -6.203,-7.131 -8.863,-7.785c-0.872,-0.414 -2.246,-0.915 -4.121,-1.504c-2.551,-0 -5.506,0.861 -8.864,2.584l0,0.229c1.592,-0 2.388,0.141 2.388,0.425c-3.903,3.51 -5.855,6.247 -5.855,8.209c-0.458,0.545 -0.883,1.984 -1.275,4.318l-4.35,-0c-0.284,0.043 -0.426,0.196 -0.426,0.457c0,0.197 0.218,0.404 0.655,0.622l3.663,-0c0.218,-0 0.578,1.81 1.079,5.429c0.741,2.922 2.257,5.517 4.546,7.785l-0.425,0.196l-2.387,-0l-0,0.458c1.918,1.875 5.091,3.314 9.517,4.317c1.636,0 4.023,-0.654 7.163,-1.962c2.9,-0 5.135,-0.938 6.705,-2.813l0.196,-0l0,-0.425l-2.158,-0l-0,-0.197c0.545,-0.981 1.482,-2.278 2.812,-3.892l2.584,0c0.306,0 2.835,1.298 7.588,3.892c3.031,0 5.124,0.644 6.28,1.93l0,0.229c-0.589,0.632 -0.883,0.992 -0.883,1.079l-1.505,-0.229c-0.937,0 -2.235,1.44 -3.892,4.318c-0.632,0.305 -1.788,0.458 -3.467,0.458l-0.425,-0c-0.218,-0 -0.436,0.207 -0.654,0.621l2.813,0l-0,0.654c-4.601,4.274 -8.493,6.662 -11.677,7.163c-2.289,1.134 -4.884,1.701 -7.784,1.701l-4.546,-0c-7.872,-0 -14.871,-2.802 -20.998,-8.406c-0.611,-0.741 -1.69,-1.112 -3.238,-1.112c-0.502,0.153 -0.785,0.229 -0.85,0.229c-0.589,-0.218 -0.884,-0.436 -0.884,-0.654c0.044,-0.284 0.197,-0.425 0.458,-0.425c0.153,-0 0.36,0.076 0.622,0.229l1.308,-0.229l0.425,-0l0,-0.229c-2.594,-3.554 -3.892,-5.713 -3.892,-6.476l0,-0.229l2.159,-0l1.079,-0.196c-1.679,-3.838 -2.616,-7.73 -2.813,-11.677l-2.78,0l0,-0.654l2.355,0c0.284,0 0.425,-0.142 0.425,-0.425c0,-0.305 -0.141,-0.458 -0.425,-0.458l-3.892,-0c-0.283,-0 -0.425,-0.142 -0.425,-0.425l-0,-0.654c0.654,-0 1.09,-0.066 1.308,-0.197l0.425,0.197c2.159,-0 3.238,-0.284 3.238,-0.851c0.284,-4.077 1.439,-7.904 3.467,-11.48l0,-0.196c0,-0.284 -0.142,-0.425 -0.425,-0.425l-2.159,-0l-0.458,-0.229c2.595,-4.579 5.55,-7.752 8.864,-9.518c0,-0.284 -0.142,-0.425 -0.425,-0.425l-4.317,-0l-0,-0.229c1.679,-1.505 4.709,-2.878 9.092,-4.121c2.333,-0.415 4.426,-0.622 6.28,-0.622l0.425,0c0.327,0 0.611,-0.076 0.85,-0.229Zm-14.064,30.287l0,0.654l0.655,0c0.283,0 0.425,-0.152 0.425,-0.458l-0.425,-0.196l-0.655,0Zm22.928,12.102l1.962,-0c0.284,0.043 0.426,0.185 0.426,0.425c-1.81,1.592 -3.107,2.387 -3.892,2.387l-1.734,0l0,-0.425c0.545,0 1.625,-0.796 3.238,-2.387Z" style="fill:#fff;fill-rule:nonzero;"/></g></g></svg>