<?xml version="1.0" encoding="UTF-8" standalone="no"?><!DOCTYPE svg PUBLIC "-//W3C//DTD SVG 1.1//EN" "http://www.w3.org/Graphics/SVG/1.1/DTD/svg11.dtd"><svg width="100%" height="100%" viewBox="0 0 23 23" version="1.1" xmlns="http://www.w3.org/2000/svg" xmlns:xlink="http://www.w3.org/1999/xlink" xml:space="preserve" xmlns:serif="http://www.serif.com/" style="fill-rule:evenodd;clip-rule:evenodd;stroke-linejoin:round;stroke-miterlimit:2;"><rect id="Artboard5" x="0" y="0" width="22.5" height="22.5" style="fill:none;"/><path d="M21.937,5.906c0,-2.949 -2.394,-5.344 -5.343,-5.344l-10.688,0c-2.949,0 -5.344,2.395 -5.344,5.344l0,10.688c0,2.949 2.395,5.343 5.344,5.343l10.688,0c2.949,0 5.343,-2.394 5.343,-5.343l0,-10.688Z" style="fill:url(#_Linear1);"/><g><g><path d="M3.888,6.76c0.106,-0 0.349,0.007 0.728,0.022c0.387,0.734 0.603,1.112 0.647,1.136c0.043,-0 0.103,0.049 0.182,0.149l0.532,-0c0.021,0.004 0.032,0.019 0.032,0.044c-0,0.028 -0.011,0.041 -0.032,0.041l-0.052,0c-0.024,0 -0.046,-0.006 -0.066,-0.019c-0.018,0.013 -0.04,0.019 -0.066,0.019c-0.025,0 -0.047,-0.006 -0.066,-0.019l-0.098,0.019l-0.101,0l-0.032,-0.019l-0.017,0.042c0.131,0.226 0.451,0.819 0.961,1.779l-0.083,0.045c0.152,0.296 0.252,0.467 0.299,0.514l0.017,-0.108l0,-0.108c0,-0.085 -0.033,-0.184 -0.1,-0.298c0.055,-0.015 0.083,-0.03 0.083,-0.045c-0.055,-0.11 -0.083,-0.181 -0.083,-0.212c0.021,-0.015 0.037,-0.022 0.049,-0.022c-0.033,-0.053 -0.049,-0.103 -0.049,-0.15l-0,-1.139c-0.056,0 -0.084,-0.006 -0.084,-0.019l-0.031,0.019c-0.023,0 -0.035,-0.013 -0.035,-0.041l0,-0.022c0.003,-0.03 0.015,-0.044 0.035,-0.044l0.115,-0l-0,-0.384c-0.067,-0 -0.101,-0.015 -0.101,-0.045l0,-1.072l0.017,-0.041c0.221,-0.015 0.387,-0.022 0.498,-0.022l0.596,-0c0.012,-0 0.017,0.007 0.017,0.022l0.035,-0.022c0.021,0.004 0.031,0.019 0.031,0.044l0,1.114c0.072,-0 0.112,0.021 0.118,0.063l0,0.301c0,0.022 -0.017,0.043 -0.051,0.064l-0.098,-0l-0,0.066l0.098,0c0.016,0 0.033,0.022 0.051,0.064l0,1.459l-0.118,0.086l0,0.834c0,0.019 -0.032,0.048 -0.098,0.086l0.015,0.152l0,0.514c0.056,0 0.083,0.014 0.083,0.042l0,0.793l0.018,0.108l-0.035,0.022l-0.745,-0c-0.11,-0 -0.276,-0.008 -0.498,-0.022c-0.304,-0.607 -0.481,-0.922 -0.53,-0.943c-0.05,0 -0.105,-0.079 -0.164,-0.238c-0.167,-0.277 -0.25,-0.433 -0.25,-0.469l0.049,-0l-0,-0.045l-0.463,-0.856c0.055,-0.015 0.083,-0.03 0.083,-0.045l-0.233,-0.428l-0,-0.301c-0,-0.081 -0.061,-0.224 -0.182,-0.429l-0.017,0l0,1.139l-0.098,0.086l0,0.041l0.182,0c0.021,0.004 0.032,0.019 0.032,0.045l-0,0.063c-0,0.021 -0.017,0.042 -0.049,0.064l-0.165,-0l-0.017,0.257l0,0.644l0.017,0.107c-0.026,0.028 -0.059,0.042 -0.1,0.042l-0,0.13l0.083,0.085l0,0.73l0.017,0.127c-0.011,0.025 -0.017,0.054 -0.017,0.086l0.017,0.108l-0.034,0.022l-0.728,-0c-0.095,-0 -0.245,-0.008 -0.449,-0.022l-0.017,-0.042l-0,-0.022c-0,-0.015 0.005,-0.022 0.017,-0.022l-0.017,-0.041l-0,-0.924l-0.081,-0.085l-0,-0.086l0.081,-0.086l-0,-0.964c-0,-0.021 0.017,-0.043 0.051,-0.067l0.147,0c0.023,0 0.035,-0.013 0.035,-0.041l-0,-0.063c-0,-0.03 -0.012,-0.045 -0.035,-0.045l-0.164,0c-0.023,0 -0.034,-0.014 -0.034,-0.041c0.003,-0.03 0.014,-0.044 0.034,-0.044l0.083,-0l0,-0.042c0,-0.048 0.005,-0.084 0.015,-0.108l-0.015,-0.107l0.015,-0.086c0,-0.015 -0.005,-0.022 -0.015,-0.022l0.015,-0.108l0,-0.041c0,-0.058 -0.005,-0.086 -0.015,-0.086l0.015,-0.152l0,-0.086c0,-0.186 -0.005,-0.428 -0.015,-0.727l0.015,-0.044l-0.015,-0.044c0.01,-0.115 0.027,-0.172 0.049,-0.172l0.15,0c0.077,0 0.198,-0.006 0.363,-0.019l-0,-0.044l-0.015,-0c-0.081,-0 -0.143,-0.008 -0.184,-0.022c-0.072,0.014 -0.144,0.022 -0.215,0.022c-0.11,-0 -0.165,-0.05 -0.165,-0.149c-0.067,-0 -0.1,-0.021 -0.1,-0.064l-0,-1.053l0.017,-0.041c0.237,-0.015 0.403,-0.022 0.498,-0.022Zm-0.596,1.564l0.032,-0c0.023,0.006 0.034,0.021 0.034,0.044c0,0.032 -0.028,0.053 -0.083,0.063l-0.018,-0.041l0,-0.022c0.004,-0.03 0.015,-0.044 0.035,-0.044Zm2.982,-0l0.017,-0c0.023,0.006 0.034,0.021 0.034,0.044l0,0.022c0,0.028 -0.011,0.041 -0.034,0.041c-0.017,0 -0.033,-0.021 -0.049,-0.063c0.003,-0.03 0.014,-0.044 0.032,-0.044Zm0.414,1.503c0.003,0.028 0.015,0.042 0.034,0.042l0,-0.042l-0.034,0Zm0.066,0.064l0,0.044l0.017,0l0,-0.044l-0.017,-0Z" style="fill:#fff;fill-rule:nonzero;"/><path d="M10.642,6.76c0.381,-0 0.703,0.104 0.966,0.314c-0.02,0.012 -0.041,0.019 -0.064,0.019l0,0.041c0.039,-0 0.189,0.132 0.449,0.396c0.064,0 0.128,0.028 0.194,0.083l0.179,-0l0.078,0.022l0,0.022c0,0.028 -0.01,0.042 -0.032,0.042l-0.081,-0c-0.009,-0 -0.014,-0.008 -0.014,-0.023c-0.018,0.015 -0.045,0.023 -0.081,0.023l-0,0.019c0.243,0.351 0.426,0.823 0.547,1.418l-0.047,0.041l-0.387,0l-0,0.022c0.158,0 0.25,0.007 0.274,0.019c0.018,-0.012 0.045,-0.019 0.081,-0.019l0.032,0c0.043,0 0.064,0.132 0.064,0.397c0.003,0.027 0.014,0.041 0.032,0.041l0.161,0c0.01,0 0.015,0.006 0.015,0.019l0.035,-0.019l0.014,0c0.066,0.009 0.098,0.029 0.098,0.06c0,0.464 -0.102,0.93 -0.306,1.399l-0.032,0.02l-0.307,-0l-0.066,0.063l-0.159,-0c-0.021,0.004 -0.032,0.018 -0.032,0.041c0.118,0 0.176,0.008 0.176,0.022c-0.25,0.533 -0.636,0.929 -1.159,1.187c-0.255,0.085 -0.487,0.127 -0.694,0.127l-0.177,-0c-0.126,-0 -0.212,-0.015 -0.257,-0.045c-0.022,0.015 -0.038,0.023 -0.049,0.023c-0.473,-0.104 -0.843,-0.306 -1.111,-0.606c-0.208,-0.227 -0.375,-0.455 -0.5,-0.686c-0.018,-0.014 -0.04,-0.022 -0.064,-0.022l-0.145,0l0,-0.041l0.159,-0c0,-0.042 0.012,-0.063 0.035,-0.063l0.208,-0l0.081,-0.02c-0.167,-0.41 -0.258,-0.785 -0.274,-1.126l-0,-0.063l0.017,-0.041c0.009,-0 0.014,0.007 0.014,0.022c0.162,-0.015 0.281,-0.022 0.356,-0.022l0.24,-0l0,-0.023c0,-0.027 -0.01,-0.041 -0.032,-0.041l-0.578,0c-0.013,0 -0.04,-0.049 -0.081,-0.146l-0.275,0c-0.021,0 -0.032,-0.014 -0.032,-0.041c0,-0.028 0.044,-0.049 0.13,-0.064l0,-0.082c-0.011,-0 -0.028,-0.006 -0.049,-0.019c-0.021,0.013 -0.037,0.019 -0.049,0.019c-0.01,-0.028 -0.015,-0.049 -0.015,-0.064c0.031,-0.482 0.17,-0.967 0.417,-1.456c0.095,-0.167 0.182,-0.25 0.26,-0.25c0.139,-0 0.209,-0.022 0.209,-0.064c-0.036,-0.027 -0.068,-0.041 -0.096,-0.041l-0.017,-0l-0.081,0.019l-0.015,-0.041l0.015,-0.042c-0.043,0 -0.064,-0.013 -0.064,-0.041c0.08,-0.091 0.231,-0.223 0.451,-0.396l0.177,-0c0.288,-0.222 0.707,-0.333 1.258,-0.333Zm-1.339,2.604l-0,0.041l0.098,0.086l0,0.041c0,0.028 -0.011,0.042 -0.034,0.042l-0.079,-0l0,0.063l0.29,0c0.018,0 0.034,0.049 0.049,0.146c0.23,0.013 0.402,0.019 0.515,0.019l0.127,0l0,0.041c0,0.03 -0.01,0.045 -0.032,0.045c-0.019,-0.015 -0.035,-0.022 -0.046,-0.022c-0.012,-0 -0.017,0.007 -0.017,0.022l-0.081,-0.022c-0.04,-0 -0.19,0.007 -0.452,0.022l0,0.101c0.053,0.341 0.187,0.647 0.403,0.92c0.119,0.106 0.179,0.168 0.179,0.187l-0.032,0.02l-0.226,-0l0.015,0.041l-0,0.022l-0.096,-0l0,0.041l0.194,0c0.191,0.07 0.319,0.105 0.385,0.105c0.062,-0 0.164,-0.021 0.306,-0.064c0,-0.027 -0.01,-0.041 -0.031,-0.041l-0.081,0l-0,-0.041l0.176,-0c0.012,-0 0.087,-0.021 0.226,-0.063l0.162,-0c0.024,-0 0.045,-0.007 0.063,-0.02c0.022,0.013 0.038,0.02 0.049,0.02c0.211,-0.117 0.399,-0.374 0.564,-0.771c0.064,-0.28 0.096,-0.439 0.096,-0.479l0,-0.169c0,-0.023 -0.053,-0.043 -0.159,-0.06l-0.032,0.019l-0.113,0c-0.044,0 -0.066,-0.138 -0.066,-0.415l-0.079,-0.023l-0.549,0l-0,-0.041c0.162,-0.013 0.28,-0.019 0.356,-0.019l0.24,0l-0,-0.022c-0.102,-0.37 -0.263,-0.655 -0.483,-0.854c-0.244,-0.194 -0.442,-0.292 -0.596,-0.292c-0.45,0 -0.815,0.299 -1.096,0.895c-0.075,0.246 -0.113,0.405 -0.113,0.479Zm-1.111,0.438l0.177,0c0.021,0.004 0.032,0.018 0.032,0.041l-0.032,0.023l-0.177,-0l0,-0.064Zm3.963,0.086l-0.015,0.041l0,0.019l0.015,-0c-0,-0.028 0.01,-0.041 0.032,-0.041l-0,-0.019l-0.032,-0Zm-1.981,0.311l0.017,-0c0.021,0.004 0.032,0.018 0.032,0.041l-0,0.063c-0,0.028 -0.011,0.042 -0.032,0.042l-0.017,-0c-0.022,-0 -0.032,-0.014 -0.032,-0.042l-0,-0.063c0.003,-0.028 0.014,-0.041 0.032,-0.041Zm-1.886,0.228l0.098,0l0.015,0.105l-0.047,0.041l-0.049,-0c-0.021,-0 -0.038,-0.041 -0.049,-0.124l0.032,-0.022Z" style="fill:#fff;fill-rule:nonzero;"/><path d="M12.72,6.75l1.194,0c0.029,0 0.074,0.186 0.132,0.558c0.023,0.214 0.073,0.321 0.15,0.321c0.044,-0 0.066,0.064 0.066,0.193c-0.016,0.015 -0.05,0.023 -0.1,0.023l0.25,1.31c0.037,0.243 0.087,0.365 0.149,0.365l0,0.127c0,0.029 -0.011,0.044 -0.034,0.044l-0.115,0l0.017,0.149l0.181,0c0.023,0 0.035,-0.014 0.035,-0.041c-0.012,-0.026 -0.017,-0.054 -0.017,-0.086l0.034,-0.022l0.147,0c0,-0.013 0.011,-0.07 0.034,-0.171l0,-0.023c-0.011,0 -0.027,-0.007 -0.049,-0.022c0.165,-0.725 0.27,-1.219 0.314,-1.481c0.028,-0.115 0.056,-0.172 0.084,-0.172l0.034,0.023c0.039,-0 0.067,-0.058 0.083,-0.172c-0.026,-0.029 -0.065,-0.044 -0.117,-0.044l-0,-0.022c0.122,-0.533 0.183,-0.819 0.183,-0.857l1.16,0c0.03,0 0.08,0.228 0.15,0.685c0.029,0.144 0.085,0.216 0.167,0.216c0.023,0 0.034,0.036 0.034,0.108l0,0.041c0,0.03 -0.028,0.045 -0.083,0.045l-0,0.041c0.055,0.334 0.171,0.864 0.348,1.589c0.044,0.019 0.066,0.084 0.066,0.194l-0.034,0.022l-0.116,0l0,0.044c0.023,0.034 0.035,0.069 0.035,0.105l0.115,0l0.083,-0.019l-0.017,-0.108l0,-0.022l0.101,0c0.065,0 0.098,-0.057 0.098,-0.171c-0.021,-0.036 -0.032,-0.057 -0.032,-0.064l0.233,-1.117l0.265,-1.332l0.017,-0c-0.011,-0.028 -0.017,-0.049 -0.017,-0.063c0.029,-0.129 0.051,-0.194 0.066,-0.194l0.066,-0c0.023,0.004 0.035,0.018 0.035,0.041c0.036,-0.027 0.068,-0.041 0.098,-0.041l1.03,-0c-0,0.099 -0.012,0.149 -0.035,0.149c0,0.015 0.006,0.022 0.017,0.022l-0.546,2.554c0.021,0.005 0.031,0.019 0.031,0.045l0,0.108c-0.011,0.042 -0.044,0.063 -0.098,0.063l-0.083,-0.022c-0.026,0.114 -0.048,0.171 -0.066,0.171l-0.233,0c-0.023,0.004 -0.035,0.019 -0.035,0.045c0,0.027 0.062,0.048 0.184,0.063l0,0.044l-0.017,0.042l0.035,0.022l0.215,-0l0.081,-0.022l0.017,0.044l0,0.041c0,0.03 -0.044,0.052 -0.132,0.067c0,0.027 -0.022,0.149 -0.066,0.365l0.1,0.041c-0.023,0.061 -0.122,0.527 -0.299,1.396l-0.051,0.044c-0.022,-0.014 -0.038,-0.022 -0.049,-0.022c-0,0.015 -0.006,0.022 -0.018,0.022l0.018,0.042c-0.046,0.315 -0.079,0.472 -0.098,0.472l-0.069,0.023l-0.032,-0.023l-0.101,0.023l-0.031,-0c-0.012,-0 -0.018,-0.008 -0.018,-0.023l-0.034,0.023l-0.728,-0c-0.095,-0 -0.167,-0.014 -0.216,-0.042c-0.02,0.013 -0.042,0.019 -0.066,0.019l-0.035,0c-0.032,0 -0.076,-0.164 -0.132,-0.491l-0.049,-0l0,-0.045l0.098,0c0,-0.067 -0.088,-0.547 -0.265,-1.437l-0.083,-0c-0.033,-0 -0.066,-0.129 -0.101,-0.387l0.035,-0.022l0.032,0.022l0.017,-0.044l-0,-0.023c-0,-0.031 -0.061,-0.053 -0.182,-0.063c-0.059,0.015 -0.114,0.022 -0.166,0.022c-0.015,-0.101 -0.054,-0.152 -0.116,-0.152l-0.034,0.022c-0.018,-0.015 -0.046,-0.022 -0.083,-0.022l-0,-0.041c0.003,-0.03 0.014,-0.045 0.034,-0.045l0.181,0l0.035,-0.019l-0.017,-0.108l-0,-0.022l0.149,0c0,-0.099 -0.016,-0.178 -0.049,-0.235c0.021,-0.036 0.032,-0.065 0.032,-0.089l-0.017,-0.041c0.046,-0.139 0.068,-0.24 0.068,-0.301c-0.054,-0.286 -0.093,-0.429 -0.117,-0.429c-0.09,0.407 -0.146,0.707 -0.167,0.901c0.023,0.005 0.034,0.02 0.034,0.045c0,0.114 -0.072,0.171 -0.215,0.171c-0,0.085 -0.012,0.127 -0.035,0.127l-0.23,0c-0.023,0.004 -0.035,0.019 -0.035,0.045l0,0.041l0.15,-0c0.023,0.006 0.034,0.021 0.034,0.044l0,0.045l-0.017,0.041l0.314,-0c0.023,0.004 0.034,0.019 0.034,0.044l0,0.019c0,0.028 -0.05,0.05 -0.149,0.067c-0,0.085 -0.017,0.206 -0.049,0.365l0.083,0.041l-0.365,1.869c-0,0.072 -0.022,0.108 -0.067,0.108l-0.083,-0.023c-0.011,0 -0.028,0.008 -0.051,0.023c-0.11,-0.015 -0.192,-0.023 -0.248,-0.023l-0.15,0.023c-0.021,-0.015 -0.037,-0.023 -0.049,-0.023c-0.044,0.015 -0.083,0.023 -0.117,0.023c-0.022,-0 -0.032,-0.008 -0.032,-0.023l-0.101,0.023c-0.077,-0 -0.237,-0.008 -0.48,-0.023l-0.233,-1.05c0.011,-0.029 0.017,-0.052 0.017,-0.066c-0.057,-0.117 -0.124,-0.402 -0.199,-0.857l-0.1,-0c-0.013,-0 -0.047,-0.129 -0.101,-0.387c0.067,-0.019 0.101,-0.041 0.101,-0.067c-0,-0.042 -0.116,-0.063 -0.349,-0.063c-0.022,-0.087 -0.05,-0.13 -0.083,-0.13c-0.059,0.015 -0.092,0.022 -0.1,0.022c-0.018,-0.015 -0.041,-0.022 -0.067,-0.022l0,-0.041c0.004,-0.03 0.015,-0.045 0.035,-0.045l0.181,0c0.023,0 0.034,-0.014 0.034,-0.041l0,-0.045l-0.017,-0.041l0.035,-0.022l0.115,0l-0,-0.086c-0,-0.05 -0.034,-0.108 -0.101,-0.171l-0.314,-1.567c0.004,-0.03 0.014,-0.045 0.032,-0.045c0.022,0.015 0.039,0.023 0.052,0.023l0.015,-0.045c-0,-0.025 -0.017,-0.082 -0.05,-0.171l-0.083,-0c-0.039,-0.04 -0.105,-0.327 -0.199,-0.86l0.035,-0.019Zm-0.035,0.901l0.05,0c0.034,0.015 0.051,0.058 0.051,0.13c0,0.028 -0.011,0.041 -0.034,0.041l-0.032,0c-0.023,0 -0.046,-0.049 -0.069,-0.149l0.034,-0.022Zm3.502,1.612l0,0.041l0.017,-0l0,-0.041l-0.017,-0Zm-0.032,0.041l0,0.044l0.017,0l0,-0.044l-0.017,-0Zm-1.993,0.558c0.011,0.028 0.017,0.049 0.017,0.064l0.198,-0l0,-0.041c0,-0.03 -0.01,-0.045 -0.031,-0.045l-0.15,0l-0.034,0.022Zm2.658,0.023c0.003,0.027 0.014,0.041 0.032,0.041l0.184,-0l-0,-0.086l-0.184,0c-0.022,0.004 -0.032,0.019 -0.032,0.045Zm-4.019,-0.045l0.017,0.045l-0,0.041l-0.049,-0l-0,-0.041c0.003,-0.03 0.014,-0.045 0.032,-0.045Zm1.594,0.086l-0,0.089c0.003,0.027 0.014,0.041 0.034,0.041l0.098,-0l0.083,-0.022l0,-0.019c0,-0.045 -0.044,-0.074 -0.132,-0.089l-0.032,0.022c-0.023,-0.015 -0.04,-0.022 -0.051,-0.022Zm2.69,-0l-0.018,0.044l0,0.045c0.004,0.027 0.015,0.041 0.035,0.041l0.132,-0c0.017,-0 0.033,-0.021 0.049,-0.064c-0.044,-0.044 -0.11,-0.066 -0.198,-0.066Zm-2.325,0.152c0,0.042 -0.028,0.085 -0.083,0.127c0.042,0.245 0.081,0.368 0.117,0.368l0.032,-0l0.084,-0.409c0.044,-0 0.066,-0.015 0.066,-0.045l-0,-0.041l-0.216,0Zm2.589,0.086c0.033,0.273 0.077,0.409 0.133,0.409c0.06,-0.243 0.1,-0.38 0.118,-0.409c0.021,-0 0.031,-0.015 0.031,-0.045l0,-0.041l-0.164,0c-0.029,0.057 -0.068,0.086 -0.118,0.086Zm-2.488,0.428c0.011,0.021 0.017,0.065 0.017,0.13c0.032,-0.015 0.049,-0.058 0.049,-0.13l-0,-0.019l-0.035,-0l-0.031,0.019Zm2.672,0.022c0.004,0.03 0.014,0.045 0.032,0.045l0.017,-0c0,-0.017 0.006,-0.039 0.018,-0.067l-0.035,-0.019c-0.021,0.004 -0.032,0.018 -0.032,0.041Z" style="fill:#fff;fill-rule:nonzero;"/></g><g><path d="M2.771,12.572c0.009,0.008 0.021,0.012 0.034,0.012l0.027,-0c0.128,-0 0.213,0.019 0.255,0.057l0.052,-0c0.017,-0 0.093,0.037 0.228,0.112l0.087,-0c0.009,-0 0.018,0.011 0.027,0.034c-0.006,0.008 -0.03,0.012 -0.071,0.012c0.106,0.121 0.159,0.189 0.159,0.204l0,0.012c-0.003,0.013 -0.114,0.152 -0.334,0.419l-0.123,-0c-0.119,-0.148 -0.21,-0.228 -0.272,-0.238l-0.008,0c-0.117,0 -0.176,0.03 -0.176,0.091c-0.025,0 -0.039,0.053 -0.044,0.159l0.009,0.057l0.079,-0c0.02,-0 0.046,0.019 0.079,0.057c0.041,0.01 0.061,0.025 0.061,0.045l-0.008,0.022l0.017,0.012l0.211,0l-0,0.035l-0.176,-0l-0,0.01c0.002,0.021 0.063,0.059 0.184,0.114c0.232,0.088 0.416,0.21 0.553,0.364c0,0.009 0.029,0.054 0.088,0.136c-0.07,0.007 -0.105,0.018 -0.105,0.033c0.013,-0 0.022,0.019 0.026,0.057l0.106,-0c0.016,-0 0.033,0.045 0.052,0.136l-0.018,0.012l-0.088,-0c-0.011,0.002 -0.017,0.01 -0.017,0.022l0.115,0c0.008,0 0.016,0.012 0.025,0.035l0,0.022c0,0.015 -0.006,0.023 -0.017,0.023l-0.088,-0l-0,0.012c-0,0.039 0.003,0.103 0.009,0.193c0,0.125 -0.035,0.273 -0.105,0.443c-0.012,0.002 -0.018,0.01 -0.018,0.023l0,0.022l0.123,-0c0.012,0.002 0.017,0.01 0.017,0.022c-0.007,0 -0.044,0.05 -0.113,0.149c-0.153,0.15 -0.361,0.226 -0.624,0.226l-0.008,-0c-0.322,-0 -0.586,-0.129 -0.79,-0.387c-0.152,-0.012 -0.228,-0.054 -0.228,-0.124c-0.056,-0.065 -0.085,-0.126 -0.088,-0.181c0.087,-0.075 0.154,-0.128 0.201,-0.159l0.036,0.011c0.017,-0.006 0.102,-0.07 0.255,-0.193l0.105,-0c0.01,-0 0.042,0.057 0.096,0.17l0,0.023l-0.027,-0l0,0.022c0.1,0.114 0.199,0.171 0.299,0.171c0.152,-0.032 0.228,-0.127 0.228,-0.285c-0,-0.024 -0.015,-0.077 -0.044,-0.158l0.088,-0l-0,-0.011c-0.015,-0.038 -0.038,-0.057 -0.069,-0.057l-0.088,0c-0.025,0 -0.058,-0.004 -0.098,-0.012l-0.017,0.012c-0.012,-0.008 -0.02,-0.012 -0.027,-0.012l0,-0.022l0.01,-0c0.016,-0 0.074,-0.004 0.176,-0.012l-0,-0.023l-0.247,-0.101c-0.018,-0 -0.038,-0.004 -0.061,-0.012c-0.01,0.008 -0.022,0.012 -0.035,0.012c-0.037,-0.023 -0.09,-0.046 -0.159,-0.069l0,-0.023l0.063,0l0,-0.022c-0.181,-0.087 -0.304,-0.205 -0.369,-0.352c-0.045,-0.078 -0.071,-0.165 -0.079,-0.26l0.018,-0.012l0.034,-0c0.006,-0 0.01,0.004 0.01,0.012c0.008,-0.008 0.026,-0.012 0.052,-0.012l-0,-0.023l-0.114,0l0,-0.022c0.03,-0 0.044,-0.008 0.044,-0.023l-0.061,-0.046c-0.009,-0.03 -0.018,-0.045 -0.027,-0.045l-0.097,-0l-0,-0.091c-0,-0.237 0.085,-0.445 0.255,-0.625l0.026,0c0.006,0 0.01,0.004 0.01,0.012l0.017,-0.012l0.017,0.012c0.036,-0.008 0.054,-0.019 0.054,-0.034l-0.019,-0.012l-0.052,-0l-0,-0.011c0.075,-0.056 0.113,-0.09 0.113,-0.101c0,-0.022 0.07,-0.041 0.211,-0.057l0.132,-0c0.013,-0 0.025,-0.004 0.036,-0.012Zm-0.509,1.067l-0,0.023l0.008,-0l-0,-0.023l-0.008,0Zm0.025,0l-0,0.023l0.027,-0c-0,-0.015 -0.006,-0.023 -0.018,-0.023l-0.009,0Zm-0.385,0l0.017,0l-0,0.023l-0.017,-0l-0,-0.023Zm0.044,0l0.025,0l-0,0.023l-0.025,-0l-0,-0.023Zm0.675,0.897l0.087,-0l0,0.034l-0.061,-0.012l-0.026,0l0,-0.022Zm-0.263,0.203l-0,0.025l0.009,-0l-0,-0.025l-0.009,0Z" style="fill:#fff;fill-rule:nonzero;"/><path d="M4.113,12.58l1.5,0c0.013,0 0.025,0.004 0.036,0.012c0.011,-0.008 0.023,-0.012 0.036,-0.012c0.012,0.02 0.019,0.035 0.019,0.047l-0.01,0.024c0.006,0.04 0.018,0.071 0.036,0.093l0,0.442l-0.009,0.022l-0.045,-0.01l-0.188,-0l-0.055,0.01c-0.01,-0.007 -0.024,-0.01 -0.044,-0.01l-0.063,0.01c-0.01,-0.007 -0.022,-0.01 -0.036,-0.01l-0.018,0.01c-0.006,0 -0.01,-0.003 -0.01,-0.01l-0.044,0.01l-0.09,0l-0,0.407c-0,0.016 -0.024,0.028 -0.072,0.036c-0,0.03 -0.006,0.045 -0.018,0.045l-0.081,0c-0.011,0.004 -0.017,0.012 -0.017,0.024c0.002,0.015 0.007,0.023 0.017,0.023l0.091,-0l0.017,0.012l-0.009,0.058l-0,0.106l0.054,0.046c0,0.015 -0.036,0.027 -0.108,0.035l0,0.684c0,0.022 -0.03,0.038 -0.09,0.047l-0,0.012l0.136,-0c0.035,0.021 0.053,0.036 0.053,0.046l0,0.92c0,0.015 -0.006,0.022 -0.017,0.022l-0.36,0c-0.061,0 -0.15,-0.004 -0.269,-0.012c-0.007,-0.143 -0.01,-0.247 -0.01,-0.314l0,-0.628c-0.054,-0.015 -0.081,-0.03 -0.081,-0.046l-0.017,0.012l-0.082,-0l0,-0.012c0.002,-0.015 0.008,-0.023 0.019,-0.023l0.044,0.012c0.012,-0.008 0.021,-0.012 0.028,-0.012l0,-0.698c0.002,-0.015 0.008,-0.022 0.017,-0.022l0.082,-0l-0,-0.047c-0.031,-0 -0.046,-0.007 -0.046,-0.022l0,-0.152c0,-0.016 -0.006,-0.024 -0.018,-0.024l-0.08,-0c-0.013,-0 -0.019,-0.008 -0.019,-0.023c0.002,-0.016 0.008,-0.024 0.019,-0.024l0.08,0l0.036,-0.057l0.045,0l0.009,-0.105c0,-0.015 -0.003,-0.022 -0.009,-0.022l0.009,-0.059l0,-0.186c0,-0.034 -0.012,-0.057 -0.036,-0.069c-0.006,-0 -0.009,0.003 -0.009,0.01l-0.045,-0.01l-0.52,-0c-0.013,-0 -0.019,-0.008 -0.019,-0.024l0,-0.442c-0.024,0 -0.036,-0.007 -0.036,-0.022l0,-0.012c0,-0.018 0.003,-0.033 0.01,-0.047c-0.007,-0.014 -0.01,-0.029 -0.01,-0.046c0.006,-0 0.01,-0.005 0.01,-0.013c0.128,-0.008 0.224,-0.012 0.287,-0.012Zm0.08,1.116l0.019,0c0.012,0.004 0.017,0.012 0.017,0.024c0,0.015 -0.005,0.023 -0.017,0.023l-0.019,-0c-0.011,-0 -0.017,-0.008 -0.017,-0.023c0.002,-0.016 0.008,-0.024 0.017,-0.024Zm0.252,0.919l0,0.023l0.01,-0l-0,-0.023l-0.01,0Z" style="fill:#fff;fill-rule:nonzero;"/><path d="M5.929,12.577c0.012,-0 0.018,0.004 0.018,0.012c0.09,-0.008 0.157,-0.012 0.2,-0.012l0.631,-0c0.23,-0 0.383,0.027 0.462,0.081c0.054,0.021 0.087,0.044 0.1,0.071c-0.007,0.013 -0.01,0.029 -0.01,0.046c0.094,0.059 0.176,0.188 0.244,0.387c0.043,0.165 0.064,0.29 0.064,0.374c0,0.028 -0.009,0.122 -0.027,0.281c0.036,-0 0.054,0.008 0.054,0.024c-0.069,0.243 -0.177,0.422 -0.325,0.538l-0.136,0.069l-0,0.012c0.014,0.017 0.047,0.08 0.1,0.188c-0.02,0.015 -0.035,0.022 -0.046,0.022l0.01,0.025l-0,0.012c-0.11,0.007 -0.182,0.01 -0.218,0.01l0,0.012c0.002,0.016 0.008,0.024 0.019,0.024l0.225,0l0.082,0.128c0.059,-0 0.098,0.039 0.117,0.117l-0,0.012c-0.03,0 -0.045,0.008 -0.045,0.024c0.187,0.349 0.281,0.528 0.281,0.538c-0.024,0.006 -0.036,0.014 -0.036,0.023c0.042,0.081 0.062,0.129 0.062,0.141l-0.017,0.011l-0.453,-0c-0.051,-0 -0.132,-0.004 -0.244,-0.011c-0.048,-0.088 -0.072,-0.135 -0.072,-0.141c0.01,-0.008 0.025,-0.012 0.045,-0.012l0,-0.011c-0.175,-0.343 -0.262,-0.531 -0.262,-0.562l0.036,0l-0,-0.024c-0.019,-0.077 -0.055,-0.115 -0.108,-0.115c-0.047,-0.079 -0.084,-0.118 -0.11,-0.118l-0.162,0l-0,0.059c-0,0.007 -0.003,0.01 -0.008,0.01l0.008,0.024l-0,0.538l0.1,0c0.012,0.003 0.019,0.011 0.019,0.025c-0,0.014 -0.007,0.022 -0.019,0.022l-0.1,-0c-0,0.039 -0.003,0.059 -0.008,0.059l0.008,0.024l-0,0.139c-0,0.018 -0.003,0.033 -0.008,0.047c0.005,0.015 0.008,0.027 0.008,0.036l-0.017,0.011l-0.371,-0c-0.06,-0 -0.151,-0.004 -0.272,-0.011l0,-0.281c0.002,-0.016 0.008,-0.024 0.019,-0.024l0.098,-0l0,-0.035l-0.098,0c-0.013,0 -0.019,-0.008 -0.019,-0.024l0,-0.607l-0.045,-0.012l-0.18,0c-0.013,0 -0.019,-0.008 -0.019,-0.024l0.019,-0.012c0.15,-0.003 0.225,-0.011 0.225,-0.022c0,-0.025 0.006,-0.037 0.019,-0.037c0.011,0.008 0.02,0.012 0.026,0.012l0.01,-0.022l-0,-0.797c0.002,-0.015 0.007,-0.022 0.017,-0.022l0.045,-0l0.01,-0.071c-0.012,-0.008 -0.021,-0.012 -0.027,-0.012c-0.053,0.008 -0.083,0.012 -0.091,0.012c0,-0.062 -0.024,-0.093 -0.072,-0.093l0,-0.059l0.063,-0.046l0,-0.785l0.055,-0.046l-0,-0.118c0.002,-0.015 0.007,-0.022 0.017,-0.022l0.064,-0c0.02,-0 0.036,-0.004 0.045,-0.012Zm0.479,0.621c-0,0.007 -0.003,0.01 -0.008,0.01c0.005,0.078 0.008,0.137 0.008,0.176l-0,0.071c-0,0.008 -0.003,0.012 -0.008,0.012l0.008,0.022l-0,0.012c-0,0.07 -0.024,0.105 -0.072,0.105l-0,0.071c0.048,0.005 0.072,0.016 0.072,0.035l-0.008,-0c0.005,0.015 0.008,0.026 0.008,0.034l0.217,0l0,0.024l-0.081,0l-0.036,0.059l-0.045,-0l-0,0.117l0.279,0c0.122,0 0.204,-0.039 0.246,-0.117c0.059,-0 0.089,-0.028 0.089,-0.083l-0.081,0l-0.018,-0.01c0.012,-0.054 0.018,-0.101 0.018,-0.142l-0,-0.093c-0,-0.081 -0.055,-0.171 -0.163,-0.269c-0.013,-0.016 -0.073,-0.027 -0.18,-0.034l-0.019,0.01l-0.018,-0.01c-0.006,-0 -0.008,0.003 -0.008,0.01c-0.022,-0.007 -0.034,-0.01 -0.038,-0.01c-0.052,0.007 -0.082,0.01 -0.089,0.01c-0.034,-0.007 -0.058,-0.01 -0.073,-0.01Zm-0.515,0.56l0,0.012l0.018,0l-0,-0.012l-0.018,0Zm0.046,0l-0,0.012l0.017,0l0,-0.012l-0.017,0Zm1.708,-0.012l0.027,0l0,0.024l-0.027,0l0,-0.024Zm0.063,0l0.028,0l0,0.024l-0.028,0l0,-0.024Zm0.045,0l0.082,0l-0,0.024l-0.082,0l0,-0.024Zm-1.319,0.924l-0.019,-0.012c0,0.016 -0.006,0.025 -0.017,0.025c0.005,0.014 0.008,0.026 0.008,0.034c0.06,-0.007 0.106,-0.01 0.136,-0.01l0.009,-0l0.017,0.01l0.038,-0.081c-0.024,-0.07 -0.039,-0.105 -0.046,-0.105l-0.081,-0c-0.012,-0 -0.022,0.046 -0.028,0.139l-0.017,0Zm-0.272,0.047l-0,0.012c0.002,0.016 0.008,0.024 0.019,0.024l0.162,0c0.012,0 0.018,-0.008 0.018,-0.024l-0,-0.012l-0.199,0Zm0.724,0.878l0.017,-0c0,0.012 0.006,0.028 0.019,0.046l-0,0.024c-0.008,-0.001 -0.02,-0.02 -0.036,-0.058l-0,-0.012Zm0.062,0.117l0.01,0l-0,0.024l-0.01,0l0,-0.024Z" style="fill:#fff;fill-rule:nonzero;"/><path d="M8.202,12.577l1.283,-0c0.008,-0 0.017,0.011 0.026,0.034l0,0.399c0,0.01 0.009,0.022 0.027,0.034l0.036,0c0.014,0 0.027,-0.004 0.037,-0.012c0.03,0.011 0.044,0.022 0.044,0.035l0,0.024c0,0.015 -0.005,0.022 -0.017,0.022l-0.045,0l-0,0.059c-0,0.016 -0.007,0.024 -0.019,0.024l-0.622,0c-0.064,0 -0.159,0.004 -0.288,0.012l-0,0.105c0.001,0.015 0.007,0.023 0.017,0.023l0.081,-0c0.013,0.002 0.019,0.01 0.019,0.024l-0,0.502l0.785,-0c0.012,0.002 0.017,0.009 0.017,0.022l0,0.176c0,0.015 -0.033,0.026 -0.098,0.034l-0.019,-0.012l-0.053,0.012c-0.013,-0.008 -0.022,-0.012 -0.028,-0.012l-0.01,0.059l0,0.198l0.01,0.118l-0.027,0.024l-0.768,-0c0,0.026 -0.021,0.042 -0.062,0.046l-0.055,-0.012l-0.017,0c-0.013,0.003 -0.019,0.011 -0.019,0.024l0,0.011l0.055,-0l0.09,0.012l0,0.386c0,0.041 0.018,0.064 0.054,0.069c-0,0.017 0.003,0.033 0.009,0.047c-0.006,0.013 -0.009,0.029 -0.009,0.046l-0,0.012l0.858,0c0.012,0 0.02,0.039 0.027,0.118l0.134,-0c0.013,0.002 0.019,0.009 0.019,0.022c-0,0.016 -0.006,0.024 -0.019,0.024l-0.098,0l-0.046,0.012l0,0.443l-1.479,0c-0.006,0 -0.009,-0.004 -0.009,-0.012l-0.019,0.012l-0.053,0c-0.009,0 -0.019,-0.011 -0.028,-0.034l-0,-0.024c-0,-0.008 0.003,-0.012 0.009,-0.012l-0.009,-0.023l-0,-0.281l-0.046,-0.01l-0.08,-0c-0.012,-0 -0.018,-0.008 -0.018,-0.024l-0,-0.024c0.001,-0.015 0.008,-0.023 0.018,-0.023c0.101,-0.008 0.179,-0.012 0.235,-0.012l0.036,0l-0,-0.022l-0.091,-0.012l-0.036,-0c-0.012,-0 -0.018,-0.012 -0.018,-0.035l0.009,-0.024c-0.006,-0.014 -0.009,-0.029 -0.009,-0.047c-0,-0.01 0.018,-0.021 0.054,-0.034c0.006,-0.014 0.01,-0.03 0.01,-0.048c-0,-0.034 -0.022,-0.053 -0.064,-0.057l-0,-0.399l0.009,-0.022l-0.017,-0.012l-0.118,-0c-0.012,-0 -0.018,-0.008 -0.018,-0.023c0.001,-0.016 0.008,-0.024 0.018,-0.024l0.108,0c0.012,0 0.018,-0.008 0.018,-0.024l-0,-0.384c-0,-0.017 0.009,-0.025 0.028,-0.025c0.018,0 0.075,-0.003 0.17,-0.01l0,-0.712c0,-0.024 -0.033,-0.036 -0.098,-0.036l-0.019,-0l-0,-0.187l0.064,-0.046l-0,-0.024c-0,-0.015 -0.006,-0.023 -0.019,-0.023l-0.108,0c-0.012,0 -0.018,-0.008 -0.018,-0.024l-0,-0.409l0.009,-0.022c0.121,-0.008 0.211,-0.012 0.27,-0.012Zm-0.342,1.402l0.045,-0c0.012,0.002 0.018,0.01 0.018,0.022l-0,0.059c-0,0.015 -0.006,0.022 -0.018,0.022l-0.045,0c-0.013,0 -0.019,-0.007 -0.019,-0.022l0,-0.059c0.003,-0.015 0.009,-0.022 0.019,-0.022Zm0.325,1.295l0.081,0l0,-0.022l-0.064,-0c-0.011,0.002 -0.017,0.009 -0.017,0.022Zm0.974,0.012l0,0.047c0.002,0.016 0.008,0.024 0.019,0.024l0.125,-0c0,-0.009 0.004,-0.021 0.01,-0.036c-0.006,-0.015 -0.01,-0.027 -0.01,-0.035l-0.144,0Z" style="fill:#fff;fill-rule:nonzero;"/><path d="M10.39,12.579l0.532,-0c0.011,0.002 0.059,0.165 0.145,0.489l0.027,0.023l0.091,-0c0.016,0.016 0.088,0.265 0.216,0.748l0.064,0.233l-0.019,0.012l-0.208,0l0,0.012c0,0.042 0.018,0.065 0.055,0.069l0.054,-0.01l0.008,-0c0.026,0.017 0.11,0.313 0.254,0.886l-0.019,0.012c-0.021,-0.008 -0.033,-0.012 -0.036,-0.012c-0.005,0 -0.008,0.004 -0.008,0.012l-0.064,-0.012l-0.045,0c-0.012,0.003 -0.018,0.011 -0.018,0.024c0.032,0.125 0.053,0.187 0.063,0.187l0.181,-0c0.012,0.002 0.018,0.01 0.018,0.024l-0,0.01c-0,0.016 -0.006,0.024 -0.018,0.024l-0.198,0c-0.015,0 -0.027,-0.004 -0.036,-0.012c-0.011,0.008 -0.023,0.012 -0.038,0.012l-0.189,0l-0.063,-0.012l-0.009,0.024c0.002,0.015 0.008,0.023 0.019,0.023l0.541,-0c0.018,-0 0.057,0.129 0.117,0.386l0,0.012l-0.677,0c-0.01,0 -0.046,-0.133 -0.108,-0.398l-0.478,-0c-0.014,-0 -0.026,-0.004 -0.036,-0.011c-0.011,0.007 -0.023,0.011 -0.036,0.011c-0.013,-0 -0.019,-0.008 -0.019,-0.023c0.006,0 0.009,-0.004 0.009,-0.012c0.111,-0.008 0.193,-0.012 0.244,-0.012l0.289,0c0.012,0 0.018,-0.007 0.018,-0.022l-0.027,-0.024l-0.181,-0c-0.007,-0 -0.025,-0.035 -0.054,-0.106l-0.071,0l-0,0.012c-0,0.007 0.002,0.038 0.008,0.094l-0.082,-0c-0.006,-0 -0.027,-0.035 -0.062,-0.106l-0.524,0c-0.035,0 -0.056,0.031 -0.063,0.094l0.017,0.012l0.154,-0c0.012,0.002 0.018,0.01 0.018,0.024l0,0.01l-0.117,0.457l-0.686,0l-0,-0.012l0.126,-0.467l-0.27,-0.012c-0.013,-0 -0.019,-0.008 -0.019,-0.023c0.03,-0.125 0.052,-0.188 0.064,-0.188l0.244,0c0.043,0 0.073,-0.066 0.089,-0.198c0.011,-0.001 0.041,-0.098 0.091,-0.292l0.1,-0.374l-0,-0.012l-0.091,0c-0.012,-0.072 -0.014,-0.098 -0.006,-0.076c-0.008,-0.011 0.072,-0.017 0.241,-0.017c0.009,-0.002 0.057,-0.161 0.144,-0.478l0.126,-0.479l0,-0.012l-0.045,-0l0,-0.012c0.045,-0.199 0.094,-0.366 0.145,-0.502l0.108,-0.01Zm0.29,1.015c-0.065,0.327 -0.111,0.49 -0.136,0.49l-0.208,0c-0.012,0 -0.021,0.024 -0.027,0.071l0.055,-0c0.035,0.004 0.053,0.016 0.053,0.034c-0.06,0.241 -0.091,0.365 -0.091,0.375l0.046,0.01l0.064,-0.01c0.011,0.006 0.02,0.01 0.026,0.01l0.055,-0.01c0.005,-0 0.008,0.003 0.008,0.01l0.045,-0.01l0.154,-0c0.006,-0 0.009,0.003 0.009,0.01c0.06,-0.007 0.09,-0.019 0.09,-0.035l0,-0.012c-0.022,-0.051 -0.049,-0.153 -0.081,-0.303c0,-0.04 -0.027,-0.063 -0.081,-0.069c-0,-0.02 -0.006,-0.039 -0.019,-0.059c0.003,-0.016 0.009,-0.024 0.019,-0.024l0.153,0c-0.03,-0.142 -0.069,-0.302 -0.117,-0.478l-0.017,0Z" style="fill:#fff;fill-rule:nonzero;"/><path d="M11.81,12.577c0.033,0.008 0.06,0.012 0.082,0.012l0.289,-0c0.013,-0 0.025,-0.004 0.036,-0.012c0.078,-0 0.117,0.035 0.117,0.105l0.171,0.571l0.081,-0l0,0.036l-0.053,0c-0.013,0.002 -0.019,0.01 -0.019,0.023c0,0.013 0.027,0.025 0.081,0.036l0.01,0.022l-0,0.059l-0.036,-0c0.048,0.192 0.156,0.549 0.324,1.072l0.045,-0.01l0.055,0l-0.01,-0.083l0,-0.046c0.013,-0.051 0.019,-0.089 0.019,-0.116c-0.012,0 -0.019,-0.008 -0.019,-0.024l0,-0.012c0.002,-0.015 0.008,-0.022 0.019,-0.022l0.008,-0l0.019,0.012l0.288,-0.911l0.045,0.012c0.003,0 0.015,-0.004 0.036,-0.012l-0,-0.036l-0.044,-0c-0.013,-0 -0.019,-0.008 -0.019,-0.022l0.189,-0.63l0.019,-0.012l0.595,-0c0.012,0.002 0.018,0.01 0.018,0.022l0,0.642l0.054,-0c0.012,0.003 0.018,0.011 0.018,0.024l-0.018,0.012l-0.054,0l0,0.899l0.046,-0c0.011,0.002 0.017,0.009 0.017,0.022l-0,0.012c-0,0.012 -0.009,0.023 -0.027,0.035l-0.009,-0l-0.019,-0.011l-0.008,0.023l0,0.222l0.099,0c0.012,0.002 0.019,0.01 0.019,0.023l-0,0.746c-0,0.016 -0.007,0.024 -0.019,0.024l-0.099,0l0,0.444c0,0.015 -0.006,0.022 -0.018,0.022l-0.298,-0c-0.06,-0 -0.15,-0.003 -0.27,-0.01l-0,-0.387l-0.01,-0.057l0.019,-0.012l0.063,0l0.045,-0.012l0,-0.629c0.024,-0.047 0.036,-0.094 0.036,-0.142c-0.066,-0.005 -0.099,-0.017 -0.099,-0.034c0.036,-0.147 0.063,-0.221 0.08,-0.221c0.024,0 0.036,-0.008 0.036,-0.024l0,-0.022c-0.041,-0 -0.062,-0.012 -0.062,-0.037l-0,-0.21l-0.01,0c-0.008,0 -0.032,0.074 -0.072,0.223c0.037,0.01 0.055,0.021 0.055,0.034c0,0.021 -0.021,0.036 -0.064,0.047c0,-0.007 -0.003,-0.011 -0.008,-0.011c-0.024,0.057 -0.048,0.138 -0.072,0.245l0.089,0c0.013,0.002 0.019,0.01 0.019,0.023c-0.091,0.29 -0.148,0.485 -0.172,0.584c-0.039,0.124 -0.063,0.186 -0.072,0.186l-0.108,0l-0.136,0.466l-0.161,-0c-0.06,-0 -0.151,-0.003 -0.271,-0.01c-0.078,-0.253 -0.117,-0.405 -0.117,-0.456l0.081,0c0.012,0 0.018,-0.008 0.018,-0.024c-0.11,-0.356 -0.168,-0.558 -0.172,-0.607l-0,-0.152c-0.004,0 -0.042,-0.003 -0.116,-0.01l-0.01,0.023l0,0.746c0,0.016 -0.006,0.024 -0.018,0.024l-0.081,0c-0.012,0.003 -0.018,0.01 -0.018,0.023l0,0.036l0.046,0c0.011,0.002 0.017,0.01 0.017,0.022c-0,0.017 -0.006,0.025 -0.017,0.025l-0.046,-0l0,0.338c0,0.015 -0.006,0.022 -0.018,0.022l-0.316,-0c-0.051,-0 -0.132,-0.003 -0.243,-0.01l-0.009,-0.024l-0,-0.304l0.054,-0.047l-0.054,-0.046l-0,-0.012c0.002,-0.015 0.008,-0.023 0.018,-0.023l0.099,0l0.009,-0.058l0,-0.678l-0.009,-0.057l-0.099,0c-0.012,0 -0.018,-0.008 -0.018,-0.024l-0,-1.016c0.002,-0.015 0.008,-0.022 0.018,-0.022l0.044,-0l0,-0.093l-0.044,-0c-0.012,-0 -0.018,-0.008 -0.018,-0.024l-0,-0.011l0.062,0c0.013,0 0.019,-0.008 0.019,-0.024l0,-0.024c-0.013,-0 -0.025,-0.004 -0.036,-0.01c-0.011,0.006 -0.023,0.01 -0.036,0.01l-0.009,-0.022l-0,-0.257c-0,-0.018 0.003,-0.033 0.009,-0.047c-0.006,-0.014 -0.009,-0.029 -0.009,-0.047l-0,-0.269c0.002,-0.015 0.008,-0.022 0.018,-0.022l0.054,-0c0.034,-0 0.055,-0.004 0.062,-0.012Zm1.128,0.676l0.055,-0c0.006,-0 0.009,0.004 0.009,0.012l0.017,-0.012l0.01,-0l-0,0.036l-0.091,0c-0.012,0 -0.017,-0.008 -0.017,-0.024l0.017,-0.012Zm0.244,-0l0.091,-0l-0,0.036l-0.091,0c-0.013,0 -0.019,-0.008 -0.019,-0.024l0.019,-0.012Zm-0.92,0.643l0,0.595l0.117,0l0,-0.176c-0.036,-0.186 -0.075,-0.326 -0.117,-0.419Zm0.803,0.314l-0,0.036l0.009,0c0.011,0 0.017,-0.008 0.017,-0.024l0,-0.034l-0.008,-0c-0.012,0.002 -0.018,0.009 -0.018,0.022Zm-0.046,0.281c0,0.007 -0.003,0.01 -0.009,0.01c0.041,0.155 0.071,0.24 0.091,0.257l0.045,-0.198c-0.013,-0.025 -0.019,-0.045 -0.019,-0.059l-0.108,-0.01Z" style="fill:#fff;fill-rule:nonzero;"/><path d="M14.443,12.582l0.623,0c0.012,0 0.022,0.043 0.028,0.128l0.098,-0c0.013,0.003 0.019,0.011 0.019,0.024l-0.028,0.024c-0.02,-0.008 -0.032,-0.012 -0.036,-0.012c-0.011,0.008 -0.023,0.012 -0.036,0.012l0,-0.012c-0.011,0.008 -0.02,0.012 -0.027,0.012l0,1.378c0,0.018 0.024,0.03 0.072,0.034c0.011,-0.008 0.023,-0.012 0.036,-0.012c0,0.004 0.007,0.015 0.019,0.035l0,0.036c0,0.01 -0.009,0.022 -0.028,0.034l-0.053,0c-0.019,0 -0.028,-0.004 -0.028,-0.012l-0.044,0.012l-0.091,0c-0.012,0.003 -0.019,0.011 -0.019,0.025l0,0.046c0.002,0.015 0.008,0.023 0.019,0.023l0.189,-0l0,0.817c0,0.017 0.004,0.033 0.01,0.047c-0.01,0.039 -0.028,0.058 -0.055,0.058c0,-0.008 -0.003,-0.012 -0.009,-0.012l-0.008,0.024l-0,0.338c0.002,0.016 0.007,0.024 0.017,0.024c0.011,-0.008 0.023,-0.012 0.036,-0.012c0.013,0.029 0.019,0.06 0.019,0.093l-0.019,0.013l-0.397,-0c-0.051,-0 -0.132,-0.004 -0.243,-0.013l0,-0.069l-0.064,-0.046c0,-0.008 -0.003,-0.012 -0.009,-0.012l0.009,-0.083l0,-0.069c0,-0.018 -0.003,-0.034 -0.009,-0.046c0.006,-0.014 0.009,-0.03 0.009,-0.047l0,-0.059c0,-0.015 -0.027,-0.034 -0.081,-0.058c-0.006,-0.015 -0.009,-0.027 -0.009,-0.035c0.009,-0.032 0.019,-0.048 0.028,-0.048l0.036,-0c0.01,-0 0.019,0.035 0.026,0.105l0.046,0c0.012,0 0.018,-0.007 0.018,-0.022l0,-0.864c0,-0.016 -0.006,-0.024 -0.018,-0.024c-0.106,-0.008 -0.169,-0.012 -0.19,-0.012l-0.009,-0.023l0,-0.034c0,-0.012 0.009,-0.024 0.027,-0.037c0.006,0 0.009,0.004 0.009,0.012l0.019,-0.012l0.189,0c0.012,0 0.017,-0.007 0.017,-0.022l0,-0.036l-0.017,-0.035l-0.064,0.012l-0.017,0c-0.009,0 -0.018,-0.011 -0.027,-0.034l0,-1.356l0.008,-0.022c-0.009,-0.008 -0.027,-0.012 -0.053,-0.012l-0,-0.024l0.045,-0l0,-0.116c0.002,-0.016 0.008,-0.024 0.017,-0.024Zm0.046,0.152c0.001,0.016 0.008,0.024 0.018,0.024l0.018,-0c0.012,-0 0.018,-0.008 0.018,-0.024c0,-0.016 -0.006,-0.024 -0.018,-0.024l-0.018,-0c-0.012,0.003 -0.018,0.011 -0.018,0.024Z" style="fill:#fff;fill-rule:nonzero;"/><path d="M15.685,12.582c0.058,0 0.189,0.004 0.396,0.012c0.21,0.399 0.328,0.605 0.352,0.618c0.023,-0 0.056,0.027 0.098,0.081l0.289,-0c0.012,0.002 0.018,0.01 0.018,0.024c-0,0.015 -0.006,0.022 -0.018,0.022l-0.028,0c-0.013,0 -0.025,-0.003 -0.036,-0.01c-0.009,0.007 -0.021,0.01 -0.036,0.01c-0.013,0 -0.025,-0.003 -0.036,-0.01l-0.053,0.01l-0.055,0l-0.017,-0.01l-0.009,0.022c0.071,0.123 0.245,0.446 0.522,0.968l-0.045,0.024c0.083,0.161 0.137,0.254 0.163,0.279l0.009,-0.058l-0,-0.059c-0,-0.046 -0.018,-0.1 -0.055,-0.162c0.031,-0.008 0.046,-0.016 0.046,-0.024c-0.031,-0.06 -0.046,-0.099 -0.046,-0.116c0.012,-0.008 0.021,-0.012 0.027,-0.012c-0.018,-0.029 -0.027,-0.056 -0.027,-0.081l0,-0.619c-0.03,-0 -0.045,-0.004 -0.045,-0.01l-0.017,0.01c-0.013,-0 -0.019,-0.008 -0.019,-0.023l-0,-0.012c0.002,-0.016 0.008,-0.024 0.019,-0.024l0.062,0l0,-0.208c-0.036,-0 -0.054,-0.008 -0.054,-0.025l-0,-0.582l0.009,-0.023c0.12,-0.008 0.21,-0.012 0.271,-0.012l0.323,0c0.007,0 0.01,0.004 0.01,0.012l0.018,-0.012c0.012,0.002 0.018,0.01 0.018,0.024l-0,0.606c0.039,-0 0.06,0.011 0.064,0.034l-0,0.164c-0,0.011 -0.01,0.023 -0.028,0.034l-0.054,0l0,0.037l0.054,-0c0.009,-0 0.018,0.011 0.028,0.034l-0,0.793l-0.064,0.047l-0,0.453c-0,0.011 -0.018,0.026 -0.054,0.047l0.008,0.083l0,0.279c0.031,0 0.046,0.008 0.046,0.023l-0,0.431l0.009,0.058l-0.019,0.012l-0.405,0c-0.059,0 -0.149,-0.004 -0.27,-0.012c-0.166,-0.33 -0.262,-0.5 -0.288,-0.512c-0.028,0 -0.058,-0.043 -0.09,-0.129c-0.09,-0.151 -0.136,-0.236 -0.136,-0.255l0.027,-0l0,-0.025l-0.252,-0.465c0.03,-0.008 0.046,-0.016 0.046,-0.024l-0.127,-0.233l-0,-0.164c-0,-0.044 -0.033,-0.121 -0.099,-0.233l-0.009,0l-0,0.619l-0.053,0.047l-0,0.022l0.098,0c0.012,0.003 0.018,0.011 0.018,0.024l-0,0.035c-0,0.011 -0.009,0.023 -0.027,0.034l-0.089,0l-0.01,0.14l0,0.35l0.01,0.059c-0.015,0.015 -0.033,0.022 -0.055,0.022l0,0.071l0.045,0.046l0,0.397l0.01,0.069c-0.007,0.014 -0.01,0.029 -0.01,0.047l0.01,0.058l-0.019,0.012l-0.396,0c-0.051,0 -0.133,-0.004 -0.244,-0.012l-0.009,-0.022l-0,-0.012c-0,-0.008 0.003,-0.012 0.009,-0.012l-0.009,-0.023l-0,-0.502l-0.044,-0.046l-0,-0.047l0.044,-0.046l-0,-0.524c-0,-0.012 0.009,-0.024 0.028,-0.037l0.08,0c0.012,0 0.019,-0.007 0.019,-0.022l-0,-0.035c-0,-0.016 -0.007,-0.024 -0.019,-0.024l-0.089,0c-0.013,0 -0.019,-0.007 -0.019,-0.022c0.002,-0.016 0.008,-0.024 0.019,-0.024l0.045,-0l-0,-0.023c-0,-0.026 0.003,-0.046 0.008,-0.058l-0.008,-0.059l0.008,-0.047c-0,-0.008 -0.003,-0.012 -0.008,-0.012l0.008,-0.058l-0,-0.023c-0,-0.031 -0.003,-0.046 -0.008,-0.046l0.008,-0.083l-0,-0.047c-0,-0.101 -0.003,-0.232 -0.008,-0.394l0.008,-0.025l-0.008,-0.024c0.005,-0.062 0.014,-0.093 0.027,-0.093l0.081,0c0.042,0 0.107,-0.003 0.197,-0.01l0,-0.024l-0.008,-0c-0.044,-0 -0.078,-0.004 -0.1,-0.012c-0.039,0.008 -0.078,0.012 -0.117,0.012c-0.06,-0 -0.089,-0.027 -0.089,-0.081c-0.037,-0 -0.055,-0.012 -0.055,-0.035l-0,-0.572l0.009,-0.023c0.129,-0.008 0.219,-0.012 0.271,-0.012Zm-0.324,0.85l0.017,0c0.013,0.004 0.019,0.012 0.019,0.024c-0,0.018 -0.015,0.029 -0.045,0.035l-0.01,-0.023l0,-0.012c0.002,-0.016 0.008,-0.024 0.019,-0.024Zm1.621,0l0.009,0c0.012,0.004 0.019,0.012 0.019,0.024l-0,0.012c-0,0.015 -0.007,0.023 -0.019,0.023c-0.009,-0 -0.018,-0.012 -0.027,-0.035c0.002,-0.016 0.008,-0.024 0.018,-0.024Zm0.225,0.818c0.002,0.015 0.008,0.022 0.019,0.022l-0,-0.022l-0.019,-0Zm0.036,0.034l-0,0.024l0.009,0l0,-0.024l-0.009,0Z" style="fill:#fff;fill-rule:nonzero;"/><path d="M19.479,12.586c0.208,-0 0.4,0.064 0.577,0.193l-0,0.01c-0.031,0 -0.057,0.004 -0.079,0.012l0,0.01c0.132,0.081 0.269,0.247 0.411,0.499c0.057,-0 0.092,0.022 0.105,0.067c0,0.01 -0.017,0.022 -0.052,0.035c0,0.034 -0.096,0.106 -0.289,0.215c-0.087,0.075 -0.149,0.112 -0.184,0.112l-0.069,0l-0.167,-0.258c-0.043,-0.029 -0.066,-0.052 -0.069,-0.069l-0,-0.011l0.034,0l0,-0.024c-0.008,0 -0.045,-0.022 -0.113,-0.067l-0.036,-0c-0.054,-0 -0.098,-0.015 -0.131,-0.045l-0.14,-0c-0.013,-0 -0.024,0.003 -0.034,0.01l-0.018,-0.01c-0.201,0.082 -0.333,0.187 -0.394,0.317c-0.014,0.022 -0.052,0.037 -0.113,0.045l-0,0.01c0.001,0.017 0.007,0.025 0.017,0.025c0.012,-0 0.017,-0.004 0.017,-0.012l0.088,0.012l0.158,-0l-0,0.01c-0,0.015 -0.006,0.022 -0.018,0.022l-0.21,0c-0.035,0.03 -0.07,0.158 -0.104,0.385l-0,0.091c-0,0.092 0.017,0.213 0.052,0.363l-0.018,0.01l-0.088,-0l-0.052,0.012c-0.011,-0.008 -0.02,-0.012 -0.026,-0.012l-0.018,0.012c-0.011,-0.008 -0.02,-0.012 -0.026,-0.012l-0,0.012c0.039,0.144 0.117,0.264 0.236,0.362c0.057,0.053 0.098,0.079 0.122,0.079l0.219,0c0.137,0.053 0.236,0.08 0.298,0.08c0.121,-0.053 0.197,-0.08 0.227,-0.08c0.012,0.008 0.02,0.012 0.027,0.012c0.132,-0.115 0.202,-0.186 0.209,-0.215c0.034,-0.031 0.08,-0.11 0.14,-0.238l-0,-0.012l-0.7,-0c-0.011,-0 -0.017,-0.008 -0.017,-0.023l-0,-0.315c0.029,-0.023 0.044,-0.042 0.044,-0.057l-0.008,-0.022c0.005,-0.014 0.008,-0.03 0.008,-0.047c-0.03,-0.009 -0.044,-0.02 -0.044,-0.033c0.011,-0.019 0.017,-0.031 0.017,-0.034c0.013,-0 0.019,0.004 0.019,0.012c0.068,-0.008 0.118,-0.012 0.148,-0.012l0.91,-0c0.013,-0 0.024,0.004 0.035,0.012c0.01,-0.008 0.021,-0.012 0.034,-0.012l0.158,-0l0.053,0.079l-0,0.067c-0.029,0.021 -0.047,0.07 -0.053,0.149c-0.006,0.11 -0.008,0.185 -0.008,0.226c0.029,-0 0.044,0.007 0.044,0.022l-0,0.012c-0.067,0.294 -0.126,0.441 -0.176,0.441c-0.01,-0.008 -0.022,-0.012 -0.035,-0.012c-0.137,0.32 -0.382,0.554 -0.734,0.702c-0.099,0.023 -0.172,0.035 -0.219,0.035l-0.167,-0c-0.447,-0 -0.8,-0.246 -1.058,-0.737l-0.236,0c-0.029,-0.02 -0.079,-0.148 -0.149,-0.384l-0,-0.069l0.236,-0l-0.035,-0.362l0,-0.055c0.026,-0.288 0.049,-0.432 0.07,-0.432c0.112,-0.007 0.186,-0.01 0.219,-0.01l0,-0.022l-0.009,-0c-0.061,-0 -0.155,-0.004 -0.28,-0.012c0,-0.012 0.03,-0.027 0.088,-0.045c0.113,-0.367 0.288,-0.635 0.524,-0.804c0.092,0 0.171,-0.026 0.237,-0.079c0.157,-0.091 0.355,-0.136 0.595,-0.136Zm-1.514,1.029l0.026,0l0,0.035c-0.02,0.008 -0.032,0.012 -0.034,0.012l-0.01,-0.025c0.002,-0.014 0.008,-0.022 0.018,-0.022Zm1.155,0.397c0.058,0.005 0.087,0.017 0.087,0.034c-0,0.015 -0.006,0.023 -0.018,0.023l-0.078,-0c-0.012,-0 -0.017,-0.008 -0.017,-0.023c-0,-0.011 0.008,-0.023 0.026,-0.034Zm-0.114,0.012l0.018,-0c0.012,0.002 0.018,0.01 0.018,0.022l-0,0.023l-0.036,-0c-0.012,-0 -0.018,-0.008 -0.018,-0.023c0.002,-0.015 0.008,-0.022 0.018,-0.022Z" style="fill:#fff;fill-rule:nonzero;"/></g></g><defs><linearGradient id="_Linear1" x1="0" y1="0" x2="1" y2="0" gradientUnits="userSpaceOnUse" gradientTransform="matrix(1.30884e-15,21.375,-21.375,1.30884e-15,11.25,0.5625)"><stop offset="0" style="stop-color:#63236d;stop-opacity:1"/><stop offset="1" style="stop-color:#b794c0;stop-opacity:1"/></linearGradient></defs></svg>