<?xml version="1.0" encoding="UTF-8" standalone="no"?><!DOCTYPE svg PUBLIC "-//W3C//DTD SVG 1.1//EN" "http://www.w3.org/Graphics/SVG/1.1/DTD/svg11.dtd"><svg width="100%" height="100%" viewBox="0 0 125 125" version="1.1" xmlns="http://www.w3.org/2000/svg" xmlns:xlink="http://www.w3.org/1999/xlink" xml:space="preserve" xmlns:serif="http://www.serif.com/" style="fill-rule:evenodd;clip-rule:evenodd;stroke-linejoin:round;stroke-miterlimit:2;"><g><path d="M120.833,33.333c0,-16.097 -13.069,-29.166 -29.166,-29.166l-58.334,-0c-16.097,-0 -29.166,13.069 -29.166,29.166l-0,58.334c-0,16.097 13.069,29.166 29.166,29.166l58.334,0c16.097,0 29.166,-13.069 29.166,-29.166l0,-58.334Z" style="fill:url(#_Linear1);"/><text x="44.37px" y="38.109px" style="font-family:'DoctorGlitch', 'Doctor Glitch';font-size:9.387px;fill:#fff;">APPLE MUSIC</text><g><path d="M39.146,45.531c0.359,-0 1.177,0.019 2.456,0.057c1.307,1.913 2.035,2.9 2.184,2.961c0.143,-0 0.347,0.13 0.612,0.389l1.794,-0c0.072,0.011 0.108,0.049 0.108,0.115c-0,0.072 -0.036,0.108 -0.108,0.108l-0.174,-0c-0.082,-0 -0.157,-0.017 -0.223,-0.05c-0.06,0.033 -0.135,0.05 -0.223,0.05c-0.083,-0 -0.157,-0.017 -0.223,-0.05l-0.331,0.05l-0.339,-0l-0.108,-0.05l-0.058,0.108c0.441,0.59 1.522,2.136 3.242,4.639l-0.281,0.116c0.513,0.772 0.849,1.218 1.009,1.34l0.058,-0.282l-0,-0.281c-0,-0.22 -0.113,-0.479 -0.339,-0.777c0.187,-0.039 0.281,-0.077 0.281,-0.116c-0.188,-0.287 -0.281,-0.471 -0.281,-0.554c0.071,-0.039 0.126,-0.058 0.165,-0.058c-0.11,-0.138 -0.165,-0.267 -0.165,-0.388l-0,-2.969c-0.188,-0 -0.282,-0.017 -0.282,-0.05l-0.107,0.05c-0.077,-0 -0.116,-0.036 -0.116,-0.108l0,-0.058c0.011,-0.077 0.05,-0.115 0.116,-0.115l0.389,-0l-0,-1.001c-0.226,-0 -0.339,-0.039 -0.339,-0.116l-0,-2.795l0.057,-0.108c0.745,-0.038 1.304,-0.057 1.679,-0.057l2.01,-0c0.038,-0 0.058,0.019 0.058,0.057l0.115,-0.057c0.072,0.011 0.108,0.049 0.108,0.115l-0,2.903c0.243,-0 0.375,0.055 0.397,0.165l-0,0.786c-0,0.055 -0.058,0.11 -0.174,0.165l-0.331,0l0,0.174l0.331,0c0.055,0 0.113,0.055 0.174,0.165l-0,3.805l-0.397,0.223l-0,2.175c-0,0.049 -0.11,0.124 -0.331,0.223l0.05,0.397l-0,1.34c0.187,-0 0.281,0.036 0.281,0.107l-0,2.068l0.058,0.281l-0.116,0.058l-2.514,-0c-0.369,-0 -0.929,-0.02 -1.679,-0.058c-1.025,-1.582 -1.621,-2.401 -1.786,-2.456c-0.171,-0 -0.356,-0.207 -0.554,-0.621c-0.562,-0.722 -0.844,-1.13 -0.844,-1.223l0.166,-0l-0,-0.116l-1.563,-2.233c0.187,-0.039 0.281,-0.077 0.281,-0.116l-0.786,-1.116l0,-0.786c0,-0.209 -0.204,-0.582 -0.612,-1.116l-0.057,-0l-0,2.969l-0.331,0.223l-0,0.107l0.612,0c0.071,0.011 0.107,0.05 0.107,0.116l0,0.165c0,0.056 -0.055,0.111 -0.165,0.166l-0.554,-0l-0.058,0.67l-0,1.678l0.058,0.282c-0.088,0.071 -0.201,0.107 -0.339,0.107l-0,0.339l0.281,0.223l-0,1.903l0.058,0.33c-0.039,0.066 -0.058,0.141 -0.058,0.224l0.058,0.281l-0.116,0.058l-2.456,-0c-0.32,-0 -0.824,-0.02 -1.513,-0.058l-0.058,-0.108l-0,-0.058c-0,-0.038 0.019,-0.058 0.058,-0.058l-0.058,-0.107l-0,-2.407l-0.273,-0.223l-0,-0.223l0.273,-0.223l-0,-2.514c-0,-0.055 0.058,-0.113 0.173,-0.174l0.497,-0c0.077,-0 0.115,-0.036 0.115,-0.108l0,-0.165c0,-0.077 -0.038,-0.116 -0.115,-0.116l-0.555,0c-0.077,0 -0.115,-0.036 -0.115,-0.107c0.011,-0.077 0.049,-0.116 0.115,-0.116l0.282,0l-0,-0.107c-0,-0.127 0.016,-0.221 0.049,-0.282l-0.049,-0.281l0.049,-0.223c0,-0.039 -0.016,-0.058 -0.049,-0.058l0.049,-0.281l0,-0.108c0,-0.149 -0.016,-0.223 -0.049,-0.223l0.049,-0.397l0,-0.223c0,-0.485 -0.016,-1.117 -0.049,-1.894l0.049,-0.116l-0.049,-0.115c0.033,-0.298 0.088,-0.447 0.165,-0.447l0.504,-0c0.26,-0 0.668,-0.017 1.224,-0.05l0,-0.115l-0.049,-0c-0.276,-0 -0.483,-0.02 -0.62,-0.058c-0.243,0.038 -0.486,0.058 -0.728,0.058c-0.37,-0 -0.554,-0.13 -0.554,-0.389c-0.226,-0 -0.339,-0.055 -0.339,-0.166l-0,-2.745l0.058,-0.108c0.799,-0.038 1.359,-0.057 1.678,-0.057Zm-2.009,4.077l0.107,-0c0.077,0.016 0.116,0.055 0.116,0.115c0,0.083 -0.094,0.138 -0.281,0.166l-0.058,-0.108l0,-0.058c0.011,-0.077 0.05,-0.115 0.116,-0.115Zm10.056,-0l0.058,-0c0.077,0.016 0.115,0.055 0.115,0.115l0,0.058c0,0.072 -0.038,0.108 -0.115,0.108c-0.055,-0 -0.111,-0.055 -0.166,-0.166c0.011,-0.077 0.047,-0.115 0.108,-0.115Zm1.397,3.919c0.011,0.072 0.05,0.108 0.116,0.108l0,-0.108l-0.116,0Zm0.224,0.166l-0,0.116l0.058,-0l-0,-0.116l-0.058,-0Z" style="fill:#fff;fill-rule:nonzero;"/><path d="M61.078,45.531c1.284,-0 2.37,0.272 3.258,0.818c-0.066,0.033 -0.138,0.05 -0.215,0.05l-0,0.107c0.132,0 0.637,0.345 1.513,1.034c0.215,0 0.433,0.072 0.654,0.215l0.603,0l0.265,0.058l-0,0.058c-0,0.072 -0.036,0.107 -0.108,0.107l-0.273,0c-0.033,0 -0.049,-0.019 -0.049,-0.058c-0.061,0.039 -0.152,0.058 -0.273,0.058l-0,0.05c0.821,0.915 1.436,2.147 1.844,3.697l-0.157,0.107l-1.307,0l0,0.058c0.535,-0 0.844,0.016 0.927,0.05c0.06,-0.034 0.151,-0.05 0.272,-0.05l0.108,-0c0.143,-0 0.215,0.345 0.215,1.034c0.011,0.071 0.047,0.107 0.107,0.107l0.546,0c0.033,0 0.05,0.017 0.05,0.05l0.116,-0.05l0.049,0c0.221,0.022 0.331,0.075 0.331,0.157c0,1.208 -0.345,2.423 -1.034,3.647l-0.107,0.05l-1.034,-0l-0.223,0.165l-0.538,0c-0.071,0.011 -0.107,0.047 -0.107,0.108c0.397,-0 0.595,0.019 0.595,0.058c-0.843,1.389 -2.147,2.42 -3.911,3.093c-0.86,0.22 -1.641,0.33 -2.341,0.33l-0.595,0c-0.425,0 -0.714,-0.038 -0.868,-0.115c-0.072,0.038 -0.127,0.057 -0.166,0.057c-1.593,-0.27 -2.842,-0.796 -3.746,-1.579c-0.7,-0.59 -1.262,-1.185 -1.687,-1.786c-0.061,-0.039 -0.132,-0.058 -0.215,-0.058l-0.488,-0l0,-0.108l0.538,0c-0,-0.11 0.038,-0.165 0.115,-0.165l0.703,-0l0.273,-0.05c-0.562,-1.069 -0.871,-2.048 -0.926,-2.936l-0,-0.165l0.058,-0.107c0.033,-0 0.049,0.019 0.049,0.057c0.546,-0.038 0.946,-0.057 1.2,-0.057l0.81,-0l0,-0.058c0,-0.072 -0.036,-0.108 -0.107,-0.108l-1.952,0c-0.044,0 -0.135,-0.127 -0.273,-0.38l-0.926,-0c-0.072,-0 -0.108,-0.036 -0.108,-0.108c0,-0.071 0.146,-0.127 0.439,-0.165l-0,-0.215c-0.039,-0 -0.094,-0.017 -0.166,-0.05c-0.072,0.033 -0.127,0.05 -0.165,0.05c-0.033,-0.072 -0.05,-0.127 -0.05,-0.166c0.105,-1.257 0.574,-2.522 1.406,-3.795c0.32,-0.436 0.612,-0.654 0.877,-0.654c0.468,0 0.703,-0.055 0.703,-0.165c-0.122,-0.072 -0.229,-0.108 -0.323,-0.108l-0.058,0l-0.273,0.05l-0.049,-0.107l0.049,-0.108c-0.143,0 -0.215,-0.036 -0.215,-0.107c0.27,-0.237 0.778,-0.582 1.522,-1.034l0.595,-0c0.971,-0.579 2.385,-0.868 4.243,-0.868Zm-4.516,6.789l0,0.107l0.331,0.224l0,0.107c0,0.072 -0.038,0.108 -0.116,0.108l-0.264,-0l-0,0.165l0.976,0c0.06,0 0.115,0.127 0.165,0.381c0.777,0.033 1.356,0.049 1.737,0.049l0.43,0l-0,0.108c-0,0.077 -0.036,0.115 -0.108,0.115c-0.066,-0.038 -0.118,-0.057 -0.157,-0.057c-0.039,-0 -0.058,0.019 -0.058,0.057l-0.273,-0.057c-0.132,-0 -0.639,0.019 -1.521,0.057l-0,0.265c0.176,0.888 0.628,1.687 1.356,2.398c0.402,0.276 0.603,0.439 0.603,0.488l-0.107,0.05l-0.761,-0l0.05,0.107l-0,0.058l-0.323,0l0,0.108l0.654,-0c0.645,0.182 1.077,0.273 1.298,0.273c0.209,-0 0.554,-0.055 1.034,-0.166c-0,-0.071 -0.036,-0.107 -0.108,-0.107l-0.273,-0l0,-0.108l0.596,0c0.038,0 0.292,-0.055 0.76,-0.165l0.546,-0c0.083,-0 0.155,-0.017 0.215,-0.05c0.072,0.033 0.127,0.05 0.166,0.05c0.711,-0.303 1.345,-0.973 1.902,-2.01c0.215,-0.727 0.322,-1.144 0.322,-1.248l0,-0.439c0,-0.06 -0.179,-0.113 -0.537,-0.157l-0.108,0.05l-0.38,-0c-0.149,-0 -0.224,-0.361 -0.224,-1.084l-0.264,-0.057l-1.853,-0l0,-0.108c0.546,-0.033 0.946,-0.05 1.2,-0.05l0.81,0l-0,-0.057c-0.342,-0.965 -0.885,-1.707 -1.629,-2.225c-0.822,-0.507 -1.491,-0.761 -2.01,-0.761c-1.516,0 -2.748,0.778 -3.696,2.332c-0.254,0.64 -0.381,1.056 -0.381,1.249Zm-3.746,1.141l0.596,0c0.071,0.011 0.107,0.047 0.107,0.108l-0.107,0.058l-0.596,-0l0,-0.166Zm13.364,0.223l-0.05,0.108l0,0.05l0.05,-0c0,-0.072 0.036,-0.108 0.108,-0.108l-0,-0.05l-0.108,0Zm-6.682,0.811l0.058,-0c0.072,0.011 0.107,0.047 0.107,0.107l0,0.166c0,0.071 -0.035,0.107 -0.107,0.107l-0.058,0c-0.072,0 -0.107,-0.036 -0.107,-0.107l-0,-0.166c0.011,-0.071 0.046,-0.107 0.107,-0.107Zm-6.359,0.595l0.33,0l0.05,0.273l-0.157,0.108l-0.165,-0c-0.072,-0 -0.127,-0.108 -0.166,-0.323l0.108,-0.058Z" style="fill:#fff;fill-rule:nonzero;"/><path d="M67.239,45.506l4.027,-0c0.099,-0 0.248,0.485 0.446,1.455c0.078,0.557 0.246,0.835 0.505,0.835c0.149,0 0.223,0.169 0.223,0.505c-0.055,0.038 -0.168,0.058 -0.339,0.058l0.844,3.415c0.126,0.634 0.295,0.951 0.504,0.951l0,0.331c0,0.077 -0.038,0.116 -0.116,0.116l-0.388,-0l0.058,0.388l0.611,0c0.078,0 0.116,-0.035 0.116,-0.107c-0.038,-0.066 -0.058,-0.141 -0.058,-0.223l0.116,-0.058l0.496,-0c0,-0.033 0.039,-0.182 0.116,-0.447l0,-0.058c-0.038,0 -0.094,-0.019 -0.165,-0.058c0.557,-1.891 0.909,-3.178 1.058,-3.862c0.094,-0.297 0.188,-0.446 0.281,-0.446l0.116,0.058c0.133,-0 0.226,-0.149 0.281,-0.447c-0.088,-0.077 -0.22,-0.116 -0.397,-0.116l0,-0.057c0.414,-1.39 0.621,-2.134 0.621,-2.233l3.911,-0c0.099,-0 0.268,0.595 0.505,1.786c0.099,0.375 0.286,0.562 0.562,0.562c0.077,0 0.116,0.094 0.116,0.282l-0,0.107c-0,0.077 -0.094,0.116 -0.281,0.116l-0,0.107c0.187,0.871 0.579,2.252 1.174,4.143c0.149,0.05 0.223,0.218 0.223,0.505l-0.116,0.058l-0.388,-0l-0,0.116c0.077,0.088 0.116,0.179 0.116,0.272l0.388,0l0.281,-0.049l-0.058,-0.281l0,-0.058l0.34,-0c0.22,-0 0.33,-0.149 0.33,-0.447c-0.071,-0.094 -0.107,-0.149 -0.107,-0.165l0.785,-2.911l0.894,-3.473l0.057,-0c-0.038,-0.072 -0.057,-0.127 -0.057,-0.166c0.099,-0.336 0.173,-0.504 0.223,-0.504l0.223,-0c0.077,0.011 0.116,0.047 0.116,0.107c0.121,-0.071 0.231,-0.107 0.331,-0.107l3.473,-0c-0,0.259 -0.039,0.388 -0.116,0.388c0,0.039 0.02,0.058 0.058,0.058l-1.844,6.657c0.072,0.011 0.107,0.05 0.107,0.116l0,0.281c-0.038,0.111 -0.148,0.166 -0.33,0.166l-0.281,-0.058c-0.089,0.298 -0.163,0.446 -0.224,0.446l-0.785,0c-0.078,0.011 -0.116,0.05 -0.116,0.116c-0,0.072 0.207,0.127 0.62,0.166l0,0.115l-0.058,0.108l0.116,0.058l0.728,-0l0.273,-0.058l0.057,0.116l0,0.107c0,0.077 -0.148,0.135 -0.446,0.174c-0,0.072 -0.075,0.389 -0.223,0.951l0.339,0.107c-0.078,0.16 -0.414,1.373 -1.009,3.639l-0.174,0.116c-0.072,-0.039 -0.127,-0.058 -0.165,-0.058c-0,0.039 -0.02,0.058 -0.058,0.058l0.058,0.107c-0.155,0.822 -0.265,1.233 -0.331,1.233l-0.232,0.057l-0.107,-0.057l-0.339,0.057l-0.108,0c-0.038,0 -0.058,-0.019 -0.058,-0.057l-0.115,0.057l-2.456,0c-0.32,0 -0.563,-0.035 -0.728,-0.107c-0.066,0.033 -0.141,0.05 -0.223,0.05l-0.116,-0c-0.111,-0 -0.259,-0.428 -0.447,-1.282l-0.165,-0l-0,-0.116l0.331,-0c-0,-0.176 -0.298,-1.425 -0.894,-3.746l-0.281,-0c-0.11,-0 -0.223,-0.337 -0.339,-1.009l0.116,-0.058l0.107,0.058l0.058,-0.116l0,-0.058c0,-0.083 -0.204,-0.138 -0.612,-0.165c-0.198,0.038 -0.386,0.058 -0.562,0.058c-0.05,-0.265 -0.179,-0.397 -0.389,-0.397l-0.115,0.058c-0.061,-0.039 -0.155,-0.058 -0.282,-0.058l0,-0.108c0.011,-0.077 0.05,-0.116 0.116,-0.116l0.612,0l0.116,-0.049l-0.058,-0.281l0,-0.058l0.505,-0c-0,-0.259 -0.056,-0.463 -0.166,-0.612c0.072,-0.094 0.108,-0.171 0.108,-0.232l-0.058,-0.107c0.154,-0.364 0.231,-0.626 0.231,-0.786c-0.182,-0.744 -0.314,-1.116 -0.397,-1.116c-0.303,1.058 -0.49,1.841 -0.562,2.348c0.077,0.011 0.116,0.05 0.116,0.116c-0,0.298 -0.243,0.447 -0.728,0.447c0,0.22 -0.039,0.33 -0.116,0.33l-0.777,0c-0.077,0.011 -0.116,0.05 -0.116,0.116l0,0.108l0.505,-0c0.077,0.016 0.115,0.055 0.115,0.115l0,0.116l-0.058,0.108l1.059,-0c0.077,0.011 0.116,0.049 0.116,0.116l-0,0.049c-0,0.072 -0.168,0.13 -0.505,0.174c0,0.22 -0.055,0.537 -0.165,0.951l0.281,0.107l-1.232,4.871c-0,0.188 -0.074,0.281 -0.223,0.281l-0.282,-0.057c-0.038,-0 -0.096,0.019 -0.173,0.057c-0.37,-0.038 -0.648,-0.057 -0.835,-0.057l-0.505,0.057c-0.072,-0.038 -0.127,-0.057 -0.165,-0.057c-0.149,0.038 -0.281,0.057 -0.397,0.057c-0.072,0 -0.108,-0.019 -0.108,-0.057l-0.339,0.057c-0.259,0 -0.799,-0.019 -1.621,-0.057l-0.785,-2.738c0.038,-0.077 0.058,-0.135 0.058,-0.173c-0.193,-0.304 -0.417,-1.048 -0.67,-2.233l-0.339,-0c-0.044,-0 -0.157,-0.337 -0.339,-1.009c0.226,-0.05 0.339,-0.108 0.339,-0.174c-0,-0.11 -0.392,-0.165 -1.175,-0.165c-0.077,-0.226 -0.17,-0.339 -0.281,-0.339c-0.198,0.038 -0.311,0.058 -0.339,0.058c-0.06,-0.039 -0.135,-0.058 -0.223,-0.058l-0,-0.108c0.011,-0.077 0.05,-0.116 0.116,-0.116l0.612,0c0.077,0 0.115,-0.035 0.115,-0.107l0,-0.116l-0.057,-0.107l0.115,-0.058l0.389,-0l-0,-0.224c-0,-0.132 -0.113,-0.281 -0.339,-0.446l-1.059,-4.085c0.011,-0.078 0.047,-0.116 0.108,-0.116c0.072,0.038 0.129,0.058 0.174,0.058l0.049,-0.116c0,-0.066 -0.055,-0.215 -0.165,-0.447l-0.281,0c-0.133,-0.104 -0.356,-0.851 -0.67,-2.241l0.116,-0.049Zm-0.116,2.348l0.165,0c0.116,0.039 0.174,0.152 0.174,0.339c-0,0.072 -0.039,0.108 -0.116,0.108l-0.107,-0c-0.078,-0 -0.155,-0.13 -0.232,-0.389l0.116,-0.058Zm11.809,4.201l-0,0.108l0.058,-0l-0,-0.108l-0.058,0Zm-0.108,0.108l0,0.116l0.058,-0l0,-0.116l-0.058,-0Zm-6.723,1.455c0.039,0.072 0.058,0.127 0.058,0.166l0.67,-0l-0,-0.108c-0,-0.077 -0.036,-0.116 -0.108,-0.116l-0.504,0l-0.116,0.058Zm8.965,0.058c0.011,0.072 0.046,0.108 0.107,0.108l0.62,-0l0,-0.224l-0.62,0c-0.072,0.011 -0.107,0.05 -0.107,0.116Zm-13.555,-0.116l0.058,0.116l0,0.108l-0.165,-0l-0,-0.108c0.011,-0.077 0.047,-0.116 0.107,-0.116Zm5.376,0.224l-0,0.231c0.011,0.072 0.049,0.108 0.116,0.108l0.33,-0l0.281,-0.058l0,-0.05c0,-0.116 -0.148,-0.193 -0.446,-0.231l-0.108,0.058c-0.077,-0.039 -0.135,-0.058 -0.173,-0.058Zm9.072,-0l-0.058,0.115l-0,0.116c0.011,0.072 0.049,0.108 0.116,0.108l0.446,-0c0.055,-0 0.11,-0.055 0.165,-0.166c-0.148,-0.115 -0.372,-0.173 -0.669,-0.173Zm-7.84,0.397c-0,0.11 -0.094,0.22 -0.281,0.33c0.143,0.64 0.275,0.96 0.397,0.96l0.107,-0l0.281,-1.067c0.149,-0 0.224,-0.039 0.224,-0.116l-0,-0.107l-0.728,-0Zm8.733,0.223c0.11,0.711 0.259,1.067 0.446,1.067c0.204,-0.634 0.337,-0.99 0.397,-1.067c0.072,-0 0.108,-0.039 0.108,-0.116l-0,-0.107l-0.554,-0c-0.1,0.149 -0.232,0.223 -0.397,0.223Zm-8.394,1.116c0.039,0.055 0.058,0.169 0.058,0.339c0.11,-0.038 0.165,-0.151 0.165,-0.339l0,-0.049l-0.115,-0l-0.108,0.049Zm9.014,0.058c0.011,0.077 0.047,0.116 0.108,0.116l0.057,0c0,-0.044 0.02,-0.102 0.058,-0.174l-0.115,-0.049c-0.072,0.011 -0.108,0.047 -0.108,0.107Z" style="fill:#fff;fill-rule:nonzero;"/><path d="M13.279,64.253c0.06,0.039 0.132,0.058 0.215,0.058l0.165,0c0.794,0 1.32,0.091 1.58,0.273l0.322,-0c0.11,-0 0.582,0.179 1.414,0.537l0.546,0c0.055,0 0.11,0.056 0.165,0.166c-0.038,0.038 -0.184,0.058 -0.438,0.058c0.656,0.579 0.984,0.904 0.984,0.976l0,0.057c-0.016,0.061 -0.708,0.731 -2.075,2.01l-0.761,0c-0.739,-0.711 -1.301,-1.092 -1.687,-1.141l-0.05,-0c-0.728,-0 -1.092,0.146 -1.092,0.438c-0.154,0 -0.245,0.254 -0.272,0.761l0.057,0.273l0.488,-0c0.122,-0 0.284,0.091 0.488,0.273c0.254,0.049 0.381,0.121 0.381,0.215l-0.05,0.107l0.108,0.058l1.306,0l0,0.166l-1.091,-0l-0,0.049c0.011,0.099 0.391,0.281 1.141,0.546c1.439,0.424 2.583,1.006 3.432,1.745c-0,0.044 0.182,0.262 0.546,0.653c-0.436,0.033 -0.654,0.086 -0.654,0.157c0.083,0 0.138,0.091 0.166,0.273l0.653,0c0.099,0 0.207,0.218 0.322,0.653l-0.107,0.058l-0.546,0c-0.072,0.011 -0.107,0.047 -0.107,0.108l0.711,-0c0.049,-0 0.102,0.055 0.157,0.165l-0,0.108c-0,0.071 -0.036,0.107 -0.108,0.107l-0.545,0l-0,0.058c-0,0.188 0.019,0.496 0.058,0.926c-0,0.601 -0.218,1.31 -0.654,2.126c-0.071,0.011 -0.107,0.047 -0.107,0.107l-0,0.108l0.761,-0c0.071,0.011 0.107,0.047 0.107,0.107c-0.044,0 -0.278,0.237 -0.703,0.711c-0.948,0.723 -2.238,1.084 -3.87,1.084l-0.05,-0c-2.001,-0 -3.636,-0.618 -4.904,-1.853c-0.942,-0.06 -1.414,-0.259 -1.414,-0.595c-0.347,-0.314 -0.529,-0.604 -0.546,-0.868c0.541,-0.359 0.957,-0.612 1.249,-0.761l0.223,0.049c0.105,-0.027 0.632,-0.336 1.58,-0.926l0.653,0c0.061,0 0.259,0.273 0.596,0.819l-0,0.107l-0.166,0l0,0.108c0.618,0.546 1.235,0.819 1.853,0.819c0.942,-0.155 1.414,-0.61 1.414,-1.365c-0,-0.116 -0.091,-0.369 -0.273,-0.761l0.546,0l-0,-0.049c-0.094,-0.182 -0.237,-0.273 -0.43,-0.273l-0.546,-0c-0.154,-0 -0.356,-0.02 -0.604,-0.058l-0.107,0.058c-0.072,-0.039 -0.127,-0.058 -0.166,-0.058l0,-0.108l0.058,0c0.099,0 0.463,-0.019 1.092,-0.058l-0,-0.107l-1.53,-0.488c-0.11,0 -0.237,-0.019 -0.381,-0.058c-0.06,0.039 -0.132,0.058 -0.215,0.058c-0.231,-0.11 -0.559,-0.22 -0.984,-0.331l0,-0.107l0.389,-0l0,-0.108c-1.125,-0.419 -1.888,-0.981 -2.291,-1.687c-0.275,-0.375 -0.438,-0.791 -0.488,-1.248l0.108,-0.058l0.215,-0c0.039,-0 0.058,0.019 0.058,0.058c0.055,-0.039 0.162,-0.058 0.322,-0.058l0,-0.108l-0.703,0l0,-0.107c0.182,-0 0.273,-0.036 0.273,-0.108l-0.38,-0.223c-0.055,-0.144 -0.11,-0.215 -0.165,-0.215l-0.604,-0l-0,-0.438c-0,-1.136 0.526,-2.134 1.579,-2.994l0.166,-0c0.038,-0 0.058,0.019 0.058,0.058l0.107,-0.058l0.108,0.058c0.22,-0.039 0.33,-0.094 0.33,-0.166l-0.115,-0.058l-0.323,0l0,-0.049c0.469,-0.27 0.703,-0.433 0.703,-0.488c0,-0.105 0.436,-0.196 1.307,-0.273l0.818,0c0.083,0 0.157,-0.019 0.224,-0.058Zm-3.159,5.119l-0,0.108l0.049,-0l0,-0.108l-0.049,0Zm0.157,0l-0,0.108l0.165,-0c0,-0.072 -0.036,-0.108 -0.107,-0.108l-0.058,0Zm-2.39,0l0.107,0l0,0.108l-0.107,-0l-0,-0.108Zm0.273,0l0.157,0l-0,0.108l-0.157,-0l-0,-0.108Zm4.192,4.3l0.538,0l-0,0.166l-0.38,-0.058l-0.158,-0l0,-0.108Zm-1.637,0.976l0,0.116l0.058,-0l-0,-0.116l-0.058,0Z" style="fill:#fff;fill-rule:nonzero;"/><path d="M20.763,64.295l9.303,-0c0.083,-0 0.157,0.019 0.223,0.057c0.067,-0.038 0.141,-0.057 0.224,-0.057c0.077,0.093 0.116,0.168 0.116,0.223l-0.058,0.116c0.038,0.193 0.113,0.341 0.223,0.446l-0,2.117l-0.058,0.108l-0.281,-0.05l-1.166,0l-0.339,0.05c-0.061,-0.033 -0.152,-0.05 -0.273,-0.05l-0.389,0.05c-0.066,-0.033 -0.14,-0.05 -0.223,-0.05l-0.116,0.05c-0.038,-0 -0.058,-0.017 -0.058,-0.05l-0.273,0.05l-0.562,-0l-0,1.951c-0,0.078 -0.149,0.135 -0.447,0.174c0,0.143 -0.035,0.215 -0.107,0.215l-0.505,0c-0.071,0.017 -0.107,0.055 -0.107,0.116c0.011,0.071 0.047,0.107 0.107,0.107l0.563,0l0.107,0.058l-0.058,0.281l0,0.505l0.339,0.223c0,0.072 -0.223,0.127 -0.669,0.166l-0,3.283c-0,0.104 -0.188,0.179 -0.563,0.223l0,0.058l0.844,-0c0.22,0.099 0.331,0.173 0.331,0.223l-0,4.408c-0,0.071 -0.036,0.107 -0.108,0.107l-2.233,0c-0.375,0 -0.931,-0.019 -1.67,-0.058c-0.039,-0.683 -0.058,-1.185 -0.058,-1.505l-0,-3.01c-0.336,-0.072 -0.505,-0.146 -0.505,-0.223l-0.107,0.058l-0.505,-0l0,-0.058c0.012,-0.072 0.05,-0.108 0.116,-0.108l0.273,0.058c0.072,-0.038 0.13,-0.058 0.174,-0.058l-0,-3.349c0.011,-0.072 0.047,-0.107 0.107,-0.107l0.505,-0l-0,-0.224c-0.188,0 -0.281,-0.036 -0.281,-0.107l-0,-0.728c-0,-0.077 -0.039,-0.116 -0.116,-0.116l-0.496,0c-0.078,0 -0.116,-0.036 -0.116,-0.107c0.011,-0.077 0.05,-0.116 0.116,-0.116l0.496,0l0.223,-0.273l0.281,0l0.058,-0.504c0,-0.072 -0.019,-0.108 -0.058,-0.108l0.058,-0.281l0,-0.893c0,-0.16 -0.074,-0.27 -0.223,-0.331c-0.039,0 -0.058,0.017 -0.058,0.05l-0.281,-0.05l-3.225,0c-0.078,0 -0.116,-0.039 -0.116,-0.116l-0,-2.117c-0.149,0 -0.223,-0.036 -0.223,-0.107l-0,-0.058c-0,-0.083 0.019,-0.157 0.057,-0.223c-0.038,-0.067 -0.057,-0.141 -0.057,-0.224c0.038,0 0.057,-0.019 0.057,-0.058c0.8,-0.038 1.395,-0.057 1.787,-0.057Zm0.496,5.35l0.116,0c0.071,0.017 0.107,0.055 0.107,0.116c0,0.071 -0.036,0.107 -0.107,0.107l-0.116,0c-0.072,0 -0.108,-0.036 -0.108,-0.107c0.011,-0.077 0.047,-0.116 0.108,-0.116Zm1.563,4.408l-0,0.107l0.058,0l-0,-0.107l-0.058,-0Z" style="fill:#fff;fill-rule:nonzero;"/><path d="M31.183,64.278c0.071,-0 0.107,0.019 0.107,0.058c0.562,-0.039 0.976,-0.058 1.241,-0.058l3.919,-0c1.423,-0 2.377,0.13 2.862,0.389c0.336,0.099 0.543,0.212 0.62,0.339c-0.039,0.066 -0.058,0.14 -0.058,0.223c0.584,0.281 1.089,0.899 1.513,1.852c0.265,0.794 0.397,1.392 0.397,1.795c0,0.138 -0.055,0.587 -0.165,1.348c0.22,-0 0.331,0.039 0.331,0.116c-0.425,1.163 -1.097,2.023 -2.018,2.58l-0.844,0.331l0,0.058c0.089,0.082 0.295,0.383 0.621,0.901c-0.122,0.072 -0.215,0.107 -0.282,0.107l0.058,0.116l0,0.058c-0.678,0.033 -1.127,0.05 -1.348,0.05l0,0.058c0.011,0.077 0.05,0.115 0.116,0.115l1.398,0l0.504,0.612c0.37,0 0.612,0.188 0.728,0.563l-0,0.058c-0.187,-0 -0.281,0.038 -0.281,0.115c1.163,1.671 1.745,2.531 1.745,2.58c-0.149,0.028 -0.224,0.064 -0.224,0.108c0.26,0.391 0.389,0.617 0.389,0.678l-0.107,0.05l-2.812,-0c-0.314,-0 -0.819,-0.017 -1.513,-0.05c-0.298,-0.424 -0.447,-0.65 -0.447,-0.678c0.061,-0.039 0.154,-0.058 0.281,-0.058l0,-0.05c-1.086,-1.648 -1.629,-2.547 -1.629,-2.695l0.223,-0l0,-0.116c-0.115,-0.37 -0.339,-0.554 -0.67,-0.554c-0.292,-0.375 -0.518,-0.563 -0.678,-0.563l-1.009,0l0,0.282c0,0.033 -0.016,0.049 -0.049,0.049l0.049,0.116l0,2.58l0.621,0c0.077,0.011 0.115,0.05 0.115,0.116c0,0.072 -0.038,0.107 -0.115,0.107l-0.621,0c0,0.188 -0.016,0.282 -0.049,0.282l0.049,0.115l0,0.67c0,0.083 -0.016,0.157 -0.049,0.223c0.033,0.072 0.049,0.13 0.049,0.174l-0.107,0.05l-2.299,-0c-0.375,-0 -0.937,-0.017 -1.687,-0.05l-0,-1.348c0.011,-0.077 0.05,-0.116 0.116,-0.116l0.612,0l-0,-0.165l-0.612,-0c-0.078,-0 -0.116,-0.039 -0.116,-0.116l-0,-2.911l-0.281,-0.058l-1.117,0c-0.077,0 -0.115,-0.038 -0.115,-0.115l0.115,-0.058c0.932,-0.017 1.398,-0.053 1.398,-0.108c-0,-0.116 0.038,-0.173 0.116,-0.173c0.071,0.038 0.126,0.057 0.165,0.057l0.058,-0.107l-0,-3.821c0.011,-0.071 0.047,-0.107 0.107,-0.107l0.282,-0l0.058,-0.339c-0.072,-0.039 -0.127,-0.058 -0.166,-0.058c-0.331,0.038 -0.518,0.058 -0.562,0.058c-0,-0.298 -0.149,-0.447 -0.447,-0.447l0,-0.281l0.389,-0.223l-0,-3.763l0.339,-0.223l-0,-0.563c0.011,-0.071 0.047,-0.107 0.107,-0.107l0.397,-0c0.127,-0 0.221,-0.019 0.282,-0.058Zm2.968,2.977c0,0.033 -0.016,0.05 -0.049,0.05c0.033,0.375 0.049,0.656 0.049,0.843l0,0.339c0,0.039 -0.016,0.058 -0.049,0.058l0.049,0.108l0,0.058c0,0.336 -0.148,0.504 -0.446,0.504l-0,0.339c0.298,0.022 0.446,0.077 0.446,0.165l-0.049,0c0.033,0.072 0.049,0.127 0.049,0.166l1.348,-0l0,0.116l-0.504,-0l-0.223,0.281l-0.282,-0l0,0.562l1.737,0c0.755,0 1.263,-0.187 1.522,-0.562c0.369,-0 0.554,-0.133 0.554,-0.397l-0.505,-0l-0.107,-0.05c0.072,-0.259 0.107,-0.485 0.107,-0.678l0,-0.446c0,-0.392 -0.336,-0.822 -1.009,-1.291c-0.082,-0.077 -0.454,-0.132 -1.116,-0.165l-0.116,0.05l-0.116,-0.05c-0.033,0 -0.049,0.017 -0.049,0.05c-0.132,-0.033 -0.21,-0.05 -0.232,-0.05c-0.325,0.033 -0.51,0.05 -0.554,0.05c-0.209,-0.033 -0.361,-0.05 -0.455,-0.05Zm-3.192,2.688l0,0.058l0.108,-0l-0,-0.058l-0.108,-0Zm0.281,-0l0,0.058l0.108,-0l-0,-0.058l-0.108,-0Zm10.602,-0.058l0.166,-0l-0,0.116l-0.166,-0l0,-0.116Zm0.389,-0l0.174,-0l-0,0.116l-0.174,-0l-0,-0.116Zm0.281,-0l0.505,-0l-0,0.116l-0.505,-0l0,-0.116Zm-8.187,4.432l-0.116,-0.057c0,0.077 -0.036,0.115 -0.107,0.115c0.033,0.072 0.049,0.127 0.049,0.166c0.375,-0.033 0.656,-0.05 0.844,-0.05l0.058,0l0.107,0.05l0.232,-0.389c-0.149,-0.336 -0.243,-0.504 -0.281,-0.504l-0.505,-0c-0.077,-0 -0.135,0.223 -0.173,0.669l-0.108,0Zm-1.687,0.224l0,0.058c0.011,0.077 0.05,0.115 0.116,0.115l1.009,0c0.071,0 0.107,-0.038 0.107,-0.115l0,-0.058l-1.232,-0Zm4.491,4.209l0.107,-0c0,0.061 0.039,0.135 0.116,0.223l-0,0.116c-0.05,-0.005 -0.124,-0.099 -0.223,-0.281l-0,-0.058Zm0.388,0.562l0.058,0l0,0.116l-0.058,0l0,-0.116Z" style="fill:#fff;fill-rule:nonzero;"/><path d="M44.439,64.278l7.955,-0c0.05,-0 0.105,0.055 0.166,0.165l-0,1.911c-0,0.049 0.055,0.104 0.165,0.165l0.223,0c0.089,0 0.166,-0.019 0.232,-0.058c0.182,0.05 0.273,0.105 0.273,0.166l-0,0.115c-0,0.072 -0.036,0.108 -0.108,0.108l-0.281,-0l0,0.281c0,0.077 -0.038,0.116 -0.116,0.116l-3.861,-0c-0.392,-0 -0.987,0.019 -1.787,0.058l0,0.504c0.011,0.072 0.047,0.108 0.108,0.108l0.504,-0c0.077,0.011 0.116,0.049 0.116,0.115l-0,2.407l4.871,-0c0.072,0.011 0.107,0.047 0.107,0.107l0,0.844c0,0.072 -0.204,0.127 -0.612,0.165l-0.115,-0.058l-0.331,0.058c-0.077,-0.038 -0.135,-0.058 -0.174,-0.058l-0.058,0.282l0,0.951l0.058,0.562l-0.165,0.116l-4.764,-0c0,0.127 -0.129,0.201 -0.388,0.223l-0.339,-0.058l-0.108,0c-0.077,0.011 -0.116,0.05 -0.116,0.116l0,0.05l0.339,-0l0.563,0.057l-0,1.853c-0,0.198 0.11,0.309 0.331,0.331c-0,0.082 0.019,0.157 0.057,0.223c-0.038,0.066 -0.057,0.141 -0.057,0.223l-0,0.058l5.325,0c0.072,0 0.127,0.188 0.166,0.562l0.835,0c0.077,0.011 0.116,0.047 0.116,0.108c-0,0.077 -0.039,0.116 -0.116,0.116l-0.612,-0l-0.281,0.058l-0,2.125l-9.18,-0c-0.038,-0 -0.057,-0.019 -0.057,-0.058l-0.116,0.058l-0.331,-0c-0.055,-0 -0.113,-0.055 -0.174,-0.165l0,-0.116c0,-0.039 0.02,-0.058 0.058,-0.058l-0.058,-0.108l0,-1.348l-0.281,-0.049l-0.496,-0c-0.077,-0 -0.116,-0.039 -0.116,-0.116l0,-0.116c0.011,-0.071 0.05,-0.107 0.116,-0.107c0.623,-0.039 1.108,-0.058 1.455,-0.058l0.224,-0l-0,-0.108l-0.563,-0.058l-0.223,0c-0.077,0 -0.116,-0.055 -0.116,-0.165l0.058,-0.116c-0.038,-0.066 -0.058,-0.14 -0.058,-0.223c0,-0.05 0.113,-0.105 0.339,-0.165c0.039,-0.067 0.058,-0.144 0.058,-0.232c0,-0.16 -0.132,-0.251 -0.397,-0.273l0,-1.91l0.058,-0.108l-0.107,-0.058l-0.728,0c-0.077,0 -0.116,-0.035 -0.116,-0.107c0.011,-0.077 0.05,-0.116 0.116,-0.116l0.67,0c0.071,0 0.107,-0.038 0.107,-0.116l0,-1.844c0,-0.077 0.058,-0.116 0.174,-0.116c0.116,0 0.469,-0.016 1.058,-0.049l0,-3.416c0,-0.115 -0.203,-0.173 -0.611,-0.173l-0.116,-0l-0,-0.893l0.397,-0.224l-0,-0.115c-0,-0.072 -0.039,-0.108 -0.116,-0.108l-0.67,0c-0.077,0 -0.116,-0.039 -0.116,-0.116l0,-1.96l0.058,-0.107c0.75,-0.039 1.31,-0.058 1.679,-0.058Zm-2.125,6.723l0.281,0c0.071,0.011 0.107,0.047 0.107,0.108l0,0.281c0,0.072 -0.036,0.107 -0.107,0.107l-0.281,0c-0.078,0 -0.116,-0.035 -0.116,-0.107l-0,-0.281c0.016,-0.072 0.055,-0.108 0.116,-0.108Zm2.017,6.211l0.505,-0l-0,-0.108l-0.397,0c-0.072,0.011 -0.108,0.047 -0.108,0.108Zm6.046,0.058l-0,0.223c0.011,0.077 0.049,0.116 0.115,0.116l0.778,-0c-0,-0.044 0.019,-0.102 0.058,-0.174c-0.039,-0.072 -0.058,-0.127 -0.058,-0.165l-0.893,-0Z" style="fill:#fff;fill-rule:nonzero;"/><path d="M57.166,64.286l3.3,0c0.066,0.011 0.366,0.794 0.901,2.349l0.165,0.107l0.563,0c0.099,0.078 0.546,1.274 1.339,3.589l0.397,1.117l-0.115,0.058l-1.29,-0l-0,0.058c-0,0.198 0.113,0.308 0.339,0.33l0.339,-0.049l0.049,-0c0.16,0.082 0.684,1.499 1.572,4.25l-0.116,0.058c-0.127,-0.038 -0.201,-0.058 -0.224,-0.058c-0.033,0 -0.049,0.02 -0.049,0.058l-0.397,-0.058l-0.281,0c-0.072,0.011 -0.108,0.05 -0.108,0.116c0.199,0.596 0.328,0.893 0.389,0.893l1.125,0c0.071,0.011 0.107,0.05 0.107,0.116l0,0.05c0,0.077 -0.036,0.115 -0.107,0.115l-1.233,0c-0.088,0 -0.162,-0.019 -0.223,-0.057c-0.066,0.038 -0.143,0.057 -0.231,0.057l-1.175,0l-0.388,-0.057l-0.058,0.115c0.011,0.072 0.049,0.108 0.116,0.108l3.357,-0c0.11,-0 0.353,0.617 0.728,1.852l-0,0.058l-4.201,0c-0.061,0 -0.284,-0.637 -0.67,-1.91l-2.969,-0c-0.083,-0 -0.157,-0.017 -0.223,-0.05c-0.066,0.033 -0.141,0.05 -0.224,0.05c-0.077,-0 -0.115,-0.036 -0.115,-0.108c0.038,0 0.058,-0.019 0.058,-0.058c0.689,-0.038 1.193,-0.057 1.513,-0.057l1.794,-0c0.072,-0 0.108,-0.036 0.108,-0.108l-0.165,-0.116l-1.125,0c-0.044,0 -0.154,-0.168 -0.331,-0.504l-0.446,-0l-0,0.058c-0,0.033 0.016,0.182 0.049,0.446l-0.504,0c-0.039,0 -0.168,-0.168 -0.389,-0.504l-3.25,-0c-0.215,-0 -0.345,0.149 -0.389,0.446l0.108,0.058l0.951,0c0.077,0.011 0.116,0.05 0.116,0.116l-0,0.05l-0.728,2.191l-4.259,0l0,-0.058l0.786,-2.241l-1.679,-0.058c-0.077,0 -0.116,-0.036 -0.116,-0.107c0.188,-0.601 0.32,-0.902 0.397,-0.902l1.513,0c0.271,0 0.455,-0.317 0.555,-0.951c0.066,-0.005 0.253,-0.471 0.562,-1.397l0.62,-1.795l0,-0.058l-0.562,0c-0.077,-0.347 -0.091,-0.468 -0.042,-0.363c-0.049,-0.056 0.45,-0.083 1.497,-0.083c0.055,-0.011 0.353,-0.775 0.893,-2.291l0.786,-2.299l-0,-0.058l-0.281,0l-0,-0.058c0.281,-0.953 0.581,-1.756 0.901,-2.406l0.67,-0.05Zm1.795,4.871c-0.403,1.566 -0.684,2.349 -0.844,2.349l-1.29,-0c-0.072,-0 -0.127,0.113 -0.165,0.339l0.339,-0c0.22,0.022 0.33,0.077 0.33,0.165c-0.374,1.152 -0.562,1.751 -0.562,1.795l0.281,0.049l0.397,-0.049c0.072,0.033 0.127,0.049 0.166,0.049l0.339,-0.049c0.033,-0 0.049,0.016 0.049,0.049l0.281,-0.049l0.951,-0c0.039,-0 0.058,0.016 0.058,0.049c0.375,-0.033 0.563,-0.088 0.563,-0.165l-0,-0.058c-0.138,-0.248 -0.306,-0.733 -0.505,-1.455c0,-0.193 -0.168,-0.304 -0.504,-0.331c-0,-0.094 -0.039,-0.188 -0.116,-0.281c0.017,-0.078 0.055,-0.116 0.116,-0.116l0.951,-0c-0.188,-0.684 -0.43,-1.447 -0.728,-2.291l-0.107,0Z" style="fill:#fff;fill-rule:nonzero;"/><path d="M65.13,64.278c0.204,0.039 0.372,0.058 0.504,0.058l1.795,-0c0.082,-0 0.157,-0.019 0.223,-0.058c0.485,-0 0.728,0.168 0.728,0.504l1.058,2.738l0.505,-0l-0,0.173l-0.331,0c-0.077,0.011 -0.116,0.047 -0.116,0.108c0,0.066 0.168,0.124 0.505,0.174l0.058,0.107l-0,0.281l-0.224,0c0.298,0.921 0.968,2.636 2.01,5.144l0.281,-0.05l0.339,0l-0.058,-0.397l0,-0.223c0.077,-0.242 0.116,-0.427 0.116,-0.554c-0.077,0 -0.116,-0.039 -0.116,-0.116l0,-0.058c0.011,-0.071 0.05,-0.107 0.116,-0.107l0.05,-0l0.115,0.058l1.787,-4.367l0.281,0.058c0.022,0 0.096,-0.019 0.223,-0.058l0,-0.173l-0.273,-0c-0.077,-0 -0.116,-0.036 -0.116,-0.108l1.175,-3.018l0.115,-0.058l3.689,-0c0.077,0.011 0.115,0.047 0.115,0.107l0,3.077l0.331,-0c0.077,0.016 0.116,0.055 0.116,0.115l-0.116,0.058l-0.331,0l0,4.309l0.282,-0c0.071,0.011 0.107,0.047 0.107,0.107l0,0.058c0,0.055 -0.055,0.111 -0.165,0.166l-0.058,-0l-0.116,-0.05l-0.05,0.108l0,1.066l0.612,0c0.078,0.011 0.116,0.047 0.116,0.108l0,3.581c0,0.077 -0.038,0.115 -0.116,0.115l-0.612,0l0,2.126c0,0.071 -0.038,0.107 -0.115,0.107l-1.844,0c-0.375,0 -0.935,-0.016 -1.679,-0.049l-0,-1.853l-0.058,-0.273l0.116,-0.058l0.388,0l0.282,-0.057l-0,-3.019c0.148,-0.226 0.223,-0.452 0.223,-0.678c-0.408,-0.028 -0.612,-0.083 -0.612,-0.165c0.22,-0.706 0.386,-1.059 0.496,-1.059c0.149,0 0.223,-0.039 0.223,-0.116l0,-0.107c-0.259,-0 -0.388,-0.058 -0.388,-0.174l-0,-1.009l-0.058,0c-0.05,0 -0.199,0.356 -0.447,1.067c0.226,0.05 0.339,0.105 0.339,0.165c0,0.1 -0.132,0.174 -0.397,0.224c0,-0.033 -0.016,-0.05 -0.049,-0.05c-0.149,0.27 -0.298,0.662 -0.447,1.174l0.554,0c0.077,0.011 0.116,0.047 0.116,0.108c-0.562,1.395 -0.918,2.329 -1.067,2.803c-0.242,0.596 -0.391,0.893 -0.446,0.893l-0.67,0l-0.844,2.233l-1,0c-0.375,0 -0.935,-0.016 -1.679,-0.049c-0.485,-1.213 -0.728,-1.941 -0.728,-2.184l0.505,0c0.071,0 0.107,-0.038 0.107,-0.115c-0.684,-1.709 -1.039,-2.68 -1.067,-2.911l0,-0.728c-0.022,-0 -0.262,-0.017 -0.719,-0.05l-0.058,0.108l-0,3.581c-0,0.077 -0.039,0.115 -0.116,0.115l-0.504,0c-0.072,0.011 -0.108,0.047 -0.108,0.108l0,0.174l0.281,-0c0.072,0.011 0.108,0.046 0.108,0.107c-0,0.077 -0.036,0.116 -0.108,0.116l-0.281,-0l0,1.621c0,0.071 -0.038,0.107 -0.116,0.107l-1.959,0c-0.315,0 -0.816,-0.016 -1.506,-0.049l-0.057,-0.116l-0,-1.456l0.339,-0.223l-0.339,-0.223l-0,-0.058c0.011,-0.072 0.049,-0.108 0.115,-0.108l0.612,0l0.058,-0.281l0,-3.25l-0.058,-0.273l-0.612,0c-0.077,0 -0.115,-0.038 -0.115,-0.115l-0,-4.871c0.011,-0.072 0.049,-0.108 0.115,-0.108l0.273,0l0,-0.446l-0.273,-0c-0.077,-0 -0.115,-0.039 -0.115,-0.116l-0,-0.05l0.388,0c0.077,0 0.116,-0.038 0.116,-0.116l-0,-0.115c-0.083,-0 -0.157,-0.017 -0.223,-0.05c-0.066,0.033 -0.141,0.05 -0.224,0.05l-0.057,-0.108l-0,-1.232c-0,-0.083 0.019,-0.157 0.057,-0.223c-0.038,-0.066 -0.057,-0.141 -0.057,-0.224l-0,-1.29c0.011,-0.071 0.049,-0.107 0.115,-0.107l0.331,-0c0.215,-0 0.345,-0.019 0.389,-0.058Zm6.996,3.242l0.339,-0c0.039,-0 0.058,0.019 0.058,0.058l0.107,-0.058l0.058,-0l0,0.173l-0.562,0c-0.072,0 -0.108,-0.038 -0.108,-0.115l0.108,-0.058Zm1.513,-0l0.563,-0l-0,0.173l-0.563,0c-0.077,0 -0.115,-0.038 -0.115,-0.115l0.115,-0.058Zm-5.706,3.084l0,2.853l0.728,0l-0,-0.843c-0.226,-0.893 -0.469,-1.563 -0.728,-2.01Zm4.979,1.505l-0,0.174l0.057,0c0.072,0 0.108,-0.039 0.108,-0.116l-0,-0.165l-0.05,-0c-0.077,0.011 -0.115,0.047 -0.115,0.107Zm-0.282,1.348c0,0.033 -0.019,0.05 -0.057,0.05c0.253,0.739 0.441,1.149 0.562,1.232l0.281,-0.951c-0.077,-0.121 -0.116,-0.215 -0.116,-0.281l-0.67,-0.05Z" style="fill:#fff;fill-rule:nonzero;"/><path d="M80.619,64.303l3.862,-0c0.077,-0 0.135,0.204 0.174,0.612l0.612,-0c0.077,0.016 0.115,0.055 0.115,0.116l-0.173,0.115c-0.127,-0.038 -0.202,-0.058 -0.224,-0.058c-0.066,0.039 -0.14,0.058 -0.223,0.058l0,-0.058c-0.072,0.039 -0.127,0.058 -0.165,0.058l-0,6.608c-0,0.088 0.149,0.143 0.446,0.165c0.066,-0.038 0.141,-0.058 0.224,-0.058c-0,0.017 0.038,0.072 0.115,0.166l0,0.173c0,0.05 -0.058,0.105 -0.173,0.166l-0.331,-0c-0.116,-0 -0.174,-0.02 -0.174,-0.058l-0.273,0.058l-0.562,-0c-0.077,0.011 -0.116,0.049 -0.116,0.116l0,0.223c0.011,0.071 0.05,0.107 0.116,0.107l1.174,0l0,3.92c0,0.083 0.02,0.157 0.058,0.223c-0.061,0.188 -0.174,0.282 -0.339,0.282c0,-0.039 -0.019,-0.058 -0.058,-0.058l-0.049,0.116l-0,1.62c0.011,0.078 0.046,0.116 0.107,0.116c0.066,-0.038 0.141,-0.058 0.223,-0.058c0.078,0.138 0.116,0.287 0.116,0.447l-0.116,0.058l-2.464,-0c-0.314,-0 -0.816,-0.02 -1.505,-0.058l-0,-0.331l-0.397,-0.223c-0,-0.039 -0.019,-0.058 -0.058,-0.058l0.058,-0.397l-0,-0.331c-0,-0.088 -0.019,-0.162 -0.058,-0.223c0.039,-0.066 0.058,-0.141 0.058,-0.223l-0,-0.282c-0,-0.071 -0.168,-0.165 -0.505,-0.281c-0.038,-0.071 -0.057,-0.127 -0.057,-0.165c0.06,-0.155 0.118,-0.232 0.173,-0.232l0.224,0c0.066,0 0.121,0.168 0.165,0.505l0.281,-0c0.077,-0 0.116,-0.036 0.116,-0.108l-0,-4.143c-0,-0.077 -0.039,-0.116 -0.116,-0.116c-0.656,-0.038 -1.047,-0.058 -1.174,-0.058l-0.058,-0.107l-0,-0.165c-0,-0.056 0.055,-0.113 0.165,-0.174c0.039,-0 0.058,0.019 0.058,0.058l0.116,-0.058l1.174,-0c0.072,-0 0.108,-0.036 0.108,-0.108l-0,-0.173l-0.108,-0.166l-0.397,0.058l-0.107,0c-0.055,0 -0.11,-0.055 -0.166,-0.165l0,-6.5l0.05,-0.108c-0.055,-0.038 -0.165,-0.058 -0.331,-0.058l0,-0.115l0.281,-0l0,-0.554c0.011,-0.078 0.047,-0.116 0.108,-0.116Zm0.281,0.728c0.011,0.077 0.05,0.115 0.116,0.115l0.107,0c0.078,0 0.116,-0.038 0.116,-0.115c0,-0.078 -0.038,-0.116 -0.116,-0.116l-0.107,-0c-0.077,0.016 -0.116,0.055 -0.116,0.116Z" style="fill:#fff;fill-rule:nonzero;"/><path d="M87.475,64.303c0.358,-0 1.177,0.019 2.456,0.058c1.306,1.913 2.034,2.9 2.183,2.96c0.143,0 0.347,0.13 0.612,0.389l1.794,-0c0.072,0.011 0.108,0.05 0.108,0.116c-0,0.071 -0.036,0.107 -0.108,0.107l-0.173,0c-0.083,0 -0.157,-0.016 -0.224,-0.049c-0.06,0.033 -0.135,0.049 -0.223,0.049c-0.083,0 -0.157,-0.016 -0.223,-0.049l-0.331,0.049l-0.339,0l-0.108,-0.049l-0.057,0.107c0.441,0.59 1.521,2.136 3.241,4.639l-0.281,0.116c0.513,0.772 0.849,1.219 1.009,1.34l0.058,-0.281l-0,-0.281c-0,-0.221 -0.113,-0.48 -0.339,-0.778c0.187,-0.038 0.281,-0.077 0.281,-0.116c-0.187,-0.286 -0.281,-0.471 -0.281,-0.554c0.072,-0.038 0.127,-0.058 0.165,-0.058c-0.11,-0.137 -0.165,-0.267 -0.165,-0.388l-0,-2.969c-0.188,-0 -0.281,-0.017 -0.281,-0.05l-0.108,0.05c-0.077,-0 -0.116,-0.036 -0.116,-0.108l0,-0.057c0.011,-0.078 0.05,-0.116 0.116,-0.116l0.389,-0l-0,-1.001c-0.226,0 -0.339,-0.038 -0.339,-0.116l-0,-2.795l0.058,-0.107c0.744,-0.039 1.304,-0.058 1.678,-0.058l2.01,-0c0.039,-0 0.058,0.019 0.058,0.058l0.116,-0.058c0.071,0.011 0.107,0.049 0.107,0.116l0,2.902c0.243,0 0.375,0.055 0.397,0.166l0,0.785c0,0.055 -0.058,0.111 -0.174,0.166l-0.33,-0l-0,0.173l0.33,0c0.056,0 0.113,0.055 0.174,0.166l0,3.804l-0.397,0.223l0,2.175c0,0.05 -0.11,0.124 -0.331,0.223l0.05,0.397l0,1.34c0.187,-0 0.281,0.036 0.281,0.107l0,2.068l0.058,0.281l-0.116,0.058l-2.514,-0c-0.369,-0 -0.929,-0.019 -1.678,-0.058c-1.026,-1.582 -1.621,-2.401 -1.787,-2.456c-0.171,-0 -0.355,-0.207 -0.554,-0.62c-0.562,-0.723 -0.843,-1.13 -0.843,-1.224l0.165,-0l0,-0.116l-1.563,-2.233c0.188,-0.038 0.281,-0.077 0.281,-0.116l-0.785,-1.116l-0,-0.786c-0,-0.209 -0.204,-0.581 -0.612,-1.116l-0.058,-0l-0,2.969l-0.331,0.223l0,0.108l0.612,-0c0.072,0.011 0.107,0.049 0.107,0.115l0,0.166c0,0.055 -0.055,0.11 -0.165,0.165l-0.554,0l-0.058,0.67l0,1.679l0.058,0.281c-0.088,0.072 -0.201,0.107 -0.339,0.107l-0,0.339l0.281,0.224l0,1.902l0.058,0.331c-0.039,0.066 -0.058,0.14 -0.058,0.223l0.058,0.281l-0.116,0.058l-2.456,-0c-0.32,-0 -0.824,-0.019 -1.513,-0.058l-0.058,-0.107l-0,-0.058c-0,-0.039 0.019,-0.058 0.058,-0.058l-0.058,-0.108l-0,-2.406l-0.273,-0.224l0,-0.223l0.273,-0.223l-0,-2.514c-0,-0.055 0.058,-0.113 0.174,-0.174l0.496,0c0.077,0 0.116,-0.036 0.116,-0.107l-0,-0.166c-0,-0.077 -0.039,-0.115 -0.116,-0.115l-0.554,-0c-0.078,-0 -0.116,-0.036 -0.116,-0.108c0.011,-0.077 0.05,-0.116 0.116,-0.116l0.281,0l-0,-0.107c-0,-0.127 0.016,-0.221 0.049,-0.281l-0.049,-0.282l0.049,-0.223c0,-0.038 -0.016,-0.058 -0.049,-0.058l0.049,-0.281l0,-0.107c0,-0.149 -0.016,-0.224 -0.049,-0.224l0.049,-0.397l0,-0.223c0,-0.485 -0.016,-1.116 -0.049,-1.894l0.049,-0.115l-0.049,-0.116c0.033,-0.298 0.088,-0.447 0.165,-0.447l0.505,0c0.259,0 0.667,-0.016 1.224,-0.049l-0,-0.116l-0.05,-0c-0.276,-0 -0.482,-0.019 -0.62,-0.058c-0.243,0.039 -0.485,0.058 -0.728,0.058c-0.369,-0 -0.554,-0.13 -0.554,-0.389c-0.226,0 -0.339,-0.055 -0.339,-0.165l-0,-2.746l0.058,-0.107c0.799,-0.039 1.359,-0.058 1.679,-0.058Zm-2.01,4.077l0.108,-0c0.077,0.016 0.115,0.055 0.115,0.116c0,0.082 -0.093,0.137 -0.281,0.165l-0.058,-0.108l0,-0.057c0.011,-0.078 0.05,-0.116 0.116,-0.116Zm10.056,-0l0.058,-0c0.077,0.016 0.116,0.055 0.116,0.116l-0,0.057c-0,0.072 -0.039,0.108 -0.116,0.108c-0.055,-0 -0.11,-0.055 -0.166,-0.165c0.011,-0.078 0.047,-0.116 0.108,-0.116Zm1.398,3.92c0.011,0.071 0.049,0.107 0.115,0.107l0,-0.107l-0.115,-0Zm0.223,0.165l-0,0.116l0.058,-0l-0,-0.116l-0.058,0Z" style="fill:#fff;fill-rule:nonzero;"/><path d="M110.167,64.319c1.29,0 2.483,0.309 3.58,0.927l0,0.049c-0.193,0 -0.355,0.019 -0.487,0.058l-0,0.05c0.815,0.386 1.664,1.182 2.547,2.39c0.352,-0 0.57,0.107 0.653,0.322c-0,0.05 -0.108,0.105 -0.323,0.166c0,0.165 -0.598,0.509 -1.794,1.033c-0.54,0.359 -0.921,0.538 -1.141,0.538l-0.43,-0l-1.034,-1.241c-0.265,-0.138 -0.408,-0.248 -0.43,-0.33l-0,-0.05l0.215,-0l-0,-0.116c-0.05,0 -0.284,-0.107 -0.703,-0.322l-0.223,-0c-0.337,-0 -0.607,-0.072 -0.811,-0.215l-0.868,-0c-0.083,-0 -0.154,0.016 -0.215,0.049l-0.108,-0.049c-1.251,0.391 -2.067,0.898 -2.447,1.521c-0.089,0.105 -0.323,0.177 -0.703,0.215l-0,0.05c0.011,0.077 0.046,0.116 0.107,0.116c0.072,-0 0.108,-0.02 0.108,-0.058l0.545,0.058l0.976,-0l0,0.049c0,0.072 -0.036,0.108 -0.107,0.108l-1.307,-0c-0.215,0.143 -0.43,0.758 -0.645,1.844l0,0.438c0,0.441 0.108,1.02 0.323,1.737l-0.108,0.049l-0.546,0l-0.322,0.058c-0.072,-0.038 -0.127,-0.058 -0.166,-0.058l-0.107,0.058c-0.072,-0.038 -0.127,-0.058 -0.165,-0.058l-0,0.058c0.242,0.689 0.73,1.268 1.463,1.737c0.359,0.254 0.612,0.38 0.761,0.38l1.356,0c0.849,0.254 1.467,0.381 1.853,0.381c0.75,-0.254 1.218,-0.381 1.406,-0.381c0.071,0.039 0.126,0.058 0.165,0.058c0.821,-0.551 1.254,-0.896 1.298,-1.033c0.21,-0.149 0.499,-0.53 0.869,-1.142l-0,-0.058l-4.342,0c-0.072,0 -0.107,-0.035 -0.107,-0.107l-0,-1.513c0.181,-0.111 0.272,-0.202 0.272,-0.273l-0.049,-0.108c0.033,-0.066 0.049,-0.14 0.049,-0.223c-0.182,-0.044 -0.272,-0.097 -0.272,-0.157c0.071,-0.094 0.107,-0.149 0.107,-0.166c0.077,0 0.116,0.02 0.116,0.058c0.424,-0.038 0.73,-0.058 0.918,-0.058l5.648,0c0.077,0 0.149,0.02 0.215,0.058c0.061,-0.038 0.132,-0.058 0.215,-0.058l0.976,0l0.331,0.381l-0,0.322c-0.182,0.1 -0.293,0.337 -0.331,0.712c-0.033,0.529 -0.05,0.89 -0.05,1.083c0.182,-0 0.273,0.036 0.273,0.107l0,0.058c-0.413,1.412 -0.777,2.117 -1.092,2.117c-0.06,-0.038 -0.132,-0.058 -0.215,-0.058c-0.849,1.533 -2.367,2.655 -4.556,3.366c-0.612,0.11 -1.064,0.166 -1.356,0.166l-1.034,-0c-2.779,-0 -4.967,-1.177 -6.566,-3.532l-1.464,0c-0.182,-0.099 -0.491,-0.714 -0.926,-1.844l-0,-0.331l1.464,0l-0.215,-1.736l-0,-0.265c0.159,-1.378 0.303,-2.067 0.43,-2.067c0.7,-0.033 1.155,-0.05 1.364,-0.05l0,-0.107l-0.058,-0c-0.38,-0 -0.959,-0.02 -1.736,-0.058c-0,-0.055 0.181,-0.127 0.545,-0.215c0.701,-1.759 1.784,-3.044 3.25,-3.854c0.574,0 1.064,-0.127 1.472,-0.38c0.971,-0.436 2.2,-0.654 3.689,-0.654Zm-9.395,4.937l0.166,0l-0,0.166c-0.127,0.038 -0.199,0.058 -0.215,0.058l-0.058,-0.116c0.011,-0.072 0.047,-0.108 0.107,-0.108Zm7.17,1.902c0.358,0.028 0.538,0.083 0.538,0.166c-0,0.071 -0.036,0.107 -0.108,0.107l-0.488,0c-0.071,0 -0.107,-0.036 -0.107,-0.107c-0,-0.055 0.055,-0.11 0.165,-0.166Zm-0.711,0.058l0.116,0c0.071,0.011 0.107,0.047 0.107,0.108l0,0.107l-0.223,0c-0.072,0 -0.108,-0.036 -0.108,-0.107c0.011,-0.072 0.047,-0.108 0.108,-0.108Z" style="fill:#fff;fill-rule:nonzero;"/></g><text x="18.983px" y="25.649px" style="font-family:'DoctorGlitch', 'Doctor Glitch';font-size:9.387px;fill:#fff;">SPOTIFY</text><text x="57.215px" y="14.568px" style="font-family:'DoctorGlitch', 'Doctor Glitch';font-size:9.387px;fill:#fff;">DEEZER</text><text x="20.766px" y="106.388px" style="font-family:'DoctorGlitch', 'Doctor Glitch';font-size:9.387px;fill:#fff;">AMAZON</text><text x="27.229px" y="117.248px" style="font-family:'DoctorGlitch', 'Doctor Glitch';font-size:9.387px;fill:#fff;">SOUNDCLOUD</text><text x="31.657px" y="93.809px" style="font-family:'DoctorGlitch', 'Doctor Glitch';font-size:9.387px;fill:#fff;">YOUTUBE MUSIC</text></g><defs><linearGradient id="_Linear1" x1="0" y1="0" x2="1" y2="0" gradientUnits="userSpaceOnUse" gradientTransform="matrix(7.14377e-15,116.667,-116.667,7.14377e-15,62.5,4.16667)"><stop offset="0" style="stop-color:#ff00e4;stop-opacity:1"/><stop offset="0.41" style="stop-color:#9669d2;stop-opacity:1"/><stop offset="1" style="stop-color:#00ffb7;stop-opacity:1"/></linearGradient></defs></svg>