<?xml version="1.0" encoding="UTF-8" standalone="no"?><!DOCTYPE svg PUBLIC "-//W3C//DTD SVG 1.1//EN" "http://www.w3.org/Graphics/SVG/1.1/DTD/svg11.dtd"><svg width="100%" height="100%" viewBox="0 0 23 23" version="1.1" xmlns="http://www.w3.org/2000/svg" xmlns:xlink="http://www.w3.org/1999/xlink" xml:space="preserve" xmlns:serif="http://www.serif.com/" style="fill-rule:evenodd;clip-rule:evenodd;stroke-linejoin:round;stroke-miterlimit:2;"><rect id="Artboard5" x="0" y="0" width="22.5" height="22.5" style="fill:none;"/><path d="M21.937,5.906c0,-2.949 -2.394,-5.344 -5.343,-5.344l-10.688,0c-2.949,0 -5.344,2.395 -5.344,5.344l0,10.688c0,2.949 2.395,5.343 5.344,5.343l10.688,0c2.949,0 5.343,-2.394 5.343,-5.343l0,-10.688Z" style="fill:url(#_Linear1);"/><g><ellipse cx="6.917" cy="11.139" rx="2.417" ry="2.439" style="fill:#fff;"/><path d="M15.992,4.5c1.271,1.93 2.008,4.253 2.008,6.75c0,2.497 -0.737,4.82 -2.008,6.75l-1.079,-0.55c1.195,-1.761 1.892,-3.898 1.892,-6.2c-0,-2.302 -0.697,-4.439 -1.892,-6.2l1.079,-0.55Z" style="fill:#fff;"/><path d="M13.281,5.883c1.095,1.497 1.73,3.357 1.73,5.367c0,2.01 -0.635,3.87 -1.73,5.367l-1.066,-0.543c1.032,-1.324 1.631,-3.003 1.631,-4.824c-0,-1.821 -0.599,-3.5 -1.631,-4.824l1.066,-0.543Z" style="fill:#fff;"/><path d="M10.545,7.278c0.928,1.052 1.478,2.447 1.478,3.972c-0,1.525 -0.55,2.92 -1.478,3.972l-1.095,-0.559c0.854,-0.875 1.377,-2.082 1.377,-3.413c0,-1.331 -0.523,-2.538 -1.377,-3.413l1.095,-0.559Z" style="fill:#fff;"/></g><defs><linearGradient id="_Linear1" x1="0" y1="0" x2="1" y2="0" gradientUnits="userSpaceOnUse" gradientTransform="matrix(1.30884e-15,21.375,-21.375,1.30884e-15,11.25,0.5625)"><stop offset="0" style="stop-color:#000;stop-opacity:1"/><stop offset="1" style="stop-color:#a1a1a1;stop-opacity:1"/></linearGradient></defs></svg>