<?xml version="1.0" encoding="UTF-8" standalone="no"?><!DOCTYPE svg PUBLIC "-//W3C//DTD SVG 1.1//EN" "http://www.w3.org/Graphics/SVG/1.1/DTD/svg11.dtd"><svg width="100%" height="100%" viewBox="0 0 23 23" version="1.1" xmlns="http://www.w3.org/2000/svg" xmlns:xlink="http://www.w3.org/1999/xlink" xml:space="preserve" xmlns:serif="http://www.serif.com/" style="fill-rule:evenodd;clip-rule:evenodd;stroke-linejoin:round;stroke-miterlimit:2;"><rect id="Artboard2" x="0" y="0" width="22.5" height="22.5" style="fill:none;"/><path d="M21.938,5.906c-0,-2.949 -2.395,-5.344 -5.344,-5.344l-10.688,0c-2.949,0 -5.343,2.395 -5.343,5.344l-0,10.688c-0,2.949 2.394,5.343 5.343,5.343l10.688,0c2.949,0 5.344,-2.394 5.344,-5.343l-0,-10.688Z" style="fill:url(#_Linear1);"/><g><path d="M5.748,6.155l3.58,0c0.032,0 0.061,0.007 0.086,0.022c0.026,-0.015 0.054,-0.022 0.086,-0.022c0.03,0.035 0.045,0.063 0.045,0.084l-0.023,0.043c0.015,0.073 0.044,0.129 0.086,0.168l0,0.794l-0.022,0.041l-0.108,-0.019l-0.449,-0l-0.13,0.019c-0.024,-0.013 -0.059,-0.019 -0.105,-0.019l-0.15,0.019c-0.026,-0.013 -0.054,-0.019 -0.086,-0.019l-0.045,0.019c-0.014,-0 -0.022,-0.007 -0.022,-0.019l-0.105,0.019l-0.216,-0l-0,0.732c-0,0.029 -0.058,0.05 -0.172,0.065c-0,0.054 -0.014,0.081 -0.041,0.081l-0.195,-0c-0.027,0.006 -0.041,0.02 -0.041,0.043c0.004,0.027 0.018,0.04 0.041,0.04l0.217,0l0.041,0.022l-0.022,0.106l-0,0.189l0.13,0.084c0,0.027 -0.086,0.047 -0.257,0.062l-0,1.232c-0,0.039 -0.073,0.067 -0.217,0.083l0,0.022l0.325,0c0.085,0.037 0.127,0.065 0.127,0.084l0,1.654c0,0.027 -0.014,0.04 -0.041,0.04l-0.859,0c-0.145,0 -0.359,-0.007 -0.643,-0.022c-0.015,-0.256 -0.023,-0.444 -0.023,-0.564l0,-1.13c-0.129,-0.027 -0.194,-0.055 -0.194,-0.084l-0.041,0.022l-0.194,0l-0,-0.022c0.004,-0.027 0.019,-0.04 0.044,-0.04l0.105,0.022c0.028,-0.015 0.05,-0.022 0.067,-0.022l0,-1.257c0.004,-0.027 0.018,-0.04 0.042,-0.04l0.194,0l-0,-0.084c-0.072,0 -0.109,-0.013 -0.109,-0.04l0,-0.273c0,-0.029 -0.014,-0.044 -0.044,-0.044l-0.191,0c-0.03,0 -0.045,-0.013 -0.045,-0.04c0.005,-0.029 0.02,-0.043 0.045,-0.043l0.191,-0l0.086,-0.103l0.108,0l0.022,-0.189c0,-0.027 -0.007,-0.04 -0.022,-0.04l0.022,-0.106l0,-0.335c0,-0.06 -0.028,-0.101 -0.086,-0.124c-0.014,-0 -0.022,0.006 -0.022,0.019l-0.108,-0.019l-1.241,-0c-0.03,-0 -0.045,-0.015 -0.045,-0.044l0,-0.794c-0.057,0 -0.086,-0.013 -0.086,-0.04l0,-0.022c0,-0.031 0.008,-0.059 0.023,-0.084c-0.015,-0.025 -0.023,-0.052 -0.023,-0.083c0.015,-0 0.023,-0.008 0.023,-0.022c0.307,-0.015 0.536,-0.022 0.687,-0.022Zm0.191,2.008l0.044,-0c0.028,0.006 0.042,0.02 0.042,0.043c-0,0.027 -0.014,0.04 -0.042,0.04l-0.044,0c-0.028,0 -0.041,-0.013 -0.041,-0.04c0.004,-0.029 0.018,-0.043 0.041,-0.043Zm0.601,1.653l0,0.041l0.023,-0l-0,-0.041l-0.023,0Z" style="fill:#fff;fill-rule:nonzero;"/><path d="M9.721,6.158l1.486,0c0.03,0 0.052,0.077 0.067,0.23l0.235,-0c0.03,0.006 0.045,0.02 0.045,0.043l-0.067,0.044c-0.049,-0.015 -0.077,-0.022 -0.086,-0.022c-0.025,0.014 -0.054,0.022 -0.086,0.022l0,-0.022c-0.027,0.014 -0.049,0.022 -0.063,0.022l-0,2.479c-0,0.033 0.057,0.054 0.171,0.062c0.026,-0.015 0.055,-0.022 0.086,-0.022c0,0.006 0.015,0.027 0.045,0.062l-0,0.065c-0,0.019 -0.022,0.04 -0.067,0.062l-0.127,0c-0.045,0 -0.067,-0.007 -0.067,-0.021l-0.105,0.021l-0.216,0c-0.03,0.005 -0.045,0.019 -0.045,0.044l-0,0.084c0.004,0.027 0.019,0.04 0.045,0.04l0.451,0l0,1.471c0,0.031 0.008,0.059 0.023,0.084c-0.024,0.07 -0.067,0.105 -0.131,0.105c0,-0.014 -0.007,-0.022 -0.022,-0.022l-0.019,0.044l-0,0.608c0.004,0.029 0.018,0.043 0.041,0.043c0.026,-0.014 0.054,-0.021 0.086,-0.021c0.03,0.051 0.045,0.107 0.045,0.167l-0.045,0.022l-0.948,-0c-0.121,-0 -0.314,-0.007 -0.579,-0.022l-0,-0.124l-0.153,-0.084c-0,-0.014 -0.008,-0.021 -0.022,-0.021l0.022,-0.149l-0,-0.124c-0,-0.034 -0.008,-0.061 -0.022,-0.084c0.014,-0.025 0.022,-0.053 0.022,-0.084l-0,-0.105c-0,-0.027 -0.065,-0.063 -0.194,-0.106c-0.015,-0.027 -0.023,-0.048 -0.023,-0.062c0.024,-0.058 0.046,-0.087 0.067,-0.087l0.086,0c0.026,0 0.047,0.063 0.064,0.189l0.108,0c0.03,0 0.045,-0.013 0.045,-0.04l-0,-1.555c-0,-0.028 -0.015,-0.043 -0.045,-0.043c-0.252,-0.014 -0.403,-0.022 -0.452,-0.022l-0.022,-0.04l-0,-0.062c-0,-0.021 0.021,-0.042 0.064,-0.065c0.014,-0 0.022,0.007 0.022,0.021l0.044,-0.021l0.452,-0c0.028,-0 0.042,-0.014 0.042,-0.041l-0,-0.065l-0.042,-0.062l-0.152,0.022l-0.042,-0c-0.021,-0 -0.042,-0.021 -0.064,-0.062l0,-2.439l0.02,-0.04c-0.022,-0.015 -0.064,-0.022 -0.128,-0.022l0,-0.043l0.108,-0l0,-0.208c0.005,-0.029 0.019,-0.044 0.042,-0.044Zm0.108,0.273c0.004,0.029 0.019,0.044 0.045,0.044l0.041,-0c0.03,-0 0.045,-0.015 0.045,-0.044c-0,-0.029 -0.015,-0.043 -0.045,-0.043l-0.041,-0c-0.03,0.006 -0.045,0.02 -0.045,0.043Z" style="fill:#fff;fill-rule:nonzero;"/><path d="M12.192,6.171c0.776,-0 1.177,-0.008 1.203,-0.022c0.157,0.014 0.235,0.035 0.235,0.062l0,1.216l0.239,0c0.027,0.004 0.041,0.019 0.041,0.044l0,0.397l0.022,0.105c0.187,0 0.28,-0.07 0.28,-0.211c-0.014,-0.027 -0.022,-0.047 -0.022,-0.062l0.022,-0.04c-0.014,-0.025 -0.022,-0.053 -0.022,-0.084c0.087,-0.039 0.131,-0.089 0.131,-0.149l-0.194,0c-0.03,0 -0.045,-0.013 -0.045,-0.04c0.025,-0 0.42,-0.406 1.184,-1.216l1.893,-0l0,0.021c-0.182,0.201 -0.577,0.606 -1.183,1.217l-0,0.018l0.216,0l-0,0.044c-0,0.018 -0.172,0.186 -0.516,0.502l-0.261,0l-0.105,0.022l0,-0.022l-0.044,0.022l-0.172,0l-0,0.04l0.452,0c0.03,0.005 0.044,0.019 0.044,0.044c-0.012,0.002 -0.214,0.205 -0.604,0.608l-0,0.022c0.17,0.205 0.486,0.56 0.948,1.067c-0.036,0.029 -0.065,0.044 -0.086,0.044c0,0.066 0.079,0.107 0.236,0.124l0.063,0.083l0,0.044l-0.194,-0l0,0.062c0.072,-0 0.108,0.007 0.108,0.022l0.109,-0.022l0.235,-0c0.11,-0 0.175,0.028 0.194,0.084l-0.022,0.043l-0.105,-0.022c-0.053,0 -0.118,0.008 -0.194,0.022c-0.028,-0.014 -0.049,-0.022 -0.064,-0.022l-0.044,0.022c-0.028,-0.014 -0.049,-0.022 -0.064,-0.022l-0.022,0.041c0.195,0.192 0.489,0.528 0.881,1.008c0.03,0 0.137,0.112 0.322,0.335l-0,0.022l-0.019,0.04c0.012,0.027 0.019,0.049 0.019,0.066l0.108,-0c0.021,-0 0.043,0.02 0.067,0.062c-0,0.027 -0.015,0.04 -0.045,0.04l-1.289,-0c-0.144,-0 -0.359,-0.006 -0.646,-0.019c-0.04,-0.07 -0.105,-0.105 -0.194,-0.105l0,-0.044c0.028,-0.035 0.041,-0.055 0.041,-0.062l0,-0.021c-0.031,-0 -0.246,-0.252 -0.642,-0.754l-0.475,-0.568c0.005,-0.027 0.019,-0.041 0.042,-0.041l0.089,0.022c0.028,-0.014 0.049,-0.022 0.064,-0.022l-0,0.022l0.041,-0.022l0.239,0c0.027,0 0.041,-0.014 0.041,-0.043c-0.034,-0.027 -0.063,-0.04 -0.086,-0.04c-0.091,-0 -0.278,-0.008 -0.56,-0.022l-0.041,-0.062c0.014,-0 0.022,-0.007 0.022,-0.022c0.027,0.015 0.049,0.022 0.064,0.022l0.041,-0.022c0.025,0.015 0.054,0.022 0.086,0.022l0.044,-0l0,-0.022c0,-0.027 -0.036,-0.068 -0.108,-0.124l-0.041,0.019c-0.072,-0.017 -0.108,-0.038 -0.108,-0.062l-0,-0.022l0.171,-0.124c0.015,-0.027 0.023,-0.049 0.023,-0.065c-0.028,-0.062 -0.056,-0.097 -0.086,-0.103l-0.022,0c-0.02,0 -0.105,0.084 -0.258,0.252c-0.058,-0 -0.086,0.013 -0.086,0.04l-0,0.022l0.127,0.083c0.015,0.027 0.022,0.048 0.022,0.062c-0.036,0.029 -0.057,0.044 -0.063,0.044l-0.194,-0c-0.03,0.004 -0.045,0.017 -0.045,0.04l0,1.701c0,0.027 -0.014,0.04 -0.041,0.04l-0.86,-0c-0.144,-0 -0.359,-0.006 -0.646,-0.019l-0.022,-0.043l0,-1.679c0.004,-0.027 0.019,-0.04 0.045,-0.04l0.235,-0l0.023,-0.106l-0,-0.021c-0.102,-0 -0.153,-0.021 -0.153,-0.062l-0,-0.022c-0,-0.041 0.051,-0.062 0.153,-0.062l-0,-0.106c-0,-0.014 0.006,-0.021 0.019,-0.021l-0.019,-0.041l-0,-1.529c-0,-0.029 -0.023,-0.044 -0.067,-0.044c-0.287,-0.014 -0.444,-0.022 -0.471,-0.022l-0.023,-0.04l0.045,-0.022c0.259,-0.014 0.431,-0.021 0.516,-0.021l-0,-0.419l-0.023,-0.106l-0.235,0c-0.03,0 -0.045,-0.013 -0.045,-0.04l0,-1.176c0.004,-0.027 0.019,-0.04 0.045,-0.04l0.086,-0Zm1.18,1.824l0,0.04l0.109,0l-0,-0.018l-0.023,-0.044c-0.023,0.015 -0.052,0.022 -0.086,0.022Zm0.538,0.106c0.004,0.026 0.019,0.04 0.045,0.04l0.022,-0.04l-0,-0.044l-0.022,0c-0.03,0.004 -0.045,0.019 -0.045,0.044Zm-1.871,1.697l0.044,-0c0.028,0.004 0.042,0.018 0.042,0.043l-0,0.041c-0,0.02 -0.021,0.041 -0.064,0.062c-0.021,-0 -0.042,-0.021 -0.063,-0.062l-0,-0.041c0.004,-0.029 0.018,-0.043 0.041,-0.043Zm2.711,1.868l0.172,-0c0.023,-0 0.052,0.028 0.086,0.084l-0.235,-0c-0.022,-0 -0.044,-0.022 -0.067,-0.066l0.044,-0.018Z" style="fill:#fff;fill-rule:nonzero;"/><path d="M3.71,10.952l3.58,0c0.032,0 0.06,0.007 0.086,0.022c0.025,-0.015 0.054,-0.022 0.086,-0.022c0.029,0.035 0.044,0.063 0.044,0.084l-0.022,0.043c0.015,0.073 0.043,0.128 0.086,0.168l-0,0.794l-0.022,0.04l-0.109,-0.018l-0.448,-0l-0.131,0.018c-0.023,-0.012 -0.058,-0.018 -0.105,-0.018l-0.149,0.018c-0.026,-0.012 -0.054,-0.018 -0.086,-0.018l-0.045,0.018c-0.015,0 -0.022,-0.006 -0.022,-0.018l-0.105,0.018l-0.217,0l0,0.733c0,0.029 -0.057,0.05 -0.171,0.065c-0,0.054 -0.014,0.081 -0.042,0.081l-0.194,-0c-0.027,0.006 -0.041,0.02 -0.041,0.043c0.004,0.027 0.018,0.04 0.041,0.04l0.217,0l0.041,0.022l-0.022,0.106l-0,0.189l0.13,0.084c0,0.027 -0.086,0.047 -0.258,0.062l0,1.232c0,0.039 -0.072,0.067 -0.216,0.083l-0,0.022l0.325,0c0.084,0.037 0.127,0.065 0.127,0.084l-0,1.654c-0,0.027 -0.014,0.04 -0.042,0.04l-0.859,-0c-0.144,-0 -0.358,-0.007 -0.643,-0.022c-0.014,-0.256 -0.022,-0.445 -0.022,-0.564l0,-1.13c-0.129,-0.027 -0.194,-0.055 -0.194,-0.084l-0.041,0.022l-0.195,0l0,-0.022c0.005,-0.027 0.02,-0.04 0.045,-0.04l0.105,0.022c0.028,-0.015 0.05,-0.022 0.067,-0.022l-0,-1.257c0.004,-0.027 0.018,-0.04 0.041,-0.04l0.194,-0l0,-0.084c-0.072,0 -0.108,-0.013 -0.108,-0.04l0,-0.273c0,-0.029 -0.015,-0.044 -0.044,-0.044l-0.191,0c-0.03,0 -0.045,-0.013 -0.045,-0.04c0.004,-0.029 0.019,-0.043 0.045,-0.043l0.191,-0l0.086,-0.103l0.108,0l0.022,-0.189c0,-0.027 -0.007,-0.04 -0.022,-0.04l0.022,-0.106l0,-0.335c0,-0.06 -0.029,-0.101 -0.086,-0.124c-0.015,-0 -0.022,0.006 -0.022,0.018l-0.108,-0.018l-1.242,-0c-0.029,-0 -0.044,-0.015 -0.044,-0.044l-0,-0.794c-0.057,0 -0.086,-0.013 -0.086,-0.04l0,-0.022c0,-0.031 0.007,-0.059 0.022,-0.084c-0.015,-0.025 -0.022,-0.053 -0.022,-0.084c0.015,0 0.022,-0.007 0.022,-0.021c0.308,-0.015 0.537,-0.022 0.688,-0.022Zm0.191,2.008l0.044,-0c0.028,0.006 0.042,0.02 0.042,0.043c-0,0.027 -0.014,0.04 -0.042,0.04l-0.044,0c-0.028,0 -0.042,-0.013 -0.042,-0.04c0.004,-0.029 0.018,-0.043 0.042,-0.043Zm0.601,1.653l0,0.041l0.022,-0l0,-0.041l-0.022,0Z" style="fill:#fff;fill-rule:nonzero;"/><path d="M10.792,10.955c0.494,0 0.912,0.103 1.254,0.307c-0.026,0.013 -0.053,0.019 -0.083,0.019l-0,0.04c0.051,0 0.245,0.13 0.582,0.388c0.083,0 0.167,0.027 0.252,0.081l0.232,-0l0.102,0.022l-0,0.021c-0,0.027 -0.014,0.041 -0.042,0.041l-0.105,-0c-0.012,-0 -0.019,-0.008 -0.019,-0.022c-0.023,0.014 -0.058,0.022 -0.105,0.022l0,0.018c0.316,0.344 0.553,0.806 0.71,1.387l-0.061,0.041l-0.502,-0l-0,0.021c0.205,0 0.324,0.006 0.356,0.019c0.023,-0.013 0.058,-0.019 0.105,-0.019l0.041,0c0.056,0 0.083,0.13 0.083,0.388c0.004,0.027 0.018,0.04 0.042,0.04l0.21,0c0.012,0 0.019,0.007 0.019,0.019l0.044,-0.019l0.019,0c0.085,0.009 0.128,0.028 0.128,0.059c-0,0.453 -0.133,0.91 -0.398,1.369l-0.041,0.018l-0.398,0l-0.086,0.062l-0.207,0c-0.028,0.005 -0.041,0.018 -0.041,0.041c0.152,-0 0.229,0.007 0.229,0.021c-0.325,0.522 -0.827,0.909 -1.506,1.161c-0.331,0.083 -0.631,0.124 -0.9,0.124l-0.229,0c-0.164,0 -0.275,-0.014 -0.334,-0.043c-0.028,0.014 -0.049,0.021 -0.064,0.021c-0.613,-0.101 -1.094,-0.299 -1.442,-0.592c-0.269,-0.222 -0.486,-0.445 -0.649,-0.671c-0.023,-0.014 -0.051,-0.021 -0.083,-0.021l-0.187,-0l-0,-0.041l0.206,0c0,-0.041 0.015,-0.062 0.045,-0.062l0.27,0l0.105,-0.018c-0.216,-0.402 -0.335,-0.769 -0.356,-1.102l0,-0.062l0.022,-0.04c0.013,-0 0.019,0.007 0.019,0.022c0.21,-0.015 0.364,-0.022 0.462,-0.022l0.312,-0l-0,-0.022c-0,-0.027 -0.014,-0.04 -0.042,-0.04l-0.751,-0c-0.017,-0 -0.052,-0.048 -0.105,-0.143l-0.356,0c-0.028,0 -0.041,-0.013 -0.041,-0.04c-0,-0.027 0.056,-0.048 0.168,-0.062l0,-0.081c-0.015,-0 -0.036,-0.006 -0.063,-0.019c-0.028,0.013 -0.049,0.019 -0.064,0.019c-0.013,-0.027 -0.019,-0.048 -0.019,-0.062c0.04,-0.472 0.22,-0.946 0.541,-1.424c0.123,-0.164 0.235,-0.245 0.337,-0.245c0.18,-0 0.271,-0.021 0.271,-0.062c-0.047,-0.027 -0.088,-0.041 -0.124,-0.041l-0.023,0l-0.105,0.019l-0.019,-0.041l0.019,-0.04c-0.055,0 -0.083,-0.013 -0.083,-0.04c0.104,-0.089 0.3,-0.218 0.586,-0.388l0.229,-0c0.374,-0.217 0.918,-0.326 1.633,-0.326Zm-1.738,2.548l0,0.04l0.127,0.084l0,0.04c0,0.027 -0.014,0.04 -0.044,0.04l-0.102,0l0,0.062l0.376,0c0.023,0 0.044,0.048 0.063,0.143c0.299,0.013 0.522,0.019 0.669,0.019l0.165,-0l0,0.04c0,0.029 -0.014,0.044 -0.041,0.044c-0.026,-0.015 -0.046,-0.022 -0.061,-0.022c-0.015,-0 -0.022,0.007 -0.022,0.022l-0.105,-0.022c-0.051,-0 -0.246,0.007 -0.586,0.022l0,0.099c0.068,0.333 0.242,0.633 0.522,0.9c0.155,0.103 0.233,0.164 0.233,0.183l-0.042,0.018l-0.293,0l0.019,0.041l0,0.021l-0.124,0l0,0.041l0.252,-0c0.248,0.068 0.415,0.102 0.499,0.102c0.081,0 0.214,-0.021 0.398,-0.062c0,-0.027 -0.014,-0.04 -0.041,-0.04l-0.105,-0l-0,-0.041l0.229,0c0.015,0 0.112,-0.02 0.293,-0.062l0.21,0c0.032,0 0.059,-0.006 0.083,-0.018c0.027,0.012 0.048,0.018 0.063,0.018c0.274,-0.113 0.518,-0.365 0.732,-0.754c0.083,-0.273 0.124,-0.429 0.124,-0.468l0,-0.165c0,-0.022 -0.069,-0.042 -0.207,-0.059l-0.041,0.019l-0.146,0c-0.058,0 -0.086,-0.135 -0.086,-0.406l-0.102,-0.022l-0.713,-0l0,-0.04c0.21,-0.013 0.364,-0.019 0.461,-0.019l0.312,-0l0,-0.022c-0.131,-0.362 -0.34,-0.64 -0.627,-0.835c-0.316,-0.19 -0.573,-0.285 -0.773,-0.285c-0.583,0 -1.058,0.292 -1.422,0.875c-0.098,0.24 -0.147,0.396 -0.147,0.469Zm-1.441,0.428l0.229,-0c0.027,0.004 0.041,0.017 0.041,0.04l-0.041,0.022l-0.229,-0l-0,-0.062Zm5.142,0.084l-0.019,0.04l0,0.018l0.019,0c0,-0.026 0.014,-0.04 0.042,-0.04l-0,-0.018l-0.042,-0Zm-2.571,0.304l0.022,-0c0.028,0.004 0.042,0.017 0.042,0.04l-0,0.062c-0,0.027 -0.014,0.04 -0.042,0.04l-0.022,0c-0.028,0 -0.041,-0.013 -0.041,-0.04l-0,-0.062c0.004,-0.027 0.018,-0.04 0.041,-0.04Zm-2.447,0.223l0.127,0l0.019,0.102l-0.06,0.041l-0.064,-0c-0.028,-0 -0.049,-0.041 -0.064,-0.121l0.042,-0.022Z" style="fill:#fff;fill-rule:nonzero;"/><path d="M14.23,10.968c0.776,-0 1.177,-0.008 1.203,-0.022c0.157,0.014 0.235,0.035 0.235,0.062l0,1.216l0.239,0c0.028,0.004 0.041,0.019 0.041,0.044l0,0.397l0.023,0.105c0.186,0 0.28,-0.07 0.28,-0.211c-0.015,-0.027 -0.022,-0.047 -0.022,-0.062l0.022,-0.04c-0.015,-0.025 -0.022,-0.053 -0.022,-0.084c0.086,-0.039 0.13,-0.089 0.13,-0.149l-0.194,0c-0.03,0 -0.045,-0.013 -0.045,-0.04c0.026,-0 0.42,-0.406 1.184,-1.216l1.894,-0l-0,0.021c-0.183,0.201 -0.577,0.606 -1.184,1.217l-0,0.018l0.216,0l0,0.044c0,0.018 -0.172,0.186 -0.515,0.502l-0.261,0l-0.105,0.022l-0,-0.022l-0.045,0.022l-0.172,0l0,0.04l0.452,0c0.03,0.004 0.045,0.019 0.045,0.044c-0.013,0.002 -0.215,0.205 -0.605,0.608l0,0.022c0.17,0.204 0.486,0.56 0.948,1.067c-0.036,0.029 -0.064,0.044 -0.085,0.044c-0,0.066 0.078,0.107 0.235,0.124l0.064,0.083l-0,0.044l-0.194,-0l-0,0.062c0.072,-0 0.108,0.007 0.108,0.022l0.108,-0.022l0.235,-0c0.111,-0 0.175,0.028 0.195,0.084l-0.023,0.043l-0.105,-0.022c-0.053,0 -0.117,0.008 -0.194,0.022c-0.027,-0.014 -0.049,-0.022 -0.063,-0.022l-0.045,0.022c-0.028,-0.014 -0.049,-0.022 -0.064,-0.022l-0.022,0.041c0.195,0.192 0.489,0.528 0.882,1.008c0.029,0 0.136,0.112 0.321,0.335l-0,0.022l-0.019,0.04c0.013,0.027 0.019,0.049 0.019,0.065l0.108,0c0.021,0 0.044,0.021 0.067,0.063c0,0.026 -0.015,0.04 -0.045,0.04l-1.288,-0c-0.145,-0 -0.36,-0.006 -0.646,-0.019c-0.041,-0.07 -0.105,-0.105 -0.195,-0.105l0,-0.044c0.028,-0.035 0.042,-0.056 0.042,-0.062l-0,-0.021c-0.032,-0 -0.246,-0.252 -0.643,-0.754l-0.474,-0.568c0.004,-0.027 0.018,-0.041 0.041,-0.041l0.089,0.022c0.028,-0.014 0.049,-0.022 0.064,-0.022l-0,0.022l0.041,-0.022l0.239,0c0.028,0 0.041,-0.014 0.041,-0.043c-0.034,-0.027 -0.062,-0.04 -0.086,-0.04c-0.091,-0 -0.278,-0.008 -0.56,-0.022l-0.041,-0.062c0.015,-0 0.022,-0.007 0.022,-0.022c0.028,0.015 0.049,0.022 0.064,0.022l0.041,-0.022c0.026,0.015 0.054,0.022 0.086,0.022l0.045,-0l-0,-0.022c-0,-0.027 -0.036,-0.068 -0.108,-0.124l-0.042,0.019c-0.072,-0.017 -0.108,-0.038 -0.108,-0.062l-0,-0.022l0.172,-0.124c0.015,-0.027 0.022,-0.049 0.022,-0.065c-0.028,-0.062 -0.056,-0.097 -0.086,-0.103l-0.022,0c-0.019,0 -0.105,0.084 -0.258,0.252c-0.057,-0 -0.086,0.013 -0.086,0.04l0,0.022l0.127,0.083c0.015,0.027 0.023,0.048 0.023,0.062c-0.036,0.029 -0.058,0.044 -0.064,0.044l-0.194,-0c-0.03,0.004 -0.045,0.017 -0.045,0.04l0,1.701c0,0.026 -0.013,0.04 -0.041,0.04l-0.859,-0c-0.144,-0 -0.36,-0.006 -0.646,-0.019l-0.022,-0.043l-0,-1.679c0.004,-0.027 0.019,-0.04 0.044,-0.04l0.236,-0l0.022,-0.106l-0,-0.021c-0.102,-0 -0.153,-0.021 -0.153,-0.062l0,-0.022c0,-0.042 0.051,-0.062 0.153,-0.062l-0,-0.106c-0,-0.014 0.006,-0.021 0.019,-0.021l-0.019,-0.041l-0,-1.529c-0,-0.029 -0.022,-0.044 -0.067,-0.044c-0.286,-0.014 -0.443,-0.022 -0.471,-0.022l-0.022,-0.04l0.044,-0.022c0.259,-0.014 0.431,-0.021 0.516,-0.021l-0,-0.419l-0.022,-0.106l-0.236,0c-0.03,0 -0.044,-0.013 -0.044,-0.04l-0,-1.176c0.004,-0.027 0.019,-0.04 0.044,-0.04l0.086,-0Zm1.181,1.824l-0,0.04l0.108,0l-0,-0.018l-0.022,-0.044c-0.024,0.015 -0.052,0.022 -0.086,0.022Zm0.537,0.106c0.005,0.026 0.02,0.04 0.045,0.04l0.022,-0.04l0,-0.044l-0.022,0c-0.03,0.004 -0.045,0.019 -0.045,0.044Zm-1.871,1.697l0.045,-0c0.027,0.004 0.041,0.018 0.041,0.043l0,0.041c0,0.02 -0.021,0.041 -0.063,0.062c-0.022,-0 -0.043,-0.021 -0.064,-0.062l-0,-0.041c0.004,-0.029 0.018,-0.043 0.041,-0.043Zm2.712,1.868l0.171,-0c0.024,-0 0.052,0.028 0.086,0.083l-0.235,0c-0.021,0 -0.044,-0.021 -0.067,-0.065l0.045,-0.018Z" style="fill:#fff;fill-rule:nonzero;"/></g><defs><linearGradient id="_Linear1" x1="0" y1="0" x2="1" y2="0" gradientUnits="userSpaceOnUse" gradientTransform="matrix(1.30884e-15,21.375,-21.375,1.30884e-15,11.25,0.5625)"><stop offset="0" style="stop-color:#00744c;stop-opacity:1"/><stop offset="1" style="stop-color:#65bcac;stop-opacity:1"/></linearGradient></defs></svg>