<?xml version="1.0" encoding="UTF-8" standalone="no"?><!DOCTYPE svg PUBLIC "-//W3C//DTD SVG 1.1//EN" "http://www.w3.org/Graphics/SVG/1.1/DTD/svg11.dtd"><svg width="100%" height="100%" viewBox="0 0 23 23" version="1.1" xmlns="http://www.w3.org/2000/svg" xmlns:xlink="http://www.w3.org/1999/xlink" xml:space="preserve" xmlns:serif="http://www.serif.com/" style="fill-rule:evenodd;clip-rule:evenodd;stroke-linejoin:round;stroke-miterlimit:2;"><rect id="Artboard2" x="0" y="0" width="22.5" height="22.5" style="fill:none;"/><path d="M21.938,5.906c-0,-2.949 -2.395,-5.344 -5.344,-5.344l-10.688,0c-2.949,0 -5.343,2.395 -5.343,5.344l-0,10.688c-0,2.949 2.394,5.343 5.343,5.343l10.688,0c2.949,0 5.344,-2.394 5.344,-5.343l-0,-10.688Z" style="fill:url(#_Linear1);"/><g><rect x="11.33" y="4.681" width="1.9" height="9.502" style="fill:#fff;"/><path d="M14.184,4.681c-0,1.057 1.279,1.915 2.854,1.915l-0,1.915c-3.15,-0 -5.708,-1.716 -5.708,-3.83l2.854,0Z" style="fill:#fff;"/><path d="M9.376,12.074c-1.08,0 -1.957,0.858 -1.957,1.915c-0,1.057 0.877,1.915 1.957,1.915c1.079,-0 1.956,-0.858 1.956,-1.915l0,-3.316c1.169,0.662 1.957,1.9 1.957,3.316c-0,2.114 -1.754,3.83 -3.913,3.83c-2.16,-0 -3.914,-1.716 -3.914,-3.83c0,-2.114 1.754,-3.829 3.914,-3.829l-0,1.914Z" style="fill:#fff;"/></g><defs><linearGradient id="_Linear1" x1="0" y1="0" x2="1" y2="0" gradientUnits="userSpaceOnUse" gradientTransform="matrix(1.30884e-15,21.375,-21.375,1.30884e-15,11.25,0.5625)"><stop offset="0" style="stop-color:#000;stop-opacity:1"/><stop offset="1" style="stop-color:#a1a1a1;stop-opacity:1"/></linearGradient></defs></svg>