<?xml version="1.0" encoding="UTF-8" standalone="no"?><!DOCTYPE svg PUBLIC "-//W3C//DTD SVG 1.1//EN" "http://www.w3.org/Graphics/SVG/1.1/DTD/svg11.dtd"><svg width="100%" height="100%" viewBox="0 0 23 23" version="1.1" xmlns="http://www.w3.org/2000/svg" xmlns:xlink="http://www.w3.org/1999/xlink" xml:space="preserve" xmlns:serif="http://www.serif.com/" style="fill-rule:evenodd;clip-rule:evenodd;stroke-linejoin:round;stroke-miterlimit:2;"><rect id="Artboard4" x="0" y="0" width="22.5" height="22.5" style="fill:none;"/><path d="M21.938,5.906c-0,-2.949 -2.395,-5.344 -5.344,-5.344l-10.688,0c-2.949,0 -5.343,2.395 -5.343,5.344l-0,10.688c-0,2.949 2.394,5.343 5.343,5.343l10.688,0c2.949,0 5.344,-2.394 5.344,-5.343l-0,-10.688Z" style="fill:url(#_Linear1);"/><g><path d="M4.59,6.878l1.276,-0c0.101,0.122 0.238,0.351 0.409,0.685c-0.023,0.01 -0.083,0.022 -0.179,0.034l-0,0.019c-0,0.018 0.016,0.035 0.048,0.053l0.065,0l0.116,-0.016c0.059,0.105 0.096,0.158 0.114,0.16l0.213,0l0,0.056l-0.179,-0l0,0.016c0.01,0.025 0.015,0.043 0.015,0.056c-0.026,0.023 -0.048,0.035 -0.066,0.035l0.279,0.522l0.033,-0c0.054,-0.119 0.08,-0.185 0.08,-0.197c-0.026,-0 -0.058,-0.055 -0.097,-0.163c0.057,-0.121 0.128,-0.181 0.213,-0.181c0.039,-0.059 0.083,-0.094 0.131,-0.107l0.082,0.019l0.08,-0.019l0,-0.037l-0.145,0c-0.023,0 -0.034,-0.012 -0.034,-0.035c0,-0.01 0.174,-0.31 0.523,-0.9l1.261,-0c0.021,0.003 0.031,0.015 0.031,0.034c-0.261,0.397 -0.441,0.697 -0.539,0.901l0.147,0c0.023,0.004 0.034,0.016 0.034,0.037l-0.034,0.019l-0.179,-0l-0.099,0.107l-0.097,-0c-0.568,0.953 -0.852,1.44 -0.852,1.46l0.213,-0c0.023,0.003 0.034,0.015 0.034,0.034c-0.04,0.025 -0.084,0.038 -0.131,0.038l-0.082,-0l-0.034,-0.019l-0.017,0.037l0,0.504l0.099,0.072l0,0.125c0,0.025 -0.01,0.037 -0.031,0.037l-0.344,0l0,0.019c0.025,-0 0.046,0.005 0.066,0.016c0.009,-0 0.014,-0.005 0.014,-0.016l0.083,0.016l0.261,-0c0.022,0.003 0.034,0.016 0.034,0.037l-0,1.314l0.065,0.072c0,0.024 -0.016,0.037 -0.048,0.037c-0.012,-0 -0.017,-0.006 -0.017,-0.019l-0.083,0.019l-0.735,-0c-0.012,-0 -0.017,-0.006 -0.017,-0.019c-0.011,0 -0.017,0.006 -0.017,0.019c-0.132,-0.016 -0.208,-0.029 -0.228,-0.037c0,0.012 -0.005,0.018 -0.017,0.018c0,-0.007 -0.027,-0.037 -0.082,-0.09l0,-1.279c0,-0.016 -0.016,-0.034 -0.048,-0.054l-0.247,0l-0.097,-0.018c-0.021,0.012 -0.037,0.018 -0.048,0.018l-0,-0.018l-0.034,0.018l-0.017,0c-0.021,0 -0.032,-0.011 -0.032,-0.034l0.032,-0.019l0.361,0c0.022,0 0.033,-0.012 0.033,-0.037l0,-0.125c0,-0.016 -0.038,-0.04 -0.116,-0.072l0.017,-0.125l0,-0.344l-0.017,-0.035l0.051,-0.037l0.114,-0c0.011,-0 0.017,0.006 0.017,0.019c0.053,-0.016 0.08,-0.034 0.08,-0.054l-0.163,-0.018l-0.082,-0c-0.079,-0.075 -0.379,-0.562 -0.9,-1.46c0.019,-0.013 0.041,-0.019 0.065,-0.019l-0.017,-0.088l0.1,-0l0.082,-0.019c-0,-0.025 -0.011,-0.037 -0.034,-0.037l-0.179,0l-0.114,-0.144l-0.181,0c-0.017,0 -0.038,-0.024 -0.066,-0.072c0.131,-0.012 0.196,-0.03 0.196,-0.053c-0.261,-0.396 -0.392,-0.618 -0.392,-0.666Zm1.474,2.43l0,0.018l0.032,0l-0,-0.018l-0.032,-0Zm-0.344,0.128l0.015,0.034l-0.032,0.019l-0.016,-0.035l0.033,-0.018Zm0.131,-0l0.015,-0l-0,0.053l-0.049,-0l0,-0.019c0.003,-0.023 0.015,-0.034 0.034,-0.034Z" style="fill:#fff;fill-rule:nonzero;"/><path d="M10.954,6.878c0.375,-0 0.693,0.088 0.953,0.264c-0.019,0.01 -0.04,0.016 -0.063,0.016l0,0.034c0.039,0 0.186,0.111 0.443,0.333c0.063,0 0.127,0.023 0.191,0.07l0.177,-0l0.077,0.018l0,0.019c0,0.023 -0.01,0.034 -0.031,0.034l-0.08,0c-0.01,0 -0.015,-0.006 -0.015,-0.018c-0.017,0.012 -0.044,0.018 -0.079,0.018l-0,0.016c0.24,0.295 0.42,0.692 0.539,1.191l-0.046,0.035l-0.382,0l-0,0.019c0.156,-0 0.247,0.005 0.271,0.016c0.018,-0.011 0.044,-0.016 0.08,-0.016l0.031,-0c0.042,-0 0.063,0.111 0.063,0.333c0.003,0.023 0.014,0.034 0.032,0.034l0.159,0c0.01,0 0.015,0.006 0.015,0.016l0.034,-0.016l0.014,0c0.065,0.007 0.097,0.024 0.097,0.051c0,0.389 -0.101,0.781 -0.302,1.175l-0.032,0.016l-0.302,-0l-0.066,0.053l-0.157,0c-0.021,0.004 -0.031,0.015 -0.031,0.035c0.116,-0 0.174,0.006 0.174,0.019c-0.247,0.447 -0.629,0.779 -1.145,0.996c-0.252,0.071 -0.48,0.107 -0.685,0.107l-0.174,-0c-0.124,-0 -0.209,-0.013 -0.254,-0.038c-0.021,0.013 -0.037,0.019 -0.049,0.019c-0.466,-0.087 -0.831,-0.257 -1.096,-0.509c-0.205,-0.19 -0.369,-0.382 -0.494,-0.575c-0.017,-0.013 -0.038,-0.019 -0.062,-0.019l-0.143,-0l-0,-0.035l0.157,0c0,-0.035 0.011,-0.053 0.034,-0.053l0.206,-0l0.08,-0.016c-0.165,-0.345 -0.255,-0.66 -0.272,-0.946l0,-0.053l0.017,-0.035c0.01,0 0.015,0.006 0.015,0.019c0.16,-0.013 0.277,-0.019 0.351,-0.019l0.237,0l0,-0.018c0,-0.024 -0.01,-0.035 -0.031,-0.035l-0.572,-0c-0.012,-0 -0.039,-0.041 -0.079,-0.123l-0.271,0c-0.021,0 -0.032,-0.011 -0.032,-0.034c0,-0.023 0.043,-0.041 0.128,-0.054l0,-0.069c-0.011,0 -0.027,-0.005 -0.048,-0.016c-0.021,0.011 -0.037,0.016 -0.048,0.016c-0.01,-0.023 -0.015,-0.041 -0.015,-0.053c0.031,-0.405 0.168,-0.813 0.411,-1.223c0.094,-0.14 0.179,-0.211 0.257,-0.211c0.137,0 0.206,-0.017 0.206,-0.053c-0.036,-0.023 -0.067,-0.034 -0.095,-0.034l-0.017,-0l-0.08,0.016l-0.014,-0.035l0.014,-0.035c-0.042,0 -0.062,-0.011 -0.062,-0.034c0.079,-0.077 0.227,-0.188 0.445,-0.333l0.174,-0c0.284,-0.187 0.698,-0.28 1.242,-0.28Zm-1.322,2.187l0,0.035l0.097,0.072l-0,0.034c-0,0.024 -0.011,0.035 -0.034,0.035l-0.077,0l-0,0.053l0.285,0c0.018,0 0.034,0.041 0.049,0.123c0.227,0.011 0.397,0.016 0.508,0.016l0.126,-0l-0,0.035c-0,0.024 -0.011,0.037 -0.032,0.037c-0.019,-0.013 -0.034,-0.019 -0.046,-0.019c-0.011,0 -0.017,0.006 -0.017,0.019l-0.08,-0.019c-0.038,0 -0.187,0.006 -0.445,0.019l0,0.085c0.052,0.286 0.184,0.544 0.397,0.773c0.118,0.089 0.177,0.141 0.177,0.157l-0.032,0.016l-0.222,-0l0.014,0.035l0,0.018l-0.094,0l-0,0.035l0.191,-0c0.189,0.058 0.315,0.088 0.38,0.088c0.061,-0 0.162,-0.018 0.302,-0.053c0,-0.024 -0.01,-0.035 -0.031,-0.035l-0.08,-0l0,-0.035l0.174,0c0.012,0 0.086,-0.018 0.223,-0.053l0.16,-0c0.024,-0 0.045,-0.005 0.063,-0.016c0.021,0.011 0.037,0.016 0.048,0.016c0.208,-0.098 0.394,-0.314 0.557,-0.647c0.063,-0.235 0.094,-0.369 0.094,-0.403l-0,-0.141c-0,-0.02 -0.052,-0.036 -0.157,-0.051l-0.032,0.016l-0.111,0c-0.044,0 -0.065,-0.116 -0.065,-0.349l-0.078,-0.018l-0.542,-0l0,-0.035c0.16,-0.011 0.277,-0.016 0.351,-0.016l0.237,0l0,-0.019c-0.1,-0.31 -0.259,-0.549 -0.477,-0.716c-0.24,-0.164 -0.436,-0.245 -0.588,-0.245c-0.443,-0 -0.804,0.25 -1.081,0.751c-0.075,0.206 -0.112,0.34 -0.112,0.402Zm-1.096,0.368l0.174,-0c0.021,0.003 0.032,0.015 0.032,0.035l-0.032,0.018l-0.174,0l-0,-0.053Zm3.911,0.072l-0.015,0.035l0,0.015l0.015,0c-0,-0.023 0.01,-0.034 0.031,-0.034l0,-0.016l-0.031,-0Zm-1.956,0.261l0.017,-0c0.021,0.004 0.032,0.015 0.032,0.035l-0,0.053c-0,0.023 -0.011,0.035 -0.032,0.035l-0.017,-0c-0.021,-0 -0.031,-0.012 -0.031,-0.035l-0,-0.053c0.003,-0.023 0.014,-0.035 0.031,-0.035Zm-1.861,0.192l0.097,-0l0.015,0.088l-0.046,0.034l-0.049,0c-0.021,0 -0.037,-0.034 -0.048,-0.104l0.031,-0.018Z" style="fill:#fff;fill-rule:nonzero;"/><path d="M13.508,6.878l1.11,-0c0.023,0.003 0.034,0.015 0.034,0.034l0,1.279l0.305,0c0.023,0.004 0.034,0.015 0.034,0.035l0,0.019c-0.145,0.012 -0.253,0.018 -0.324,0.018l-0.015,0l0,0.123l-0.082,0.072l0,0.106c0.037,0 0.075,0.03 0.114,0.088l0.193,0c0.021,0.004 0.032,0.016 0.032,0.038l-0,0.921c-0,0.024 -0.011,0.035 -0.032,0.035c-0.011,0 -0.017,-0.005 -0.017,-0.016c-0.017,0.011 -0.038,0.016 -0.062,0.016l-0,0.037c-0,0.027 0.004,0.05 0.014,0.07c0,0.106 -0.048,0.16 -0.145,0.16l-0,0.018l0.114,0.016l0.065,-0.016c0.042,0 0.074,0.089 0.097,0.267c0.032,0.026 0.048,0.067 0.048,0.122l-0.065,0.037c-0.058,-0.012 -0.107,-0.018 -0.145,-0.018l-0.017,-0c-0,0.115 0.123,0.246 0.37,0.391c0.061,0.036 0.18,0.059 0.356,0.07c0.229,-0.073 0.412,-0.215 0.549,-0.427c0.003,-0.023 0.014,-0.034 0.032,-0.034l0.128,-0c0.09,-0 0.149,-0.06 0.176,-0.179l0.017,-0.088l0,-0.301c0,-0.083 0.011,-0.148 0.032,-0.194c-0.021,-0 -0.032,-0.013 -0.032,-0.037l0,-0.747l0.017,-0.087c-0.046,-0.036 -0.122,-0.054 -0.227,-0.054c-0,0.013 -0.005,0.019 -0.015,0.019c0,-0.064 -0.038,-0.1 -0.113,-0.107l-0,-0.106l0.096,-0.072c0,-0.094 0.011,-0.141 0.032,-0.141l0.29,-0l0,-0.035c-0.145,-0.012 -0.252,-0.019 -0.322,-0.019l0,-1.279c0.004,-0.023 0.014,-0.034 0.032,-0.034l1.096,-0c0.023,0.003 0.034,0.015 0.034,0.034l0,1.245c0.003,0.023 0.014,0.034 0.031,0.034l0.274,0c0.023,0.004 0.034,0.015 0.034,0.035c-0.055,0.025 -0.152,0.037 -0.291,0.037l-0.033,0c-0,0.107 -0.032,0.16 -0.095,0.16l0,0.141c0.053,0 0.08,0.012 0.08,0.035l-0.017,0.037l0.08,0.016l0.162,0l0.048,0.038l-0.016,0.088l-0,1.313c-0,0.027 0.005,0.05 0.016,0.069c-0.011,0.119 -0.027,0.179 -0.048,0.179l-0.194,-0c-0.035,-0 -0.072,0.106 -0.111,0.32c-0.074,0.225 -0.257,0.468 -0.549,0.727c0.021,0.003 0.031,0.015 0.031,0.035l0,0.018c-0.353,0.201 -0.681,0.301 -0.982,0.301c-0.045,0 -0.088,0.006 -0.129,0.019c-0.448,-0 -0.851,-0.089 -1.21,-0.267c-0.098,-0.071 -0.195,-0.112 -0.29,-0.125c-0.29,-0.22 -0.484,-0.498 -0.581,-0.834l-0.031,-0.176l0.031,-0.018l0.179,-0c0.015,-0 0.031,-0.018 0.049,-0.053l-0.017,-0.248c0.011,-0.023 0.017,-0.041 0.017,-0.054l-0.049,-0.037l-0.193,0c-0.023,0 -0.034,-0.011 -0.034,-0.034l0.034,-0.016l0.111,-0l-0,-0.214l0.114,-0.072c-0,-0.071 0.005,-0.106 0.017,-0.106l-0.017,-0.125l-0,-0.32c-0,-0.043 0.005,-0.096 0.017,-0.16c-0.012,-0.014 -0.017,-0.055 -0.017,-0.122l-0,-0.038c-0,-0.01 0.005,-0.016 0.017,-0.016c-0,-0.032 -0.033,-0.056 -0.097,-0.072c-0.021,0.013 -0.037,0.019 -0.049,0.019l0,-0.019l-0.033,0.019l-0.063,-0c-0.029,-0.059 -0.051,-0.088 -0.066,-0.088l-0.031,0l-0,-0.053l-0.017,-0.091c0.064,0 0.097,-0.065 0.097,-0.194l0.322,-0l-0,-0.035c-0.16,-0.012 -0.267,-0.019 -0.322,-0.019l-0.017,-0.034l-0,-1.245c0.003,-0.023 0.014,-0.034 0.034,-0.034Zm3.061,2.52c0,0.023 -0.01,0.035 -0.031,0.035l-0,0.019l0.031,-0l0.017,-0.035l-0,-0.019l-0.017,0Z" style="fill:#fff;fill-rule:nonzero;"/><path d="M4.29,10.994l2.722,0c0.024,0 0.046,0.006 0.066,0.019c0.019,-0.013 0.041,-0.019 0.065,-0.019c0.023,0.03 0.034,0.054 0.034,0.072l-0.017,0.037c0.011,0.063 0.033,0.11 0.065,0.144l0,0.682l-0.017,0.035l-0.082,-0.016l-0.341,-0l-0.099,0.016c-0.018,-0.011 -0.045,-0.016 -0.08,-0.016l-0.114,0.016c-0.019,-0.011 -0.041,-0.016 -0.065,-0.016l-0.034,0.016c-0.012,-0 -0.017,-0.005 -0.017,-0.016l-0.08,0.016l-0.165,-0l0,0.629c0,0.025 -0.043,0.043 -0.13,0.056c-0,0.046 -0.011,0.069 -0.032,0.069l-0.147,-0c-0.021,0.005 -0.032,0.018 -0.032,0.037c0.003,0.023 0.014,0.035 0.032,0.035l0.164,-0l0.032,0.019l-0.017,0.09l-0,0.163l0.099,0.072c-0,0.023 -0.065,0.04 -0.196,0.053l-0,1.058c-0,0.033 -0.055,0.057 -0.165,0.072l0,0.018l0.247,0c0.065,0.032 0.097,0.056 0.097,0.072l-0,1.42c-0,0.023 -0.011,0.035 -0.032,0.035l-0.653,-0c-0.11,-0 -0.273,-0.006 -0.489,-0.019c-0.011,-0.22 -0.017,-0.382 -0.017,-0.485l0,-0.97c-0.098,-0.023 -0.147,-0.047 -0.147,-0.071l-0.032,0.018l-0.147,0l-0,-0.018c0.003,-0.024 0.014,-0.035 0.033,-0.035l0.08,0.019c0.021,-0.013 0.038,-0.019 0.051,-0.019l0,-1.079c0.003,-0.023 0.014,-0.035 0.032,-0.035l0.147,0l0,-0.072c-0.055,0 -0.082,-0.011 -0.082,-0.034l-0,-0.235c-0,-0.025 -0.011,-0.037 -0.034,-0.037l-0.145,-0c-0.023,-0 -0.034,-0.012 -0.034,-0.035c0.003,-0.025 0.014,-0.037 0.034,-0.037l0.145,-0l0.065,-0.088l0.083,0l0.017,-0.162c-0,-0.024 -0.006,-0.035 -0.017,-0.035l0.017,-0.091l-0,-0.287c-0,-0.052 -0.022,-0.088 -0.066,-0.107c-0.011,-0 -0.017,0.005 -0.017,0.016l-0.082,-0.016l-0.944,-0c-0.022,-0 -0.034,-0.012 -0.034,-0.037l0,-0.682c-0.043,-0 -0.065,-0.012 -0.065,-0.035l0,-0.019c0,-0.026 0.006,-0.05 0.017,-0.072c-0.011,-0.021 -0.017,-0.045 -0.017,-0.072c0.011,0 0.017,-0.006 0.017,-0.018c0.234,-0.013 0.408,-0.019 0.523,-0.019Zm0.145,1.724l0.034,-0c0.021,0.005 0.031,0.018 0.031,0.037c0,0.023 -0.01,0.035 -0.031,0.035l-0.034,-0c-0.021,-0 -0.032,-0.012 -0.032,-0.035c0.004,-0.025 0.014,-0.037 0.032,-0.037Zm0.457,1.42l0,0.035l0.017,-0l0,-0.035l-0.017,0Z" style="fill:#fff;fill-rule:nonzero;"/><path d="M7.292,10.997l1.11,-0c0.023,0.003 0.034,0.015 0.034,0.034l0,1.279l0.305,0c0.023,0.004 0.034,0.015 0.034,0.035l0,0.019c-0.145,0.012 -0.253,0.018 -0.324,0.018l-0.015,0l0,0.123l-0.082,0.072l-0,0.106c0.037,0 0.075,0.03 0.114,0.088l0.193,0c0.021,0.004 0.032,0.016 0.032,0.038l-0,0.921c-0,0.023 -0.011,0.035 -0.032,0.035c-0.011,0 -0.017,-0.005 -0.017,-0.016c-0.017,0.011 -0.038,0.016 -0.063,0.016l0,0.037c0,0.027 0.005,0.05 0.015,0.07c-0,0.106 -0.048,0.159 -0.145,0.159l-0,0.019l0.113,0.016l0.066,-0.016c0.042,0 0.074,0.089 0.097,0.267c0.032,0.026 0.048,0.067 0.048,0.122l-0.065,0.037c-0.058,-0.012 -0.107,-0.018 -0.146,-0.018l-0.016,-0c-0,0.115 0.123,0.246 0.37,0.391c0.061,0.036 0.18,0.059 0.356,0.07c0.229,-0.073 0.412,-0.215 0.549,-0.427c0.003,-0.023 0.014,-0.034 0.031,-0.034l0.129,-0c0.09,-0 0.149,-0.06 0.176,-0.179l0.017,-0.088l0,-0.301c0,-0.083 0.011,-0.148 0.032,-0.194c-0.021,-0 -0.032,-0.013 -0.032,-0.038l0,-0.746l0.017,-0.087c-0.047,-0.036 -0.122,-0.054 -0.227,-0.054c-0,0.013 -0.005,0.019 -0.015,0.019c0,-0.064 -0.038,-0.1 -0.114,-0.107l0,-0.106l0.097,-0.072c0,-0.094 0.011,-0.141 0.032,-0.141l0.29,-0l0,-0.035c-0.145,-0.012 -0.252,-0.019 -0.322,-0.019l0,-1.279c0.003,-0.023 0.014,-0.034 0.032,-0.034l1.096,-0c0.023,0.003 0.034,0.015 0.034,0.034l-0,1.245c0.003,0.023 0.014,0.034 0.031,0.034l0.274,0c0.022,0.004 0.034,0.015 0.034,0.035c-0.055,0.025 -0.152,0.037 -0.291,0.037l-0.034,0c0,0.107 -0.031,0.16 -0.094,0.16l-0,0.141c0.053,0 0.08,0.012 0.08,0.035l-0.017,0.037l0.08,0.016l0.162,0l0.048,0.038l-0.017,0.087l0,1.314c0,0.027 0.006,0.05 0.017,0.069c-0.011,0.119 -0.027,0.179 -0.048,0.179l-0.194,-0c-0.035,-0 -0.072,0.106 -0.111,0.319c-0.074,0.226 -0.257,0.469 -0.549,0.728c0.021,0.003 0.031,0.015 0.031,0.034l0,0.019c-0.353,0.201 -0.681,0.301 -0.982,0.301c-0.046,0 -0.088,0.006 -0.129,0.019c-0.448,-0 -0.852,-0.089 -1.21,-0.267c-0.098,-0.071 -0.195,-0.112 -0.29,-0.125c-0.291,-0.22 -0.484,-0.498 -0.581,-0.834l-0.031,-0.176l0.031,-0.018l0.179,-0c0.015,-0 0.031,-0.018 0.049,-0.054l-0.017,-0.247c0.011,-0.023 0.017,-0.041 0.017,-0.054l-0.049,-0.037l-0.193,0c-0.023,0 -0.034,-0.011 -0.034,-0.035l0.034,-0.016l0.111,0l-0,-0.213l0.114,-0.072c-0,-0.071 0.005,-0.106 0.017,-0.106l-0.017,-0.125l-0,-0.32c-0,-0.043 0.005,-0.096 0.017,-0.16c-0.012,-0.014 -0.017,-0.055 -0.017,-0.123l-0,-0.037c-0,-0.011 0.005,-0.016 0.017,-0.016c-0,-0.032 -0.033,-0.056 -0.097,-0.072c-0.021,0.013 -0.037,0.019 -0.049,0.019l0,-0.019l-0.034,0.019l-0.062,-0c-0.03,-0.059 -0.051,-0.088 -0.066,-0.088l-0.031,-0l-0,-0.053l-0.017,-0.091c0.064,0 0.097,-0.065 0.097,-0.194l0.321,-0l0,-0.035c-0.159,-0.012 -0.267,-0.019 -0.321,-0.019l-0.017,-0.034l-0,-1.245c0.003,-0.023 0.014,-0.034 0.034,-0.034Zm3.061,2.52c-0,0.023 -0.011,0.035 -0.032,0.035l0,0.019l0.032,-0l0.017,-0.035l-0,-0.019l-0.017,0Z" style="fill:#fff;fill-rule:nonzero;"/><path d="M12.164,10.989l1.459,-0c0.604,-0 1.03,0.234 1.278,0.703c-0.029,0.009 -0.095,0.021 -0.198,0.035c0.048,0.11 0.092,0.266 0.13,0.469l0.165,-0c0.023,-0 0.034,0.018 0.034,0.053l0.196,0c0.021,0.005 0.031,0.018 0.031,0.037l0,0.072c0,0.025 -0.01,0.038 -0.031,0.038c-0.011,-0 -0.017,-0.007 -0.017,-0.019c-0.011,-0 -0.017,0.006 -0.017,0.019l-0.08,-0.019l-0.068,-0c0,0.446 -0.168,0.782 -0.505,1.01l-0,0.034c0.435,0.212 0.653,0.585 0.653,1.119l-0,0.144l0.017,0c0.014,0 0.069,-0.006 0.164,-0.018l0.017,0.037c-0.008,0.156 -0.029,0.234 -0.065,0.234l-0.068,0c-0.024,0 -0.046,-0.006 -0.065,-0.018c-0.037,-0 -0.086,0.108 -0.148,0.325l-0.13,0.144l-0.114,-0.019l-0.048,-0c-0.299,0.337 -0.605,0.506 -0.918,0.506l-2.408,0c-0.022,0 -0.034,-0.012 -0.034,-0.037l0,-0.432c0.004,-0.025 0.015,-0.037 0.034,-0.037l0.163,-0c0.022,-0 0.033,-0.012 0.033,-0.035l0,-0.037c0,-0.036 -0.005,-0.053 -0.017,-0.053l0.017,-0.091l0,-1.063c0,-0.025 -0.011,-0.037 -0.033,-0.037l-0.097,-0c-0.094,-0 -0.241,-0.006 -0.443,-0.019l-0.017,-0.035l-0,-0.018l0.017,-0.035c0.202,-0.012 0.349,-0.018 0.443,-0.018l0.113,-0l0.017,-0.091l0,-1.335l-0.017,-0.106c0.012,-0.022 0.017,-0.052 0.017,-0.091l0,-0.056c0,-0.014 -0.038,-0.043 -0.116,-0.088l0,-0.416c0,-0.016 0.033,-0.033 0.099,-0.053c0.012,-0.025 0.017,-0.043 0.017,-0.056c0,-0.037 -0.005,-0.151 -0.017,-0.341c0.012,-0.181 0.023,-0.278 0.034,-0.29c0.234,-0.011 0.409,-0.016 0.523,-0.016Zm-0.917,0.738l0.034,-0l-0,0.45l-0.034,0l-0,-0.45Zm0.116,-0l0.031,-0l0,0.45l-0.031,0l0,-0.45Zm1.522,0.234l-0.295,0l-0,0.2c0.003,0.023 0.015,0.035 0.034,0.035l0.147,-0c0.005,-0 0.021,0.012 0.049,0.037l-0.017,0.125l-0,0.594c0.003,0.025 0.014,0.038 0.034,0.038l0.653,-0c0.241,-0.107 0.361,-0.263 0.361,-0.469l-0,-0.144l0.198,-0l0,-0.019c0,-0.051 -0.022,-0.088 -0.067,-0.109l-0.032,0.019c-0.011,-0 -0.017,-0.007 -0.017,-0.019l-0.031,0.019l-0.083,-0c-0.038,-0.048 -0.077,-0.072 -0.116,-0.072l-0.13,-0c-0.131,-0.157 -0.234,-0.235 -0.31,-0.235l-0.329,0c-0.01,0 -0.015,-0.006 -0.015,-0.018l-0.034,0.018Zm-0.065,1.929l-0,0.056l0.179,0c0.163,0 0.382,-0.006 0.656,-0.018c-0.007,-0.036 -0.05,-0.054 -0.131,-0.054l-0.261,0c-0.094,0 -0.241,0.006 -0.443,0.016Zm-0.591,0.056c0,0.023 -0.004,0.035 -0.014,0.035c0.01,0.023 0.014,0.041 0.014,0.053l0.542,0l0,-0.053l-0.116,-0.035l-0.426,0Zm1.769,0l0,0.072l0.017,0.035l0.114,-0.019l0.426,0c0.023,0 0.034,-0.011 0.034,-0.035l-0,-0.018c-0,-0.023 -0.011,-0.035 -0.034,-0.035l-0.557,0Zm-3.078,0c0.021,0.004 0.032,0.015 0.032,0.035l-0,0.018c-0,0.024 -0.011,0.035 -0.032,0.035c-0.022,0 -0.034,-0.011 -0.034,-0.035l0,-0.018c0.003,-0.023 0.015,-0.035 0.034,-0.035Zm1.999,0.107l-0.099,-0l-0.017,0.128c-0,0.035 0.006,0.053 0.017,0.053l-0.017,0.091l-0,0.09c-0,0.103 0.006,0.211 0.017,0.323c-0.011,0.046 -0.017,0.1 -0.017,0.162l0.034,0.019l0.999,-0c0.089,-0 0.187,-0.072 0.293,-0.216c-0.131,-0.013 -0.196,-0.03 -0.196,-0.053c0.037,-0 0.065,-0.115 0.082,-0.344c-0.087,-0.169 -0.136,-0.253 -0.147,-0.253c-0.081,-0 -0.349,-0.006 -0.804,-0.019l-0.113,0.019l-0,-0.019l-0.032,0.019Z" style="fill:#fff;fill-rule:nonzero;"/><path d="M16.078,10.989l2.328,-0c0.015,-0 0.031,0.018 0.049,0.053l-0,0.616c-0,0.016 0.016,0.033 0.048,0.053l0.065,-0c0.026,-0 0.049,-0.006 0.068,-0.019c0.053,0.016 0.08,0.034 0.08,0.053l0,0.038c0,0.023 -0.01,0.034 -0.031,0.034l-0.083,0l0,0.091c0,0.025 -0.011,0.037 -0.034,0.037l-1.13,0c-0.114,0 -0.288,0.007 -0.522,0.019l-0,0.162c0.003,0.024 0.013,0.035 0.031,0.035l0.148,0c0.022,0.004 0.034,0.016 0.034,0.037l-0,0.776l1.425,-0c0.021,0.003 0.031,0.015 0.031,0.034l0,0.272c0,0.023 -0.059,0.041 -0.179,0.053l-0.034,-0.018l-0.096,0.018c-0.023,-0.012 -0.04,-0.018 -0.051,-0.018l-0.017,0.09l-0,0.307l0.017,0.181l-0.049,0.037l-1.394,0c0,0.041 -0.037,0.065 -0.113,0.072l-0.099,-0.018l-0.032,-0c-0.023,0.003 -0.034,0.015 -0.034,0.037l0,0.016l0.099,-0l0.165,0.018l-0,0.597c-0,0.064 0.032,0.1 0.097,0.107c-0,0.026 0.005,0.05 0.017,0.072c-0.012,0.021 -0.017,0.045 -0.017,0.072l-0,0.018l1.558,0c0.021,0 0.037,0.061 0.049,0.182l0.244,-0c0.023,0.003 0.034,0.015 0.034,0.034c0,0.025 -0.011,0.037 -0.034,0.037l-0.179,0l-0.082,0.019l-0,0.685l-2.687,-0c-0.011,-0 -0.016,-0.006 -0.016,-0.019l-0.034,0.019l-0.097,-0c-0.016,-0 -0.033,-0.018 -0.051,-0.053l0,-0.038c0,-0.012 0.006,-0.018 0.017,-0.018l-0.017,-0.035l0,-0.434l-0.082,-0.016l-0.145,-0c-0.023,-0 -0.034,-0.013 -0.034,-0.038l-0,-0.037c0.003,-0.023 0.014,-0.035 0.034,-0.035c0.182,-0.012 0.324,-0.018 0.425,-0.018l0.066,-0l-0,-0.035l-0.165,-0.018l-0.065,-0c-0.023,-0 -0.034,-0.018 -0.034,-0.054l0.017,-0.037c-0.011,-0.021 -0.017,-0.045 -0.017,-0.072c0,-0.016 0.033,-0.034 0.099,-0.053c0.012,-0.022 0.017,-0.046 0.017,-0.075c0,-0.051 -0.039,-0.081 -0.116,-0.088l0,-0.615l0.017,-0.035l-0.031,-0.019l-0.213,0c-0.023,0 -0.034,-0.011 -0.034,-0.034c0.003,-0.025 0.014,-0.037 0.034,-0.037l0.196,-0c0.021,-0 0.031,-0.013 0.031,-0.038l0,-0.594c0,-0.025 0.017,-0.037 0.051,-0.037c0.034,-0 0.137,-0.006 0.31,-0.016l-0,-1.101c-0,-0.037 -0.06,-0.056 -0.179,-0.056l-0.034,0l-0,-0.287l0.116,-0.072l-0,-0.038c-0,-0.023 -0.011,-0.034 -0.034,-0.034l-0.196,-0c-0.023,-0 -0.034,-0.013 -0.034,-0.037l0,-0.632l0.017,-0.035c0.219,-0.012 0.383,-0.018 0.491,-0.018Zm-0.622,2.166l0.083,-0c0.021,0.003 0.031,0.015 0.031,0.035l0,0.09c0,0.023 -0.01,0.035 -0.031,0.035l-0.083,-0c-0.022,-0 -0.034,-0.012 -0.034,-0.035l0,-0.09c0.005,-0.024 0.017,-0.035 0.034,-0.035Zm0.591,2.001l0.147,-0l0,-0.035l-0.116,0c-0.021,0.004 -0.031,0.015 -0.031,0.035Zm1.769,0.018l-0,0.072c0.003,0.025 0.014,0.038 0.034,0.038l0.227,-0c0,-0.015 0.006,-0.033 0.017,-0.056c-0.011,-0.023 -0.017,-0.041 -0.017,-0.054l-0.261,0Z" style="fill:#fff;fill-rule:nonzero;"/></g><defs><linearGradient id="_Linear1" x1="0" y1="0" x2="1" y2="0" gradientUnits="userSpaceOnUse" gradientTransform="matrix(1.30884e-15,21.375,-21.375,1.30884e-15,11.25,0.5625)"><stop offset="0" style="stop-color:#d31e25;stop-opacity:1"/><stop offset="1" style="stop-color:#e9b6c4;stop-opacity:1"/></linearGradient></defs></svg>